<svg xmlns="http://www.w3.org/2000/svg" width="213" height="213" viewBox="0 0 213 213">
  <g id="Grupo_891808" data-name="Grupo 891808" transform="translate(-1004 -8249)">
    <path id="Trazado_688677" data-name="Trazado 688677" d="M106.5,0A106.5,106.5,0,1,1,0,106.5,106.5,106.5,0,0,1,106.5,0Z" transform="translate(1004 8249)" fill="#fff"/>
    <path id="Feature_Two" data-name="Feature Two" d="M61.566,76H47.934V52.25h-20.2V76H14.027V19.125H27.738V41.7h20.2V19.125H61.566Zm46.211-41.68a13.13,13.13,0,0,1-2.051,7.3,14.936,14.936,0,0,1-5.645,5.078,16.436,16.436,0,0,1,6.445,5.449,14.062,14.062,0,0,1,2.383,8.184q0,7.617-5.254,12.031T89.184,76.781q-9.258,0-14.609-4.434a14.78,14.78,0,0,1-5.352-12.012,14.238,14.238,0,0,1,2.344-8.086A15.937,15.937,0,0,1,78.207,46.7a15.02,15.02,0,0,1-5.7-5.078,13.039,13.039,0,0,1-2.07-7.3q0-7.422,5.039-11.719t13.594-4.3q8.633,0,13.672,4.3T107.777,34.32ZM95.707,59.281a7.509,7.509,0,0,0-1.816-5.41,6.325,6.325,0,0,0-4.785-1.895,6.389,6.389,0,0,0-4.8,1.895,7.46,7.46,0,0,0-1.836,5.41,7.524,7.524,0,0,0,1.855,5.371,6.368,6.368,0,0,0,4.863,1.973,6.119,6.119,0,0,0,4.727-1.953A7.66,7.66,0,0,0,95.707,59.281Zm-6.641-30.82A4.865,4.865,0,0,0,85.023,30.2a7.544,7.544,0,0,0-1.387,4.824,8,8,0,0,0,1.406,4.922,4.852,4.852,0,0,0,4.141,1.875,4.653,4.653,0,0,0,4.043-1.875,8.248,8.248,0,0,0,1.348-4.922,7.56,7.56,0,0,0-1.387-4.8A4.93,4.93,0,0,0,89.066,28.461Z" transform="translate(1050 8303)" fill="#8979f3"/>
  </g>
</svg>
