<svg id="leccion-en-linea" xmlns="http://www.w3.org/2000/svg" width="78.79" height="73.707" viewBox="0 0 78.79 73.707">
  <path id="Trazado_688422" data-name="Trazado 688422" d="M8.812,3h61a3.812,3.812,0,0,1,3.812,3.812V51.291H5V6.812A3.812,3.812,0,0,1,8.812,3Z" transform="translate(0.083 -3)" fill="#506480"/>
  <path id="Trazado_688423" data-name="Trazado 688423" d="M74.707,41H6.083L1,61.333H79.79Z" transform="translate(-1 7.291)" fill="#e9eff6"/>
  <path id="Trazado_688424" data-name="Trazado 688424" d="M77.248,62.083H3.542A2.542,2.542,0,0,1,1,59.542V57H79.79v2.542A2.542,2.542,0,0,1,77.248,62.083Z" transform="translate(-1 11.624)" fill="#506480"/>
  <path id="Trazado_688425" data-name="Trazado 688425" d="M0,0H43.207V58.457H0Z" transform="translate(68.624 5.083) rotate(90)" fill="#84dcff"/>
  <g id="Grupo_168052" data-name="Grupo 168052" transform="translate(7.625 52.103)">
    <path id="Trazado_688426" data-name="Trazado 688426" d="M40.25,48H27.542a1.271,1.271,0,0,0-1.233.962l-1.271,5.083a1.271,1.271,0,0,0,1.233,1.58H41.52a1.271,1.271,0,0,0,1.233-1.58l-1.271-5.083A1.271,1.271,0,0,0,40.25,48Z" transform="translate(-2.125 -42.917)" fill="#506480"/>
    <path id="Trazado_688427" data-name="Trazado 688427" d="M43.812,50.542H41.271a1.271,1.271,0,0,1,0-2.542h2.542a1.271,1.271,0,1,1,0,2.542Z" transform="translate(1.937 -42.917)" fill="#506480"/>
    <path id="Trazado_688428" data-name="Trazado 688428" d="M49.812,50.542H47.271a1.271,1.271,0,0,1,0-2.542h2.542a1.271,1.271,0,0,1,0,2.542Z" transform="translate(3.561 -42.917)" fill="#506480"/>
    <path id="Trazado_688429" data-name="Trazado 688429" d="M55.812,50.542H53.271a1.271,1.271,0,0,1,0-2.542h2.542a1.271,1.271,0,0,1,0,2.542Z" transform="translate(5.186 -42.917)" fill="#506480"/>
    <path id="Trazado_688430" data-name="Trazado 688430" d="M44.812,54.542H42.271a1.271,1.271,0,1,1,0-2.542h2.542a1.271,1.271,0,0,1,0,2.542Z" transform="translate(2.207 -41.834)" fill="#506480"/>
    <path id="Trazado_688431" data-name="Trazado 688431" d="M50.812,54.542H48.271a1.271,1.271,0,1,1,0-2.542h2.542a1.271,1.271,0,1,1,0,2.542Z" transform="translate(3.832 -41.834)" fill="#506480"/>
    <path id="Trazado_688432" data-name="Trazado 688432" d="M56.812,54.542H54.271a1.271,1.271,0,0,1,0-2.542h2.542a1.271,1.271,0,0,1,0,2.542Z" transform="translate(5.457 -41.834)" fill="#506480"/>
    <path id="Trazado_688433" data-name="Trazado 688433" d="M22.812,54.542H20.271a1.271,1.271,0,1,1,0-2.542h2.542a1.271,1.271,0,1,1,0,2.542Z" transform="translate(-3.75 -41.834)" fill="#506480"/>
    <path id="Trazado_688434" data-name="Trazado 688434" d="M16.812,54.542H14.271a1.271,1.271,0,1,1,0-2.542h2.542a1.271,1.271,0,1,1,0,2.542Z" transform="translate(-5.375 -41.834)" fill="#506480"/>
    <path id="Trazado_688435" data-name="Trazado 688435" d="M10.812,54.542H8.271a1.271,1.271,0,1,1,0-2.542h2.542a1.271,1.271,0,1,1,0,2.542Z" transform="translate(-7 -41.834)" fill="#506480"/>
    <path id="Trazado_688436" data-name="Trazado 688436" d="M23.812,50.542H21.271a1.271,1.271,0,0,1,0-2.542h2.542a1.271,1.271,0,0,1,0,2.542Z" transform="translate(-3.48 -42.917)" fill="#506480"/>
    <path id="Trazado_688437" data-name="Trazado 688437" d="M17.812,50.542H15.271a1.271,1.271,0,0,1,0-2.542h2.542a1.271,1.271,0,0,1,0,2.542Z" transform="translate(-5.104 -42.917)" fill="#506480"/>
    <path id="Trazado_688438" data-name="Trazado 688438" d="M11.812,50.542H9.271a1.271,1.271,0,0,1,0-2.542h2.542a1.271,1.271,0,0,1,0,2.542Z" transform="translate(-6.729 -42.917)" fill="#506480"/>
    <path id="Trazado_688439" data-name="Trazado 688439" d="M42.812,46.542H40.271a1.271,1.271,0,1,1,0-2.542h2.542a1.271,1.271,0,1,1,0,2.542Z" transform="translate(1.666 -44)" fill="#506480"/>
    <path id="Trazado_688440" data-name="Trazado 688440" d="M48.812,46.542H46.271a1.271,1.271,0,0,1,0-2.542h2.542a1.271,1.271,0,0,1,0,2.542Z" transform="translate(3.291 -44)" fill="#506480"/>
    <path id="Trazado_688441" data-name="Trazado 688441" d="M54.812,46.542H52.271a1.271,1.271,0,1,1,0-2.542h2.542a1.271,1.271,0,1,1,0,2.542Z" transform="translate(4.916 -44)" fill="#506480"/>
    <path id="Trazado_688442" data-name="Trazado 688442" d="M24.812,46.542H22.271a1.271,1.271,0,1,1,0-2.542h2.542a1.271,1.271,0,1,1,0,2.542Z" transform="translate(-3.209 -44)" fill="#506480"/>
    <path id="Trazado_688443" data-name="Trazado 688443" d="M30.812,46.542H28.271a1.271,1.271,0,1,1,0-2.542h2.542a1.271,1.271,0,0,1,0,2.542Z" transform="translate(-1.584 -44)" fill="#506480"/>
    <path id="Trazado_688444" data-name="Trazado 688444" d="M36.812,46.542H34.271a1.271,1.271,0,0,1,0-2.542h2.542a1.271,1.271,0,1,1,0,2.542Z" transform="translate(0.041 -44)" fill="#506480"/>
    <path id="Trazado_688445" data-name="Trazado 688445" d="M18.812,46.542H16.271a1.271,1.271,0,0,1,0-2.542h2.542a1.271,1.271,0,1,1,0,2.542Z" transform="translate(-4.834 -44)" fill="#506480"/>
    <path id="Trazado_688446" data-name="Trazado 688446" d="M12.812,46.542H10.271a1.271,1.271,0,1,1,0-2.542h2.542a1.271,1.271,0,1,1,0,2.542Z" transform="translate(-6.458 -44)" fill="#506480"/>
  </g>
  <path id="Trazado_688447" data-name="Trazado 688447" d="M9,7H67.457v7.625H9Z" transform="translate(1.166 -1.917)" fill="#f0466e"/>
  <path id="Trazado_688448" data-name="Trazado 688448" d="M48.9,18.542H41.271a1.271,1.271,0,0,1,0-2.542H48.9a1.271,1.271,0,0,1,0,2.542Z" transform="translate(9.561 0.52)" fill="#506480"/>
  <path id="Trazado_688449" data-name="Trazado 688449" d="M53.979,22.542H41.271a1.271,1.271,0,0,1,0-2.542H53.979a1.271,1.271,0,1,1,0,2.542Z" transform="translate(9.561 1.604)" fill="#506480"/>
  <path id="Trazado_688450" data-name="Trazado 688450" d="M53.979,26.542H41.271a1.271,1.271,0,0,1,0-2.542H53.979a1.271,1.271,0,1,1,0,2.542Z" transform="translate(9.561 2.687)" fill="#506480"/>
  <path id="Trazado_688451" data-name="Trazado 688451" d="M53.979,30.542H41.271a1.271,1.271,0,0,1,0-2.542H53.979a1.271,1.271,0,1,1,0,2.542Z" transform="translate(9.561 3.77)" fill="#506480"/>
  <path id="Trazado_688452" data-name="Trazado 688452" d="M53.979,34.542H41.271a1.271,1.271,0,0,1,0-2.542H53.979a1.271,1.271,0,1,1,0,2.542Z" transform="translate(9.561 4.853)" fill="#506480"/>
  <path id="Trazado_688453" data-name="Trazado 688453" d="M31.062,38.542H13.271a1.271,1.271,0,0,1,0-2.542H31.062a1.271,1.271,0,1,1,0,2.542Z" transform="translate(1.979 5.937)" fill="#506480"/>
  <rect id="Rectángulo_342243" data-name="Rectángulo 342243" width="30.869" height="19.915" rx="2" transform="translate(14.936 17.944)" fill="#f0466e"/>
  <path id="Trazado_688454" data-name="Trazado 688454" d="M22.5,31.166V21l8.9,5.083Z" transform="translate(4.822 1.875)" fill="#faffff"/>
</svg>
