<svg xmlns="http://www.w3.org/2000/svg" xmlns:xlink="http://www.w3.org/1999/xlink" width="205.72" height="197.386" viewBox="0 0 205.72 197.386">
  <defs>
    <clipPath id="clip-path">
      <path id="Trazado_688657" data-name="Trazado 688657" d="M427.17,528.4c27.864,5.49,42.089,37.047,86.961,65.128s34.993,137.733-35.875,119.85c-67.608-17.062-70.738-15.715-115.016-14.139C307.819,701.214,338.992,511.032,427.17,528.4Z" transform="translate(-335.579 -527.281)" fill="none"/>
    </clipPath>
  </defs>
  <g id="Grupo_891924" data-name="Grupo 891924" transform="translate(-335.579 -519.25)">
    <g id="Grupo_891826" data-name="Grupo 891826" transform="translate(335.579 522.997)">
      <g id="Grupo_891807" data-name="Grupo 891807" transform="translate(0 0)">
        <path id="Trazado_688647" data-name="Trazado 688647" d="M427.17,528.4c27.864,5.49,42.089,37.047,86.961,65.128s34.993,137.733-35.875,119.85c-67.608-17.062-70.738-15.715-115.016-14.139C307.819,701.214,338.992,511.032,427.17,528.4Z" transform="translate(-335.579 -523.531)" fill="#e6ebf0"/>
        <path id="Trazado_688648" data-name="Trazado 688648" d="M513.26,574.4c-13.078-10.406-23.969-28.567-17.775-46.067s18.979,15.074,29.268,25.923C539.641,569.953,540.629,596.177,513.26,574.4Z" transform="translate(-346.098 -523.264)" fill="#e6ebf0"/>
      </g>
      <g id="Grupo_891808" data-name="Grupo 891808" transform="translate(5.44 191.83)">
        <rect id="Rectángulo_342338" data-name="Rectángulo 342338" width="193.361" height="1.346"/>
      </g>
      <g id="Grupo_891825" data-name="Grupo 891825" transform="translate(0 3.751)">
        <g id="Grupo_891824" data-name="Grupo 891824" clip-path="url(#clip-path)">
          <g id="Grupo_891823" data-name="Grupo 891823" transform="translate(-31.757 -14.062)">
            <g id="Grupo_891817" data-name="Grupo 891817" transform="translate(28.467 30.244)">
              <g id="Grupo_891816" data-name="Grupo 891816">
                <g id="Grupo_891815" data-name="Grupo 891815">
                  <g id="Grupo_891809" data-name="Grupo 891809" transform="translate(33.374)">
                    <path id="Trazado_688649" data-name="Trazado 688649" d="M382.585,586.444v-7.237h12v-34.59H397.9v34.59h12.93v7.237h6.926V731.477H367.807V586.444Z" transform="translate(-367.807 -544.616)" fill="#c6d0db"/>
                    <rect id="Rectángulo_342339" data-name="Rectángulo 342339" width="6.925" height="130.463" transform="translate(0 41.828)" fill="#aab6c2"/>
                  </g>
                  <g id="Grupo_891810" data-name="Grupo 891810" transform="translate(58.349 76.376)">
                    <rect id="Rectángulo_342340" data-name="Rectángulo 342340" width="49.947" height="110.484" fill="#c6d0db"/>
                    <rect id="Rectángulo_342341" data-name="Rectángulo 342341" width="6.925" height="110.484" fill="#aab6c2"/>
                    <rect id="Rectángulo_342342" data-name="Rectángulo 342342" width="7.167" height="2.975" transform="translate(35.811 4.707)" fill="#aab6c2"/>
                    <rect id="Rectángulo_342343" data-name="Rectángulo 342343" width="7.167" height="2.975" transform="translate(23.743 4.707)" fill="#aab6c2"/>
                    <rect id="Rectángulo_342344" data-name="Rectángulo 342344" width="7.167" height="2.975" transform="translate(35.811 15.537)" fill="#aab6c2"/>
                    <rect id="Rectángulo_342345" data-name="Rectángulo 342345" width="7.167" height="2.975" transform="translate(23.743 15.537)" fill="#aab6c2"/>
                    <rect id="Rectángulo_342346" data-name="Rectángulo 342346" width="7.167" height="2.975" transform="translate(11.677 15.537)" fill="#aab6c2"/>
                    <rect id="Rectángulo_342347" data-name="Rectángulo 342347" width="7.167" height="2.975" transform="translate(35.811 26.369)" fill="#aab6c2"/>
                    <rect id="Rectángulo_342348" data-name="Rectángulo 342348" width="7.167" height="2.975" transform="translate(11.677 26.369)" fill="#aab6c2"/>
                    <rect id="Rectángulo_342349" data-name="Rectángulo 342349" width="7.167" height="2.975" transform="translate(23.743 31.785)" fill="#aab6c2"/>
                    <rect id="Rectángulo_342350" data-name="Rectángulo 342350" width="7.167" height="2.975" transform="translate(35.811 37.199)" fill="#aab6c2"/>
                    <rect id="Rectángulo_342351" data-name="Rectángulo 342351" width="7.167" height="2.975" transform="translate(23.743 42.615)" fill="#aab6c2"/>
                    <rect id="Rectángulo_342352" data-name="Rectángulo 342352" width="7.167" height="2.975" transform="translate(35.811 48.03)" fill="#aab6c2"/>
                    <rect id="Rectángulo_342353" data-name="Rectángulo 342353" width="7.167" height="2.975" transform="translate(11.677 48.03)" fill="#aab6c2"/>
                    <rect id="Rectángulo_342354" data-name="Rectángulo 342354" width="7.167" height="2.975" transform="translate(35.811 58.039)" fill="#aab6c2"/>
                    <rect id="Rectángulo_342355" data-name="Rectángulo 342355" width="7.167" height="2.975" transform="translate(23.743 58.039)" fill="#aab6c2"/>
                    <rect id="Rectángulo_342356" data-name="Rectángulo 342356" width="7.167" height="2.975" transform="translate(35.811 68.87)" fill="#aab6c2"/>
                    <rect id="Rectángulo_342357" data-name="Rectángulo 342357" width="7.167" height="2.975" transform="translate(23.743 68.87)" fill="#aab6c2"/>
                    <rect id="Rectángulo_342358" data-name="Rectángulo 342358" width="7.167" height="2.975" transform="translate(11.677 68.87)" fill="#aab6c2"/>
                    <rect id="Rectángulo_342359" data-name="Rectángulo 342359" width="7.167" height="2.975" transform="translate(35.811 79.702)" fill="#aab6c2"/>
                    <rect id="Rectángulo_342360" data-name="Rectángulo 342360" width="7.167" height="2.975" transform="translate(11.677 79.702)" fill="#aab6c2"/>
                    <rect id="Rectángulo_342361" data-name="Rectángulo 342361" width="7.167" height="2.975" transform="translate(23.743 85.117)" fill="#aab6c2"/>
                    <rect id="Rectángulo_342362" data-name="Rectángulo 342362" width="7.167" height="2.975" transform="translate(11.677 85.117)" fill="#aab6c2"/>
                    <rect id="Rectángulo_342363" data-name="Rectángulo 342363" width="7.167" height="2.975" transform="translate(35.811 90.532)" fill="#aab6c2"/>
                    <rect id="Rectángulo_342364" data-name="Rectángulo 342364" width="7.167" height="2.975" transform="translate(23.743 95.948)" fill="#aab6c2"/>
                    <rect id="Rectángulo_342365" data-name="Rectángulo 342365" width="7.167" height="2.975" transform="translate(35.811 101.364)" fill="#aab6c2"/>
                    <rect id="Rectángulo_342366" data-name="Rectángulo 342366" width="7.167" height="2.975" transform="translate(11.677 101.364)" fill="#aab6c2"/>
                  </g>
                  <g id="Grupo_891811" data-name="Grupo 891811" transform="translate(177.858 76.375)">
                    <rect id="Rectángulo_342367" data-name="Rectángulo 342367" width="49.948" height="110.485" fill="#c6d0db"/>
                    <rect id="Rectángulo_342368" data-name="Rectángulo 342368" width="6.925" height="110.485" fill="#aab6c2"/>
                  </g>
                  <g id="Grupo_891812" data-name="Grupo 891812" transform="translate(106.906 23.825)">
                    <rect id="Rectángulo_342369" data-name="Rectángulo 342369" width="67.015" height="163.036" fill="#c6d0db"/>
                    <rect id="Rectángulo_342370" data-name="Rectángulo 342370" width="6.925" height="163.036" fill="#aab6c2"/>
                    <rect id="Rectángulo_342371" data-name="Rectángulo 342371" width="10.466" height="4.344" transform="translate(49.49 7.809)" fill="#aab6c2"/>
                    <rect id="Rectángulo_342372" data-name="Rectángulo 342372" width="10.466" height="4.344" transform="translate(31.868 7.809)" fill="#aab6c2"/>
                    <rect id="Rectángulo_342373" data-name="Rectángulo 342373" width="10.466" height="4.344" transform="translate(49.49 23.625)" fill="#aab6c2"/>
                    <rect id="Rectángulo_342374" data-name="Rectángulo 342374" width="10.466" height="4.344" transform="translate(31.868 23.625)" fill="#aab6c2"/>
                    <rect id="Rectángulo_342375" data-name="Rectángulo 342375" width="10.466" height="4.344" transform="translate(14.247 23.625)" fill="#aab6c2"/>
                    <rect id="Rectángulo_342376" data-name="Rectángulo 342376" width="10.466" height="4.344" transform="translate(49.49 39.441)" fill="#aab6c2"/>
                    <rect id="Rectángulo_342377" data-name="Rectángulo 342377" width="10.466" height="4.344" transform="translate(14.247 39.441)" fill="#aab6c2"/>
                    <rect id="Rectángulo_342378" data-name="Rectángulo 342378" width="10.466" height="4.344" transform="translate(31.868 47.349)" fill="#aab6c2"/>
                    <rect id="Rectángulo_342379" data-name="Rectángulo 342379" width="10.466" height="4.345" transform="translate(49.49 55.257)" fill="#aab6c2"/>
                    <rect id="Rectángulo_342380" data-name="Rectángulo 342380" width="10.466" height="4.344" transform="translate(31.868 63.166)" fill="#aab6c2"/>
                    <rect id="Rectángulo_342381" data-name="Rectángulo 342381" width="10.466" height="4.344" transform="translate(49.49 71.074)" fill="#aab6c2"/>
                    <rect id="Rectángulo_342382" data-name="Rectángulo 342382" width="10.466" height="4.344" transform="translate(14.247 71.074)" fill="#aab6c2"/>
                    <rect id="Rectángulo_342383" data-name="Rectángulo 342383" width="10.466" height="4.344" transform="translate(49.49 85.69)" fill="#aab6c2"/>
                    <rect id="Rectángulo_342384" data-name="Rectángulo 342384" width="10.466" height="4.344" transform="translate(31.868 85.69)" fill="#aab6c2"/>
                    <rect id="Rectángulo_342385" data-name="Rectángulo 342385" width="10.466" height="4.344" transform="translate(49.49 101.506)" fill="#aab6c2"/>
                    <rect id="Rectángulo_342386" data-name="Rectángulo 342386" width="10.466" height="4.344" transform="translate(31.868 101.506)" fill="#aab6c2"/>
                    <rect id="Rectángulo_342387" data-name="Rectángulo 342387" width="10.466" height="4.344" transform="translate(14.247 101.506)" fill="#aab6c2"/>
                    <rect id="Rectángulo_342388" data-name="Rectángulo 342388" width="10.466" height="4.345" transform="translate(49.49 117.322)" fill="#aab6c2"/>
                    <rect id="Rectángulo_342389" data-name="Rectángulo 342389" width="10.466" height="4.345" transform="translate(14.247 117.322)" fill="#aab6c2"/>
                    <rect id="Rectángulo_342390" data-name="Rectángulo 342390" width="10.466" height="4.344" transform="translate(31.868 125.231)" fill="#aab6c2"/>
                    <rect id="Rectángulo_342391" data-name="Rectángulo 342391" width="10.466" height="4.344" transform="translate(14.247 125.231)" fill="#aab6c2"/>
                    <rect id="Rectángulo_342392" data-name="Rectángulo 342392" width="10.466" height="4.344" transform="translate(49.49 133.139)" fill="#aab6c2"/>
                    <rect id="Rectángulo_342393" data-name="Rectángulo 342393" width="10.466" height="4.344" transform="translate(31.868 141.047)" fill="#aab6c2"/>
                    <rect id="Rectángulo_342394" data-name="Rectángulo 342394" width="10.466" height="4.344" transform="translate(49.49 148.956)" fill="#aab6c2"/>
                    <rect id="Rectángulo_342395" data-name="Rectángulo 342395" width="10.466" height="4.344" transform="translate(14.247 148.956)" fill="#aab6c2"/>
                  </g>
                  <g id="Grupo_891813" data-name="Grupo 891813" transform="translate(212.269 35.977)">
                    <rect id="Rectángulo_342396" data-name="Rectángulo 342396" width="65.683" height="150.883" fill="#c6d0db"/>
                    <rect id="Rectángulo_342397" data-name="Rectángulo 342397" width="6.788" height="150.883" fill="#aab6c2"/>
                    <rect id="Rectángulo_342398" data-name="Rectángulo 342398" width="10.258" height="4.02" transform="translate(48.506 7.226)" fill="#aab6c2"/>
                    <rect id="Rectángulo_342399" data-name="Rectángulo 342399" width="10.258" height="4.02" transform="translate(31.235 7.226)" fill="#aab6c2"/>
                    <rect id="Rectángulo_342400" data-name="Rectángulo 342400" width="10.258" height="4.02" transform="translate(48.506 21.864)" fill="#aab6c2"/>
                    <rect id="Rectángulo_342401" data-name="Rectángulo 342401" width="10.258" height="4.02" transform="translate(31.235 21.864)" fill="#aab6c2"/>
                    <rect id="Rectángulo_342402" data-name="Rectángulo 342402" width="10.258" height="4.02" transform="translate(13.964 21.864)" fill="#aab6c2"/>
                    <rect id="Rectángulo_342403" data-name="Rectángulo 342403" width="10.258" height="4.02" transform="translate(48.506 36.501)" fill="#aab6c2"/>
                    <rect id="Rectángulo_342404" data-name="Rectángulo 342404" width="10.258" height="4.02" transform="translate(13.964 36.501)" fill="#aab6c2"/>
                    <rect id="Rectángulo_342405" data-name="Rectángulo 342405" width="10.258" height="4.02" transform="translate(31.235 43.82)" fill="#aab6c2"/>
                    <rect id="Rectángulo_342406" data-name="Rectángulo 342406" width="10.258" height="4.02" transform="translate(48.506 51.139)" fill="#aab6c2"/>
                    <rect id="Rectángulo_342407" data-name="Rectángulo 342407" width="10.258" height="4.02" transform="translate(31.235 58.458)" fill="#aab6c2"/>
                    <rect id="Rectángulo_342408" data-name="Rectángulo 342408" width="10.258" height="4.02" transform="translate(48.506 65.776)" fill="#aab6c2"/>
                    <rect id="Rectángulo_342409" data-name="Rectángulo 342409" width="10.258" height="4.02" transform="translate(13.964 65.776)" fill="#aab6c2"/>
                    <rect id="Rectángulo_342410" data-name="Rectángulo 342410" width="10.258" height="4.02" transform="translate(48.506 79.302)" fill="#aab6c2"/>
                    <rect id="Rectángulo_342411" data-name="Rectángulo 342411" width="10.258" height="4.02" transform="translate(31.235 79.302)" fill="#aab6c2"/>
                    <rect id="Rectángulo_342412" data-name="Rectángulo 342412" width="10.258" height="4.02" transform="translate(48.506 93.94)" fill="#aab6c2"/>
                    <rect id="Rectángulo_342413" data-name="Rectángulo 342413" width="10.258" height="4.02" transform="translate(31.235 93.94)" fill="#aab6c2"/>
                    <rect id="Rectángulo_342414" data-name="Rectángulo 342414" width="10.258" height="4.02" transform="translate(13.964 93.94)" fill="#aab6c2"/>
                    <rect id="Rectángulo_342415" data-name="Rectángulo 342415" width="10.258" height="4.02" transform="translate(48.506 108.577)" fill="#aab6c2"/>
                    <rect id="Rectángulo_342416" data-name="Rectángulo 342416" width="10.258" height="4.02" transform="translate(13.964 108.577)" fill="#aab6c2"/>
                    <rect id="Rectángulo_342417" data-name="Rectángulo 342417" width="10.258" height="4.02" transform="translate(31.235 115.896)" fill="#aab6c2"/>
                    <rect id="Rectángulo_342418" data-name="Rectángulo 342418" width="10.258" height="4.02" transform="translate(13.964 115.896)" fill="#aab6c2"/>
                    <rect id="Rectángulo_342419" data-name="Rectángulo 342419" width="10.258" height="4.02" transform="translate(48.506 123.215)" fill="#aab6c2"/>
                    <rect id="Rectángulo_342420" data-name="Rectángulo 342420" width="10.258" height="4.02" transform="translate(31.235 130.534)" fill="#aab6c2"/>
                    <rect id="Rectángulo_342421" data-name="Rectángulo 342421" width="10.258" height="4.02" transform="translate(48.506 137.852)" fill="#aab6c2"/>
                    <rect id="Rectángulo_342422" data-name="Rectángulo 342422" width="10.258" height="4.02" transform="translate(13.964 137.852)" fill="#aab6c2"/>
                  </g>
                  <g id="Grupo_891814" data-name="Grupo 891814" transform="translate(0 83.947)">
                    <rect id="Rectángulo_342423" data-name="Rectángulo 342423" width="42.303" height="102.914" fill="#c6d0db"/>
                    <rect id="Rectángulo_342424" data-name="Rectángulo 342424" width="4.372" height="102.914" fill="#aab6c2"/>
                    <rect id="Rectángulo_342425" data-name="Rectángulo 342425" width="6.606" height="2.742" transform="translate(31.24 4.929)" fill="#aab6c2"/>
                    <rect id="Rectángulo_342426" data-name="Rectángulo 342426" width="6.607" height="2.742" transform="translate(20.117 4.929)" fill="#aab6c2"/>
                    <rect id="Rectángulo_342427" data-name="Rectángulo 342427" width="6.606" height="2.742" transform="translate(31.24 14.913)" fill="#aab6c2"/>
                    <rect id="Rectángulo_342428" data-name="Rectángulo 342428" width="6.607" height="2.742" transform="translate(20.117 14.913)" fill="#aab6c2"/>
                    <rect id="Rectángulo_342429" data-name="Rectángulo 342429" width="6.607" height="2.742" transform="translate(8.993 14.913)" fill="#aab6c2"/>
                    <rect id="Rectángulo_342430" data-name="Rectángulo 342430" width="6.606" height="2.742" transform="translate(31.24 24.897)" fill="#aab6c2"/>
                    <rect id="Rectángulo_342431" data-name="Rectángulo 342431" width="6.607" height="2.742" transform="translate(8.993 24.897)" fill="#aab6c2"/>
                    <rect id="Rectángulo_342432" data-name="Rectángulo 342432" width="6.607" height="2.742" transform="translate(20.117 29.889)" fill="#aab6c2"/>
                    <rect id="Rectángulo_342433" data-name="Rectángulo 342433" width="6.606" height="2.742" transform="translate(31.24 34.88)" fill="#aab6c2"/>
                    <rect id="Rectángulo_342434" data-name="Rectángulo 342434" width="6.607" height="2.742" transform="translate(20.117 39.872)" fill="#aab6c2"/>
                    <rect id="Rectángulo_342435" data-name="Rectángulo 342435" width="6.606" height="2.742" transform="translate(31.24 44.864)" fill="#aab6c2"/>
                    <rect id="Rectángulo_342436" data-name="Rectángulo 342436" width="6.607" height="2.742" transform="translate(8.993 44.864)" fill="#aab6c2"/>
                    <rect id="Rectángulo_342437" data-name="Rectángulo 342437" width="6.606" height="2.742" transform="translate(31.24 54.09)" fill="#aab6c2"/>
                    <rect id="Rectángulo_342438" data-name="Rectángulo 342438" width="6.607" height="2.742" transform="translate(20.117 54.09)" fill="#aab6c2"/>
                    <rect id="Rectángulo_342439" data-name="Rectángulo 342439" width="6.606" height="2.742" transform="translate(31.24 64.074)" fill="#aab6c2"/>
                    <rect id="Rectángulo_342440" data-name="Rectángulo 342440" width="6.607" height="2.742" transform="translate(20.117 64.074)" fill="#aab6c2"/>
                    <rect id="Rectángulo_342441" data-name="Rectángulo 342441" width="6.607" height="2.742" transform="translate(8.993 64.074)" fill="#aab6c2"/>
                    <rect id="Rectángulo_342442" data-name="Rectángulo 342442" width="6.606" height="2.742" transform="translate(31.24 74.058)" fill="#aab6c2"/>
                    <rect id="Rectángulo_342443" data-name="Rectángulo 342443" width="6.607" height="2.742" transform="translate(8.993 74.058)" fill="#aab6c2"/>
                    <rect id="Rectángulo_342444" data-name="Rectángulo 342444" width="6.607" height="2.742" transform="translate(20.117 79.05)" fill="#aab6c2"/>
                    <rect id="Rectángulo_342445" data-name="Rectángulo 342445" width="6.607" height="2.742" transform="translate(8.993 79.05)" fill="#aab6c2"/>
                    <rect id="Rectángulo_342446" data-name="Rectángulo 342446" width="6.606" height="2.742" transform="translate(31.24 84.042)" fill="#aab6c2"/>
                    <rect id="Rectángulo_342447" data-name="Rectángulo 342447" width="6.607" height="2.742" transform="translate(20.117 89.034)" fill="#aab6c2"/>
                    <rect id="Rectángulo_342448" data-name="Rectángulo 342448" width="6.606" height="2.742" transform="translate(31.24 94.026)" fill="#aab6c2"/>
                    <rect id="Rectángulo_342449" data-name="Rectángulo 342449" width="6.607" height="2.742" transform="translate(8.993 94.026)" fill="#aab6c2"/>
                  </g>
                </g>
              </g>
            </g>
            <g id="Grupo_891822" data-name="Grupo 891822">
              <g id="Grupo_891819" data-name="Grupo 891819" transform="translate(1.961 4.045)">
                <g id="Grupo_891818" data-name="Grupo 891818">
                  <rect id="Rectángulo_342450" data-name="Rectángulo 342450" width="179.276" height="204.407" fill="#fff" opacity="0.35"/>
                  <path id="Trazado_688650" data-name="Trazado 688650" d="M368.786,717.431H354.872L429.46,519.056h13.914Z" transform="translate(-307.066 -516.716)" fill="#fff" opacity="0.5"/>
                  <path id="Trazado_688651" data-name="Trazado 688651" d="M342.963,717.431h-6.957l74.588-198.376h6.957Z" transform="translate(-305.811 -516.716)" fill="#fff" opacity="0.5"/>
                  <path id="Trazado_688652" data-name="Trazado 688652" d="M431.951,718.949h-6.957l63.948-177.077v14.266Z" transform="translate(-311.731 -518.234)" fill="#fff" opacity="0.5"/>
                </g>
              </g>
              <g id="Grupo_891821" data-name="Grupo 891821" transform="translate(180.304)">
                <g id="Grupo_891820" data-name="Grupo 891820">
                  <rect id="Rectángulo_342451" data-name="Rectángulo 342451" width="179.276" height="204.406" transform="translate(1.877)" fill="#fff" opacity="0.35"/>
                  <path id="Trazado_688653" data-name="Trazado 688653" d="M527.492,717.431H513.579l74.588-198.376H602.08Z" transform="translate(-495.967 -512.672)" fill="#fff" opacity="0.5"/>
                  <path id="Trazado_688654" data-name="Trazado 688654" d="M501.669,717.431h-6.957L569.3,519.056h6.957Z" transform="translate(-494.712 -512.672)" fill="#fff" opacity="0.5"/>
                  <path id="Trazado_688655" data-name="Trazado 688655" d="M624.023,718.949h-6.957l63.948-177.077v14.266Z" transform="translate(-502.852 -514.19)" fill="#fff" opacity="0.6"/>
                </g>
              </g>
              <path id="Trazado_688656" data-name="Trazado 688656" d="M670.491,553.254v-2.339h-6.44V514.045H301.558v4.678h3.9v1.651H421.076v30.54H301.558v2.339H421.076v60.027H301.558v2.338H421.076v60.027H301.558v2.339H421.076V717.1H305.5v1.354h-3.942v5.41H664.05v-.434h0V677.985h6.44v-2.339h-6.44V615.619h6.44v-2.338h-6.44V553.254ZM484.773,615.619H540.61v60.027H484.773Zm0-2.338V553.254H540.61v60.027Zm0-62.366v-30.54H540.61v30.54Zm0,127.071H540.61V717.1H484.793v1.354h-.02ZM544.533,717.1V677.985h55.837V717.1Zm0-41.452V615.619h55.837v60.027Zm0-62.365V553.254h55.837v60.027Zm0-62.366v-30.54h55.837v30.54Zm59.759-30.54h55.838v30.54H604.292Zm-179.294,0h55.838v30.54H425Zm0,32.88h55.838v60.027H425Zm0,62.365h55.838v60.027H425Zm0,62.366h55.838v40.466h-.021V717.1H425Zm235.132,40.466h-.021V717.1H604.292V677.985h55.838Zm0-42.805H604.292V615.619h55.838Zm0-62.365H604.292V553.254h55.838Z" transform="translate(-301.558 -512.338)" fill="#fff"/>
            </g>
          </g>
        </g>
      </g>
    </g>
    <g id="Grupo_891846" data-name="Grupo 891846" transform="translate(417.456 519.25)">
      <g id="Grupo_891837" data-name="Grupo 891837" transform="translate(10.172 12.26)">
        <g id="Grupo_891827" data-name="Grupo 891827">
          <path id="Trazado_688658" data-name="Trazado 688658" d="M434.189,546.837a14.561,14.561,0,1,1,25.317,9.92c-2.9,3.176-4.995,7.264-5.027,11.563l0,.433-11.772-.087,0-.386c.033-4.316-2.008-8.46-4.867-11.695A14.5,14.5,0,0,1,434.189,546.837Z" transform="translate(-434.189 -532.384)" fill="#8979f3"/>
        </g>
        <g id="Grupo_891828" data-name="Grupo 891828" transform="translate(7.17 9.282)">
          <path id="Trazado_688659" data-name="Trazado 688659" d="M445.484,558.289c-.007-.032-.736-3.209-1.251-6.378a38.85,38.85,0,0,1-.5-4.168,2.493,2.493,0,0,1-.825-.387c-2.251-1.57-.165-4.8-.076-4.932a.367.367,0,0,1,.456-.042c.178.087.264.248.193.359-.555.84-1.665,3.253-.171,4.3a1.5,1.5,0,0,0,.406.208c-.032-1.986.438-2.057.711-2.1a1.187,1.187,0,0,1,1.1.349,1.52,1.52,0,0,1-.669,2.14,1.486,1.486,0,0,1-.428.141,71.915,71.915,0,0,0,1.745,10.571c.033.141-.1.241-.287.225a.553.553,0,0,1-.141-.033A.4.4,0,0,1,445.484,558.289Zm-.735-12.641c-.245.063-.348.617-.34,1.514.585-.341.8-1.207.553-1.492a.062.062,0,0,0-.032-.021A.388.388,0,0,0,444.75,545.648Z" transform="translate(-441.87 -542.327)"/>
        </g>
        <g id="Grupo_891829" data-name="Grupo 891829" transform="translate(17.486 9.377)">
          <path id="Trazado_688660" data-name="Trazado 688660" d="M453.351,558.6a.524.524,0,0,1-.142.03c-.19.013-.316-.089-.283-.23a71.962,71.962,0,0,0,1.908-10.543,1.458,1.458,0,0,1-.426-.147,1.521,1.521,0,0,1-.637-2.151,1.184,1.184,0,0,1,1.1-.331c.273.046.742.123.68,2.11a1.552,1.552,0,0,0,.409-.2c1.51-1.019.437-3.449-.1-4.3-.071-.111.017-.272.2-.356a.368.368,0,0,1,.456.049c.087.137,2.122,3.4-.152,4.931a2.482,2.482,0,0,1-.831.374,39.015,39.015,0,0,1-.562,4.16c-.563,3.16-1.341,6.326-1.349,6.357A.4.4,0,0,1,453.351,558.6Zm1.014-12.876a.081.081,0,0,0-.031.02c-.25.28-.052,1.15.529,1.5.021-.9-.075-1.453-.316-1.52A.369.369,0,0,0,454.365,545.724Z" transform="translate(-452.921 -542.429)"/>
        </g>
        <g id="Grupo_891830" data-name="Grupo 891830" transform="translate(10.708 23.419)">
          <path id="Trazado_688661" data-name="Trazado 688661" d="M445.746,558.928l.355-.287a5.266,5.266,0,0,1,6.676.049l.35.293-.087,11.766-7.38-.053Zm6.69.374-.1-.084a4.572,4.572,0,0,0-5.8-.043l-.1.082-.078,10.754,6,.044Z" transform="translate(-445.66 -557.471)"/>
        </g>
        <g id="Grupo_891831" data-name="Grupo 891831" transform="translate(7.401 35.381)">
          <path id="Trazado_688662" data-name="Trazado 688662" d="M443.009,572.085l12.2.09a.9.9,0,0,0,.905-.892h0a.9.9,0,0,0-.892-.905l-12.2-.091a.9.9,0,0,0-.905.893h0A.9.9,0,0,0,443.009,572.085Z" transform="translate(-442.117 -570.286)"/>
        </g>
        <g id="Grupo_891832" data-name="Grupo 891832" transform="translate(8.136 37.189)">
          <path id="Trazado_688663" data-name="Trazado 688663" d="M443.7,574.021l10.9.081a.857.857,0,0,0,.808-.894h0a.854.854,0,0,0-.8-.9l-10.9-.08a.855.855,0,0,0-.809.893h0A.854.854,0,0,0,443.7,574.021Z" transform="translate(-442.904 -572.223)" fill="#aab6c2"/>
        </g>
        <g id="Grupo_891833" data-name="Grupo 891833" transform="translate(8.122 38.991)">
          <path id="Trazado_688664" data-name="Trazado 688664" d="M443.685,575.953l10.9.079a.855.855,0,0,0,.81-.893h0a.855.855,0,0,0-.8-.9l-10.9-.08a.855.855,0,0,0-.81.893h0A.856.856,0,0,0,443.685,575.953Z" transform="translate(-442.889 -574.154)"/>
        </g>
        <g id="Grupo_891834" data-name="Grupo 891834" transform="translate(8.107 40.795)">
          <path id="Trazado_688665" data-name="Trazado 688665" d="M443.67,577.884l10.9.08a.857.857,0,0,0,.81-.893h0a.857.857,0,0,0-.8-.906l-10.9-.078a.855.855,0,0,0-.811.893h0A.858.858,0,0,0,443.67,577.884Z" transform="translate(-442.873 -576.086)" fill="#aab6c2"/>
        </g>
        <g id="Grupo_891835" data-name="Grupo 891835" transform="translate(8.095 42.596)">
          <path id="Trazado_688666" data-name="Trazado 688666" d="M443.655,579.815l10.9.079a.855.855,0,0,0,.81-.892h0a.854.854,0,0,0-.8-.9l-10.9-.08a.854.854,0,0,0-.809.893h0A.854.854,0,0,0,443.655,579.815Z" transform="translate(-442.86 -578.016)"/>
        </g>
        <g id="Grupo_891836" data-name="Grupo 891836" transform="translate(9.658 44.405)">
          <path id="Trazado_688667" data-name="Trazado 688667" d="M452.082,581.81l-5.761-.044a1.8,1.8,0,0,1-1.786-1.813h0l9.36.071h0A1.8,1.8,0,0,1,452.082,581.81Z" transform="translate(-444.535 -579.953)" fill="#aab6c2"/>
        </g>
      </g>
      <g id="Grupo_891845" data-name="Grupo 891845">
        <g id="Grupo_891838" data-name="Grupo 891838" transform="translate(23.856)">
          <path id="Trazado_688668" data-name="Trazado 688668" d="M449.639,527.121a1.037,1.037,0,0,1-.791-1.016l.045-5.826a1.037,1.037,0,1,1,2.074.016l-.045,5.826a1.038,1.038,0,0,1-1.045,1.03A1.058,1.058,0,0,1,449.639,527.121Z" transform="translate(-448.848 -519.25)" fill="#8979f3"/>
        </g>
        <g id="Grupo_891839" data-name="Grupo 891839" transform="translate(10.866 2.645)">
          <path id="Trazado_688669" data-name="Trazado 688669" d="M438.851,529.176a1.043,1.043,0,0,1-.637-.46l-3.127-5.048a1.037,1.037,0,0,1,1.763-1.093l3.128,5.047a1.038,1.038,0,0,1-1.128,1.554Z" transform="translate(-434.931 -522.084)" fill="#8979f3"/>
        </g>
        <g id="Grupo_891840" data-name="Grupo 891840" transform="translate(1.885 12.898)">
          <path id="Trazado_688670" data-name="Trazado 688670" d="M431.537,537.548a.992.992,0,0,1-.179-.061l-5.434-2.434a1.037,1.037,0,1,1,.848-1.892l5.433,2.432a1.037,1.037,0,0,1-.667,1.955Z" transform="translate(-425.311 -533.068)" fill="#8979f3"/>
        </g>
        <g id="Grupo_891841" data-name="Grupo 891841" transform="translate(0 27.575)">
          <path id="Trazado_688671" data-name="Trazado 688671" d="M424.084,551.011a1.037,1.037,0,0,1,.208-2.044l4.929-.176a1.038,1.038,0,0,1,.074,2.074l-4.929.175A1.043,1.043,0,0,1,424.084,551.011Z" transform="translate(-423.291 -548.79)" fill="#8979f3"/>
        </g>
        <g id="Grupo_891842" data-name="Grupo 891842" transform="translate(34.419 2.851)">
          <path id="Trazado_688672" data-name="Trazado 688672" d="M460.955,529.348a1.069,1.069,0,0,1-.315-.135,1.036,1.036,0,0,1-.313-1.432l3.2-5a1.037,1.037,0,1,1,1.747,1.119l-3.2,5A1.037,1.037,0,0,1,460.955,529.348Z" transform="translate(-460.163 -522.304)" fill="#8979f3"/>
        </g>
        <g id="Grupo_891843" data-name="Grupo 891843" transform="translate(40.975 13.243)">
          <path id="Trazado_688673" data-name="Trazado 688673" d="M467.98,537.832a1.038,1.038,0,0,1-.165-1.962l5.469-2.349a1.037,1.037,0,1,1,.819,1.906l-5.469,2.349A1.037,1.037,0,0,1,467.98,537.832Z" transform="translate(-467.187 -533.437)" fill="#8979f3"/>
        </g>
        <g id="Grupo_891844" data-name="Grupo 891844" transform="translate(43.176 27.869)">
          <path id="Trazado_688674" data-name="Trazado 688674" d="M470.336,551.151a1.038,1.038,0,0,1,.3-2.044l4.926.251a1.038,1.038,0,0,1-.106,2.072l-4.925-.251A1,1,0,0,1,470.336,551.151Z" transform="translate(-469.545 -549.106)" fill="#8979f3"/>
        </g>
      </g>
    </g>
    <g id="Grupo_891853" data-name="Grupo 891853" transform="translate(443.505 641.001)">
      <g id="Grupo_891847" data-name="Grupo 891847" transform="translate(33.433 57.133)">
        <path id="Trazado_688675" data-name="Trazado 688675" d="M490.572,722.264h-2.14a1.42,1.42,0,0,1-1.42-1.42v-9.961h4.979v9.961A1.42,1.42,0,0,1,490.572,722.264Z" transform="translate(-487.013 -710.883)" fill="#aab6c2"/>
      </g>
      <g id="Grupo_891848" data-name="Grupo 891848" transform="translate(6.605 44.413)">
        <path id="Trazado_688676" data-name="Trazado 688676" d="M516.979,724.176a4.83,4.83,0,0,0-3.078-6.095l-22.555-7.418V697.256h-7.514v13.512l-22.239,7.314a4.828,4.828,0,0,0-3.079,6.095l29.231-9.614h0Z" transform="translate(-458.273 -697.256)" fill="#aab6c2"/>
      </g>
      <g id="Grupo_891849" data-name="Grupo 891849" transform="translate(31.835 39.993)">
        <path id="Trazado_688677" data-name="Trazado 688677" d="M493.789,711.173H485.3V694.948a2.426,2.426,0,0,1,2.424-2.426h3.64a2.425,2.425,0,0,1,2.424,2.424Z" transform="translate(-485.301 -692.522)" fill="#aab6c2"/>
      </g>
      <g id="Grupo_891850" data-name="Grupo 891850" transform="translate(4.498 64.834)">
        <path id="Trazado_688678" data-name="Trazado 688678" d="M465.522,723.886a4.753,4.753,0,1,0-4.754,4.752A4.754,4.754,0,0,0,465.522,723.886Z" transform="translate(-456.016 -719.133)"/>
        <path id="Trazado_688679" data-name="Trazado 688679" d="M464.561,723.96a3.719,3.719,0,1,0-3.72,3.719A3.72,3.72,0,0,0,464.561,723.96Z" transform="translate(-456.09 -719.207)" fill="#aab6c2"/>
      </g>
      <g id="Grupo_891851" data-name="Grupo 891851" transform="translate(31.17 64.834)">
        <path id="Trazado_688680" data-name="Trazado 688680" d="M494.094,723.886a4.753,4.753,0,1,0-4.753,4.752A4.754,4.754,0,0,0,494.094,723.886Z" transform="translate(-484.588 -719.133)"/>
        <path id="Trazado_688681" data-name="Trazado 688681" d="M493.134,723.96a3.719,3.719,0,1,0-3.72,3.719A3.721,3.721,0,0,0,493.134,723.96Z" transform="translate(-484.662 -719.207)" fill="#aab6c2"/>
      </g>
      <g id="Grupo_891852" data-name="Grupo 891852" transform="translate(58.637 64.834)">
        <path id="Trazado_688682" data-name="Trazado 688682" d="M523.518,723.886a4.752,4.752,0,1,0-4.752,4.752A4.753,4.753,0,0,0,523.518,723.886Z" transform="translate(-514.013 -719.133)"/>
        <path id="Trazado_688683" data-name="Trazado 688683" d="M522.559,723.96a3.719,3.719,0,1,0-3.72,3.719A3.72,3.72,0,0,0,522.559,723.96Z" transform="translate(-514.087 -719.207)" fill="#aab6c2"/>
      </g>
      <path id="Trazado_688684" data-name="Trazado 688684" d="M517.759,683.282a3.782,3.782,0,0,1-3.783,3.783H482.46s-.866-.269-2.264-.708c-5.69-1.811-20.219-6.544-21.189-8.063-1.2-1.891-4.077-28.6-4.077-28.6h31.516a3.788,3.788,0,0,1,4.074,3.475l.732,16.709a10.511,10.511,0,0,0,10.424,9.624h12.3A3.783,3.783,0,0,1,517.759,683.282Z" transform="translate(-451.445 -649.678)" fill="#8979f3"/>
      <path id="Trazado_688685" data-name="Trazado 688685" d="M495.715,694.473H483.292c-1.821,0-3.3-2.619-3.3-5.848h19.022C499.015,691.854,497.539,694.473,495.715,694.473Z" transform="translate(-453.113 -652.269)"/>
      <path id="Trazado_688686" data-name="Trazado 688686" d="M519.56,685.407a3.782,3.782,0,0,1-3.783,3.783H482v-7.567h33.78A3.783,3.783,0,0,1,519.56,685.407Z" transform="translate(-453.246 -651.803)" fill="#8979f3"/>
      <path id="Trazado_688687" data-name="Trazado 688687" d="M482.21,687.065h-12.3a18.112,18.112,0,0,1-17.964-16.6l-.734-16.706a3.783,3.783,0,0,1,7.542-.6l.735,16.708a10.507,10.507,0,0,0,10.42,9.628h12.3a3.783,3.783,0,1,1,0,7.567Z" transform="translate(-451.197 -649.678)"/>
    </g>
    <g id="Grupo_891870" data-name="Grupo 891870" transform="translate(439.818 582.327)">
      <g id="Grupo_891855" data-name="Grupo 891855" transform="translate(69.888 119.119)">
        <path id="Trazado_688688" data-name="Trazado 688688" d="M526.837,714.692c-.541-.349-4.538,1.434-4.5,1.7.128.8.908,3.779,1.432,4.032.507.245,4.626-1.15,4.459-1.915C528.088,717.845,527.359,715.03,526.837,714.692Z" transform="translate(-522.131 -714.446)" fill="#fff"/>
        <g id="Grupo_891854" data-name="Grupo 891854">
          <path id="Trazado_688689" data-name="Trazado 688689" d="M523.926,720.637a.617.617,0,0,1-.26-.042c-.723-.349-1.5-3.872-1.548-4.188-.027-.174.132-.294.3-.4.69-.449,3.893-1.911,4.519-1.5h0c.689.443,1.479,3.909,1.487,3.944.073.334-.272.606-.385.7A10.1,10.1,0,0,1,523.926,720.637Zm-1.38-4.215c.192,1.095.951,3.626,1.3,3.8a9.315,9.315,0,0,0,3.992-1.459c.174-.152.172-.222.172-.223-.245-1.12-.924-3.432-1.3-3.681C526.3,714.654,523.034,715.993,522.546,716.422Z" transform="translate(-522.116 -714.431)"/>
        </g>
      </g>
      <path id="Trazado_688690" data-name="Trazado 688690" d="M523.226,719.808s-.993,3.37,1.09,5.056c0,0,10.1-2.865,12.943-4.339,0,0-1.15-3.69-3.828-3.14a39.986,39.986,0,0,0-5.222,1.5S525.775,721.209,523.226,719.808Z" transform="translate(-452.286 -595.505)"/>
      <path id="Trazado_688691" data-name="Trazado 688691" d="M487.466,674.142c2.625,5.191,12.009,7.3,18.976,9.138,4.174,1.106,7.48,2.112,7.924,3.631,1.736,5.942,2.96,21.562,4.609,27.03.592.681,1.825.69,3.108.454a20.6,20.6,0,0,0,4.292-1.411c-.374-12.177.632-23.535-1.322-31.983-3.276-14.191-24.759-20.674-24.759-20.674C496.525,656.2,482.867,665.044,487.466,674.142Z" transform="translate(-449.861 -591.643)"/>
      <g id="Grupo_891857" data-name="Grupo 891857" transform="translate(46.663 122.611)">
        <path id="Trazado_688692" data-name="Trazado 688692" d="M503.207,719.48c-.263-.589-4.584-1.276-4.693-1.034-.33.742-1.3,3.663-1,4.161.291.483,4.5,1.562,4.781.831C502.534,722.8,503.462,720.048,503.207,719.48Z" transform="translate(-497.251 -718.187)" fill="#fff"/>
        <g id="Grupo_891856" data-name="Grupo 891856">
          <path id="Trazado_688693" data-name="Trazado 688693" d="M501.524,723.877c-1.314,0-3.922-.709-4.205-1.178-.415-.689.86-4.062.989-4.354.072-.161.27-.174.466-.174.823,0,4.305.527,4.609,1.207h0c.333.746-.9,4.084-.908,4.117-.121.318-.557.357-.7.37C501.7,723.874,501.614,723.877,501.524,723.877Zm-2.866-5.286c-.437,1.023-1.183,3.558-.981,3.893a9.332,9.332,0,0,0,4.141.956c.229-.032.265-.091.265-.092.408-1.073,1.1-3.381.919-3.8C502.769,719.162,499.31,718.491,498.659,718.591Z" transform="translate(-497.236 -718.172)"/>
        </g>
      </g>
      <path id="Trazado_688694" data-name="Trazado 688694" d="M494.786,671.684c2.22,2.309,4.864,4.183,7.145,6.434a66.281,66.281,0,0,1,4.953,5.456c4.174,1.106,7.48,2.112,7.924,3.631,1.736,5.942,2.96,21.562,4.609,27.03.592.681,1.825.69,3.108.454a19.123,19.123,0,0,0,.257-2.862,35.164,35.164,0,0,0-.731-8.447,77.456,77.456,0,0,0-5.141-16.539,38.606,38.606,0,0,1-3.227-8.516,13.941,13.941,0,0,0-2.191-5.763c-3.217-4.273-8.921-5.466-13.154-8.387a.651.651,0,0,0-.128-.059.408.408,0,0,0-.533-.375C493.552,664.894,491.549,668.3,494.786,671.684Z" transform="translate(-450.303 -591.939)"/>
      <path id="Trazado_688695" data-name="Trazado 688695" d="M497.307,721.852s-2.672,2.28-1.846,4.831c0,0,10.023,3.112,13.211,3.432,0,0,1.051-3.721-1.493-4.721a40.017,40.017,0,0,0-5.2-1.593S498.677,724.417,497.307,721.852Z" transform="translate(-450.444 -595.806)"/>
      <path id="Trazado_688696" data-name="Trazado 688696" d="M473.416,674.7c4.194,8.309,20.575,5.941,21.759,9.986,1.736,5.942,2.862,27.444.622,30.9a4.694,4.694,0,0,0,.691.622,16.147,16.147,0,0,0,5.1,2.053c3.779-8.28,7.549-24.434,8.121-33.8.888-14.527-23.467-23.576-23.467-23.576-3.079-3.364-12.749,1.915-13.688,8.911A8.243,8.243,0,0,0,473.416,674.7Z" transform="translate(-448.926 -591.681)"/>
      <path id="Trazado_688697" data-name="Trazado 688697" d="M473.416,675.376c4.194,8.309,20.575,5.941,21.759,9.986,1.736,5.942,2.862,27.444.622,30.9a4.694,4.694,0,0,0,.691.622,25.753,25.753,0,0,0,3.829-13.757c-.01-2.714-.267-5.417-.455-8.121a66.97,66.97,0,0,0-.73-8.309c-.907-4.589-4.292-5.823-8.486-6.642-5.912-1.155-13.1-2.793-15.326-9.147a.5.5,0,0,0-.207-.908,4.692,4.692,0,0,0-2.556.473A8.243,8.243,0,0,0,473.416,675.376Z" transform="translate(-448.926 -592.355)"/>
      <g id="Grupo_891859" data-name="Grupo 891859" transform="translate(22.493 33.939)">
        <path id="Trazado_688698" data-name="Trazado 688698" d="M503.335,659.286c-.147.463-6.595,4.157-10.193,5.507-6.24,2.344-16.791,4.169-19.5,3.656-1.105-.206-1.816-.5-1.984-.859-.523-1.125,1.279-12.074,1.061-19.357-.039-1.411-.069-2.842-.069-4.244-.04-7.322.474-14.18,2.132-15.454.374-.3.809-.6,1.293-.927a24.1,24.1,0,0,1,2.505-1.5,23.581,23.581,0,0,1,5.161-1.994,21.424,21.424,0,0,1,10.3-.158.01.01,0,0,0,.011.01,20.789,20.789,0,0,1,2.841.849c.227.079.454.168.691.256,3.236,1.3,2.772,8.349,2.25,14.261a56.953,56.953,0,0,0-.385,6.8,13.4,13.4,0,0,0,.2,1.559C500.385,652.042,502.793,656.118,503.335,659.286Z" transform="translate(-471.358 -623.196)" fill="#fff"/>
        <g id="Grupo_891858" data-name="Grupo 891858">
          <path id="Trazado_688699" data-name="Trazado 688699" d="M474.827,668.728a6.983,6.983,0,0,1-1.234-.088c-1.217-.228-1.935-.556-2.133-.975-.251-.539-.07-2.585.3-6.457a113.682,113.682,0,0,0,.741-12.983c-.048-1.685-.07-3.035-.07-4.25-.034-6.323.322-14.167,2.214-15.619.336-.266.738-.555,1.3-.935a24.432,24.432,0,0,1,2.526-1.512,23.745,23.745,0,0,1,5.207-2.011,21.628,21.628,0,0,1,10.4-.16l.162.049a20.681,20.681,0,0,1,2.716.818c.158.055.32.117.486.178l.2.078c3.266,1.316,2.968,7.872,2.385,14.474l-.077.882a46.843,46.843,0,0,0-.307,5.886,13.1,13.1,0,0,0,.194,1.532,34.636,34.636,0,0,0,2.089,6.691,27.288,27.288,0,0,1,1.592,4.909l.009.049-.016.05c-.208.655-7.152,4.452-10.319,5.64C487.622,667.07,478.687,668.728,474.827,668.728ZM489.206,623.6a21.434,21.434,0,0,0-5.421.7,23.266,23.266,0,0,0-5.117,1.975,23.737,23.737,0,0,0-2.484,1.488c-.557.375-.952.658-1.282.919-1.353,1.038-2.1,6.61-2.053,15.288,0,1.212.022,2.559.069,4.239a113.76,113.76,0,0,1-.743,13.035c-.3,3.1-.551,5.779-.337,6.239.048.1.324.458,1.831.741,2.658.5,13.129-1.3,19.384-3.646a54.8,54.8,0,0,0,10.045-5.358,27.712,27.712,0,0,0-1.554-4.746,34.967,34.967,0,0,1-2.112-6.769,13.508,13.508,0,0,1-.2-1.578,46.948,46.948,0,0,1,.308-5.951l.077-.882c.422-4.764,1.128-12.739-2.119-14.048l-.2-.076c-.162-.061-.322-.12-.481-.176a20.714,20.714,0,0,0-2.818-.842l-.165-.045A21.341,21.341,0,0,0,489.206,623.6Z" transform="translate(-471.343 -623.181)"/>
        </g>
      </g>
      <path id="Trazado_688700" data-name="Trazado 688700" d="M504.715,659.45c-.148.464-8.635,4.44-13.445,6.414-6.166,2.531-14.919,3.1-17.623,2.585-1.105-.206-1.816-.5-1.984-.859-.523-1.125,1.279-12.074,1.061-19.357-.039-1.411-.069-2.842-.069-4.244-.04-7.322.474-14.18,2.132-15.454.374-.3.809-.6,1.293-.927a24.1,24.1,0,0,1,2.505-1.5,23.581,23.581,0,0,1,5.161-1.994,21.424,21.424,0,0,1,10.3-.158.01.01,0,0,0,.011.01,20.789,20.789,0,0,1,2.841.849c.227.079.454.168.691.256,3.236,1.3,3.373,8.535,2.85,14.446C500.206,642.26,505.427,659.123,504.715,659.45Z" transform="translate(-448.865 -589.256)" fill="#aab6c2"/>
      <path id="Trazado_688701" data-name="Trazado 688701" d="M472.9,637.4s-.2,3.891-.173,6.845l5.619-6.845-4.512-3.734Z" transform="translate(-448.942 -589.939)"/>
      <g id="Grupo_891861" data-name="Grupo 891861" transform="translate(38.114 29.099)">
        <path id="Trazado_688702" data-name="Trazado 688702" d="M492.322,620v3.166s.748,1.372,0,1.522c-1.645.329-4.019-1.52-4.019-1.52v-4.833Z" transform="translate(-488.093 -618.018)" fill="#fff"/>
        <g id="Grupo_891860" data-name="Grupo 891860">
          <path id="Trazado_688703" data-name="Trazado 688703" d="M491.892,624.91a7.66,7.66,0,0,1-3.733-1.6l-.081-.063V618l4.438,1.838v3.254c.125.24.48.994.265,1.453a.578.578,0,0,1-.433.326A2.234,2.234,0,0,1,491.892,624.91Zm-3.4-1.873c.421.309,2.4,1.68,3.768,1.419a.166.166,0,0,0,.135-.093c.106-.226-.1-.792-.278-1.123l-.026-.1v-3.025l-3.6-1.492Z" transform="translate(-488.078 -617.996)"/>
        </g>
      </g>
      <g id="Grupo_891863" data-name="Grupo 891863" transform="translate(35.575 23.679)">
        <path id="Trazado_688704" data-name="Trazado 688704" d="M487.084,612.416a22.054,22.054,0,0,0-1.5,5.9c-.142,2,3.642,4.395,6.43,1.426s1.709-7.189,1.709-7.189Z" transform="translate(-485.372 -612.204)" fill="#fff"/>
        <g id="Grupo_891862" data-name="Grupo 891862">
          <path id="Trazado_688705" data-name="Trazado 688705" d="M489.015,621.331a3.989,3.989,0,0,1-1.61-.345,3.039,3.039,0,0,1-2.043-2.7,21.993,21.993,0,0,1,1.514-5.965l.055-.131,6.942.142.039.154c.046.176,1.073,4.365-1.759,7.384A4.306,4.306,0,0,1,489.015,621.331Zm-1.806-8.717a21.648,21.648,0,0,0-1.429,5.7,2.663,2.663,0,0,0,1.793,2.288,3.68,3.68,0,0,0,4.274-1.019c2.382-2.538,1.847-6.065,1.692-6.84Z" transform="translate(-485.357 -612.189)"/>
        </g>
      </g>
      <path id="Trazado_688706" data-name="Trazado 688706" d="M484.522,611.4c1.453,2.017,4.9,2.005,7.483,1.887-.034.265-.031.546-.05.761-.089.96-.544,2.153-.144,3.091a1.21,1.21,0,0,0,1.593.686,1.03,1.03,0,0,0,.642-.815c1.036-1.683,1-4.7-.164-6.117a4.16,4.16,0,0,0-2.871-1.267,6.722,6.722,0,0,1-2.433-.66,4.708,4.708,0,0,0-1.395-.647C485.117,607.909,483.03,609.324,484.522,611.4Z" transform="translate(-449.693 -588.248)"/>
      <g id="Grupo_891866" data-name="Grupo 891866">
        <g id="Grupo_891865" data-name="Grupo 891865">
          <path id="Trazado_688707" data-name="Trazado 688707" d="M473.072,621.064c-.584-.588-2.027-1.823-3.641-3.254-3.758-3.33-8.683-7.856-10.311-11.882-1.077-2.663-4.072-7.091-4.943-8.969-.448-.964-.879-1.786-1.271-2.488a6.38,6.38,0,0,0,.441-.626v0a7.7,7.7,0,0,0,1.7-2.633c.048-.409-.121-.928-.6-.583a2.263,2.263,0,0,0-.629.92l-.008.015c-.025-1.609-.508-3.391-1.777-4.276-.821-.572-1.2-.048-.729.734.912,1.509,1.076,2.826-.146.495-.247-.47-.988-1.319-1.339-1.134-.746.393.352,1.953.738,2.7-.007.732-1.2-.871-1.579-1-1.722-.6.424,2.442.287,2.673-.385.645-1.509-1.636-1.778-.458-.2.886,1.678,2.518,1.931,3.243.134.389.071.757.194,1.047a150.714,150.714,0,0,0,2.268,15.847c1.322,5.872,1.349,7.747,6.965,13.38a36.453,36.453,0,0,0,2.59,2.615c.235.216.5.445.768.67,2.072,1.773,4.838,3.642,7.4,3.828S474.955,622.941,473.072,621.064Z" transform="translate(-447.262 -586.838)" fill="#fff"/>
          <g id="Grupo_891864" data-name="Grupo 891864">
            <path id="Trazado_688708" data-name="Trazado 688708" d="M469.669,632.124c-.031,0-.061,0-.091,0-2.7-.2-5.582-2.216-7.525-3.878-.272-.226-.536-.457-.774-.676-1.268-1.152-2.192-2.173-2.5-2.509-.052-.058-.087-.1-.1-.113-5.206-5.223-5.649-7.247-6.722-12.137-.093-.425-.191-.871-.3-1.344a150.335,150.335,0,0,1-2.271-15.843,1.94,1.94,0,0,1-.1-.513,2.114,2.114,0,0,0-.091-.515,5.135,5.135,0,0,0-.745-1.053c-.659-.814-1.34-1.653-1.193-2.3.023-.1.094-.411.358-.49.316-.092.611.2.933.5a2.55,2.55,0,0,0,.465.385c-.053-.134-.177-.379-.281-.583-.514-1.011-.853-1.755-.54-2.115.238-.273.685-.119.831-.067a2.6,2.6,0,0,1,.723.6c.126.124.3.3.451.426-.032-.054-.064-.112-.1-.171-.4-.7-.9-1.568-.735-2.131a.655.655,0,0,1,.332-.406.506.506,0,0,1,.385-.022,2.3,2.3,0,0,1,.915.762.816.816,0,0,1,.037-.961c.115-.108.452-.308,1.095.139a5.1,5.1,0,0,1,1.821,3.708,1.566,1.566,0,0,1,.35-.364.552.552,0,0,1,.631-.091.894.894,0,0,1,.3.869,6.742,6.742,0,0,1-1.745,2.743c-.1.17-.223.341-.352.51.436.785.833,1.565,1.211,2.379.354.762,1.084,1.987,1.858,3.286a49.074,49.074,0,0,1,3.09,5.694c1.712,4.232,7.27,9.157,10.255,11.8.479.424.942.831,1.372,1.209,1.041.914,1.863,1.636,2.28,2.055,1.363,1.361.464,5.658-.71,8.236C471.983,630.265,470.943,632.124,469.669,632.124Zm-21.925-40.977a.517.517,0,0,0-.067.18c-.1.454.6,1.317,1.109,1.947a5.1,5.1,0,0,1,.816,1.181,2.489,2.489,0,0,1,.112.614,1.442,1.442,0,0,0,.077.42l.016.064a150.433,150.433,0,0,0,2.265,15.82c.106.473.2.919.3,1.346,1.054,4.806,1.491,6.8,6.611,11.933.019.019.057.061.116.125.3.333,1.214,1.343,2.466,2.482.234.214.493.442.762.665,1.9,1.622,4.7,3.592,7.285,3.78.781.054,1.7-.971,2.507-2.739,1.265-2.78,1.874-6.692.8-7.767h0c-.406-.409-1.224-1.127-2.259-2.036-.43-.379-.894-.785-1.373-1.21-4.476-3.966-8.83-8.159-10.366-11.961a49.232,49.232,0,0,0-3.061-5.636c-.813-1.364-1.516-2.542-1.878-3.322-.393-.847-.807-1.657-1.264-2.475l-.068-.122.087-.11a5.912,5.912,0,0,0,.426-.6l.086-.1c1.239-1.444,1.546-2.127,1.583-2.447a.564.564,0,0,0-.093-.457c-.02-.014-.083,0-.174.068a2.007,2.007,0,0,0-.56.836l-.388.97-.021-1.035c-.015-.892-.207-3.075-1.688-4.109-.319-.221-.514-.227-.568-.177s-.065.3.137.632c.009.015.94,1.577.72,1.959l-.063.107-.15.013c-.125,0-.3-.006-1.017-1.379a2.594,2.594,0,0,0-.99-1.039.131.131,0,0,0-.065-.008.235.235,0,0,0-.125.153c-.115.393.372,1.243.7,1.806.1.172.189.33.257.461l.023.1a.363.363,0,0,1-.2.375c-.271.105-.573-.174-1.088-.683a3.508,3.508,0,0,0-.566-.5c-.307-.106-.377-.053-.378-.053-.152.174.412,1.285.6,1.649.322.635.411.825.316.986a.411.411,0,0,1-.306.216c-.282.043-.561-.228-.857-.51-.148-.142-.423-.405-.522-.405Zm2.585-1.033v0h0Z" transform="translate(-447.247 -586.823)"/>
          </g>
        </g>
        <path id="Trazado_688709" data-name="Trazado 688709" d="M469.868,618.815c1.091.5,8,3.787,10.521,8.547,1.148,2.165,2.34,7.935-.282,9.575-4.2,2.629-12.58-1.9-18.511-5.452C462.029,626.465,465.217,621.96,469.868,618.815Z" transform="translate(-448.202 -588.951)" fill="#aab6c2"/>
      </g>
      <g id="Grupo_891869" data-name="Grupo 891869" transform="translate(42.876 1.853)">
        <g id="Grupo_891868" data-name="Grupo 891868" transform="translate(6.592)">
          <path id="Trazado_688710" data-name="Trazado 688710" d="M526.365,593.246c-.225-1.145-1.376,1.025-1.728.391-.126-.227,2.031-3.1.352-2.572-.371.117-1.566,1.629-1.551.922.394-.711,1.5-2.184.79-2.584-.334-.189-1.073.609-1.325,1.055-1.246,2.215-1.049.948-.126-.481.478-.741.125-1.258-.682-.729a5.088,5.088,0,0,0-1.837,4.075l-.007-.014a2.183,2.183,0,0,0-.581-.906c-.451-.346-.629.15-.595.545a7.415,7.415,0,0,0,1.563,2.589v0a6.225,6.225,0,0,0,.407.617c-.4.666-.837,1.446-1.3,2.364-.894,1.787-3.909,5.972-5.025,8.511-1.685,3.838-6.515,8.32-10.142,11.534-1.558,1.382-2.952,2.574-3.515,3.141-1.817,1.812.882,10.658,3.345,10.486s5.144-1.984,7.146-3.695c.261-.218.513-.439.741-.648a34.716,34.716,0,0,0,2.5-2.524c5.421-5.437,5.31-7.147,6.753-12.775a146,146,0,0,0,2.642-15.223c.127-.278.076-.634.217-1.005C524.673,595.626,526.534,594.105,526.365,593.246Z" transform="translate(-500.256 -588.822)" fill="#fff"/>
          <g id="Grupo_891867" data-name="Grupo 891867">
            <path id="Trazado_688711" data-name="Trazado 688711" d="M504.323,632.385c-1.235,0-2.239-1.8-2.735-2.888-1.134-2.491-2-6.643-.683-7.958.4-.4,1.188-1.095,2.186-1.971.419-.368.871-.765,1.338-1.178,4.092-3.627,8.492-7.825,10.088-11.46a47.593,47.593,0,0,1,3.145-5.407c.783-1.23,1.522-2.392,1.885-3.115.388-.775.793-1.515,1.234-2.258-.12-.169-.228-.335-.322-.5a6.524,6.524,0,0,1-1.606-2.7.865.865,0,0,1,.315-.835.537.537,0,0,1,.614.106,1.463,1.463,0,0,1,.317.346,4.911,4.911,0,0,1,1.865-3.51c.637-.417.959-.212,1.068-.1a.768.768,0,0,1,.035.887,2.157,2.157,0,0,1,.871-.668.481.481,0,0,1,.376.033.645.645,0,0,1,.314.405c.142.553-.364,1.379-.772,2.042l-.076.124c.138-.114.3-.262.414-.37a2.534,2.534,0,0,1,.717-.557c.145-.047.581-.183.807.091.295.358-.054,1.069-.58,2.033-.1.183-.218.4-.277.531a2.545,2.545,0,0,0,.437-.343c.32-.289.622-.566.921-.462.256.086.315.389.335.489h0c.124.636-.557,1.426-1.216,2.193a4.867,4.867,0,0,0-.748,1,2.063,2.063,0,0,0-.1.492,1.854,1.854,0,0,1-.106.494,145.457,145.457,0,0,1-2.644,15.218c-.164.643-.31,1.236-.444,1.787-1.044,4.276-1.521,6.228-6.362,11.084l-.094.1c-.292.323-1.183,1.31-2.412,2.427-.23.211-.484.434-.749.653-1.874,1.6-4.658,3.554-7.264,3.742C504.382,632.383,504.352,632.385,504.323,632.385Zm16.4-37.075h.024l.061.106a5.887,5.887,0,0,0,.393.6l.083.113-.072.12c-.463.774-.885,1.543-1.289,2.35-.372.743-1.084,1.859-1.907,3.152A47.476,47.476,0,0,0,514.9,607.1c-1.629,3.711-6.068,7.949-10.195,11.607-.467.414-.918.81-1.338,1.179-.993.872-1.777,1.561-2.168,1.954-1.04,1.036-.452,4.807.768,7.488.776,1.7,1.668,2.673,2.413,2.64,2.492-.181,5.2-2.082,7.024-3.645.261-.217.511-.436.737-.642,1.214-1.1,2.094-2.079,2.383-2.4.054-.06.091-.1.107-.117,4.761-4.775,5.2-6.565,6.253-10.89.135-.554.28-1.147.445-1.791a145.293,145.293,0,0,0,2.637-15.2l.018-.063a1.415,1.415,0,0,0,.085-.4,2.408,2.408,0,0,1,.127-.591,4.9,4.9,0,0,1,.822-1.12c.51-.592,1.208-1.4,1.123-1.839-.029-.144-.064-.175-.064-.175-.08,0-.354.246-.5.38-.294.264-.573.518-.848.469a.407.407,0,0,1-.293-.22c-.09-.161,0-.344.332-.949.19-.347.766-1.4.624-1.566,0,0-.071-.049-.357.042a3.342,3.342,0,0,0-.557.464c-.515.48-.818.743-1.077.629a.354.354,0,0,1-.189-.375l.025-.1c.07-.126.161-.274.26-.438.328-.532.821-1.338.723-1.719a.218.218,0,0,0-.114-.145c-.131-.056-.748.46-1.038.976-.736,1.306-.9,1.3-1.027,1.3h-.124l-.084-.124c-.2-.381.74-1.862.75-1.878.222-.344.2-.552.152-.6s-.235-.044-.543.157c-1.457.952-1.7,3.052-1.742,3.909l-.044.969-.36-.9a1.983,1.983,0,0,0-.521-.833c-.087-.067-.145-.077-.159-.071a.555.555,0,0,0-.1.432A5.814,5.814,0,0,0,520.721,595.311Z" transform="translate(-500.241 -588.807)"/>
          </g>
        </g>
        <path id="Trazado_688712" data-name="Trazado 688712" d="M504.581,619.521c-1.053.484-7.72,3.655-10.154,8.248-1.108,2.091-2.259,7.658.272,9.242,4.055,2.537,12.143-1.832,17.866-5.263C512.147,626.9,509.07,622.556,504.581,619.521Z" transform="translate(-493.179 -590.851)" fill="#aab6c2"/>
      </g>
    </g>
    <g id="Grupo_891877" data-name="Grupo 891877" transform="translate(374.186 641.001)">
      <g id="Grupo_891871" data-name="Grupo 891871" transform="translate(29.73 57.133)">
        <path id="Trazado_688713" data-name="Trazado 688713" d="M410.206,722.264h2.14a1.42,1.42,0,0,0,1.42-1.42v-9.961h-4.979v9.961A1.42,1.42,0,0,0,410.206,722.264Z" transform="translate(-408.786 -710.883)" fill="#aab6c2"/>
      </g>
      <g id="Grupo_891872" data-name="Grupo 891872" transform="translate(2.589 44.413)">
        <path id="Trazado_688714" data-name="Trazado 688714" d="M379.953,724.176a4.83,4.83,0,0,1,3.078-6.095l22.555-7.418V697.256H413.1v13.512l22.24,7.314a4.828,4.828,0,0,1,3.078,6.095l-29.231-9.614h0Z" transform="translate(-379.71 -697.256)" fill="#aab6c2"/>
      </g>
      <g id="Grupo_891873" data-name="Grupo 891873" transform="translate(27.819 39.993)">
        <path id="Trazado_688715" data-name="Trazado 688715" d="M406.739,711.173h8.488V694.948a2.426,2.426,0,0,0-2.425-2.426h-3.64a2.424,2.424,0,0,0-2.423,2.424Z" transform="translate(-406.739 -692.522)" fill="#aab6c2"/>
      </g>
      <g id="Grupo_891874" data-name="Grupo 891874" transform="translate(54.139 64.834)">
        <path id="Trazado_688716" data-name="Trazado 688716" d="M434.934,723.886a4.753,4.753,0,1,1,4.753,4.752A4.754,4.754,0,0,1,434.934,723.886Z" transform="translate(-434.934 -719.133)"/>
        <path id="Trazado_688717" data-name="Trazado 688717" d="M436.042,723.96a3.719,3.719,0,1,1,3.719,3.719A3.72,3.72,0,0,1,436.042,723.96Z" transform="translate(-435.008 -719.207)" fill="#aab6c2"/>
      </g>
      <g id="Grupo_891875" data-name="Grupo 891875" transform="translate(27.466 64.834)">
        <path id="Trazado_688718" data-name="Trazado 688718" d="M406.361,723.886a4.753,4.753,0,1,1,4.754,4.752A4.754,4.754,0,0,1,406.361,723.886Z" transform="translate(-406.361 -719.133)"/>
        <path id="Trazado_688719" data-name="Trazado 688719" d="M407.469,723.96a3.719,3.719,0,1,1,3.72,3.719A3.72,3.72,0,0,1,407.469,723.96Z" transform="translate(-406.435 -719.207)" fill="#aab6c2"/>
      </g>
      <g id="Grupo_891876" data-name="Grupo 891876" transform="translate(0 64.834)">
        <path id="Trazado_688720" data-name="Trazado 688720" d="M376.937,723.886a4.753,4.753,0,1,1,4.753,4.752A4.753,4.753,0,0,1,376.937,723.886Z" transform="translate(-376.937 -719.133)"/>
        <path id="Trazado_688721" data-name="Trazado 688721" d="M378.044,723.96a3.719,3.719,0,1,1,3.72,3.719A3.72,3.72,0,0,1,378.044,723.96Z" transform="translate(-377.011 -719.207)" fill="#aab6c2"/>
      </g>
      <path id="Trazado_688722" data-name="Trazado 688722" d="M378.9,683.282a3.781,3.781,0,0,0,3.783,3.783h31.515s.867-.269,2.265-.708c5.69-1.811,20.218-6.544,21.188-8.063,1.205-1.891,4.078-28.6,4.078-28.6H410.208a3.788,3.788,0,0,0-4.073,3.475l-.733,16.709A10.511,10.511,0,0,1,394.98,679.5h-12.3A3.782,3.782,0,0,0,378.9,683.282Z" transform="translate(-377.067 -649.678)" fill="#aab6c2"/>
      <path id="Trazado_688723" data-name="Trazado 688723" d="M404.061,694.473h12.424c1.823,0,3.3-2.619,3.3-5.848H400.762C400.762,691.854,402.239,694.473,404.061,694.473Z" transform="translate(-378.522 -652.269)"/>
      <path id="Trazado_688724" data-name="Trazado 688724" d="M378.9,685.407a3.781,3.781,0,0,0,3.783,3.783h33.78v-7.567h-33.78A3.782,3.782,0,0,0,378.9,685.407Z" transform="translate(-377.067 -651.803)" fill="#aab6c2"/>
      <path id="Trazado_688725" data-name="Trazado 688725" d="M416.443,687.065h12.3a18.112,18.112,0,0,0,17.964-16.6l.734-16.706a3.784,3.784,0,0,0-7.543-.6l-.734,16.708a10.507,10.507,0,0,1-10.42,9.628h-12.3a3.783,3.783,0,1,0,0,7.567Z" transform="translate(-379.314 -649.678)"/>
    </g>
    <g id="Grupo_891886" data-name="Grupo 891886" transform="translate(360.268 580.842)">
      <g id="Grupo_891878" data-name="Grupo 891878" transform="translate(14.145 120.604)">
        <path id="Trazado_688726" data-name="Trazado 688726" d="M378.806,714.692c.542-.349,4.538,1.434,4.5,1.7-.129.8-.909,3.779-1.433,4.032-.507.245-4.625-1.15-4.458-1.915C377.554,717.845,378.284,715.03,378.806,714.692Z" transform="translate(-377.197 -714.446)" fill="#fff"/>
        <path id="Trazado_688727" data-name="Trazado 688727" d="M381.687,720.637a10.1,10.1,0,0,1-4.11-1.5c-.113-.09-.457-.361-.386-.7.008-.035.8-3.5,1.487-3.944h0c.625-.407,3.83,1.055,4.52,1.5.165.107.324.227.3.4-.05.317-.825,3.839-1.548,4.188A.617.617,0,0,1,381.687,720.637Zm-2.784-5.782c-.379.249-1.059,2.56-1.3,3.681,0,0,0,.071.171.223a9.384,9.384,0,0,0,4,1.458c.356-.173,1.1-2.674,1.3-3.795C382.58,715.993,379.313,714.652,378.9,714.855Z" transform="translate(-377.182 -714.431)"/>
      </g>
      <path id="Trazado_688728" data-name="Trazado 688728" d="M381.82,719.808s.993,3.37-1.09,5.056c0,0-10.1-2.865-12.943-4.339,0,0,1.15-3.69,3.829-3.14a40.038,40.038,0,0,1,5.222,1.5S379.271,721.209,381.82,719.808Z" transform="translate(-362.411 -594.02)"/>
      <path id="Trazado_688729" data-name="Trazado 688729" d="M415.758,674.142c-2.626,5.191-12.01,7.3-18.977,9.138-4.174,1.106-7.48,2.112-7.924,3.631-1.736,5.942-2.96,21.562-4.609,27.03-.591.681-1.825.69-3.108.454a20.619,20.619,0,0,1-4.292-1.411c.374-12.177-.631-23.535,1.323-31.983,3.276-14.191,24.758-20.674,24.758-20.674C406.7,656.2,420.356,665.044,415.758,674.142Z" transform="translate(-363.014 -590.158)"/>
      <g id="Grupo_891879" data-name="Grupo 891879" transform="translate(37.481 124.096)">
        <path id="Trazado_688730" data-name="Trazado 688730" d="M402.443,719.48c.263-.589,4.584-1.276,4.693-1.034.33.742,1.3,3.663,1,4.161-.291.483-4.5,1.562-4.782.831C403.116,722.8,402.189,720.048,402.443,719.48Z" transform="translate(-402.194 -718.187)" fill="#fff"/>
        <path id="Trazado_688731" data-name="Trazado 688731" d="M404.1,723.877c-.09,0-.174,0-.25-.011-.144-.012-.58-.051-.7-.37-.012-.034-1.242-3.372-.908-4.117h0c.3-.68,3.784-1.207,4.609-1.207h0c.2,0,.393.012.465.173.13.293,1.4,3.666.99,4.355C408.019,723.168,405.411,723.877,404.1,723.877Zm-1.478-4.327c-.181.415.512,2.724.919,3.8,0,0,.036.061.265.092a9.306,9.306,0,0,0,4.143-.959c.2-.331-.546-2.866-.983-3.89C406.316,718.492,402.853,719.162,402.619,719.551Z" transform="translate(-402.18 -718.172)"/>
      </g>
      <path id="Trazado_688732" data-name="Trazado 688732" d="M406.275,663.741a.407.407,0,0,0-.533.375.659.659,0,0,0-.129.059c-4.233,2.921-9.938,4.115-13.154,8.387a13.943,13.943,0,0,0-2.192,5.763,38.607,38.607,0,0,1-3.226,8.516A77.4,77.4,0,0,0,381.9,703.38a35.159,35.159,0,0,0-.731,8.447,19.115,19.115,0,0,0,.257,2.862c1.284.236,2.518.227,3.108-.454,1.648-5.467,2.872-21.088,4.609-27.03.444-1.52,3.75-2.525,7.924-3.631a65.949,65.949,0,0,1,4.954-5.456c2.28-2.252,4.924-4.125,7.145-6.434C412.4,668.3,410.4,664.894,406.275,663.741Z" transform="translate(-363.299 -590.454)"/>
      <path id="Trazado_688733" data-name="Trazado 688733" d="M407.789,721.852s2.672,2.28,1.846,4.831c0,0-10.024,3.112-13.212,3.432,0,0-1.051-3.721,1.493-4.721a40.076,40.076,0,0,1,5.2-1.593S406.416,724.417,407.789,721.852Z" transform="translate(-364.302 -594.321)"/>
      <path id="Trazado_688734" data-name="Trazado 688734" d="M429.992,674.7c-4.194,8.309-20.575,5.941-21.759,9.986-1.736,5.942-2.862,27.444-.622,30.9a4.7,4.7,0,0,1-.691.622,16.146,16.146,0,0,1-5.1,2.053c-3.78-8.28-7.55-24.434-8.122-33.8-.887-14.527,23.467-23.576,23.467-23.576,3.079-3.364,12.75,1.915,13.688,8.911A8.243,8.243,0,0,1,429.992,674.7Z" transform="translate(-364.133 -590.196)"/>
      <path id="Trazado_688735" data-name="Trazado 688735" d="M431.522,670.472a4.69,4.69,0,0,0-2.556-.473.5.5,0,0,0-.207.908c-2.23,6.354-9.414,7.992-15.325,9.147-4.2.819-7.579,2.053-8.487,6.642a66.783,66.783,0,0,0-.73,8.309c-.187,2.7-.444,5.408-.454,8.121a25.743,25.743,0,0,0,3.828,13.757,4.7,4.7,0,0,0,.691-.622c-2.24-3.454-1.115-24.956.622-30.9,1.185-4.046,17.565-1.677,21.759-9.986A8.243,8.243,0,0,0,431.522,670.472Z" transform="translate(-364.804 -590.87)"/>
      <path id="Trazado_688736" data-name="Trazado 688736" d="M400.464,659.286c.147.463,6.6,4.157,10.194,5.507,6.239,2.344,16.791,4.169,19.5,3.656,1.105-.206,1.815-.5,1.983-.859.524-1.125-1.278-12.074-1.061-19.357.04-1.411.07-2.842.07-4.244.039-7.322-.474-14.18-2.132-15.454-.375-.3-.809-.6-1.293-.927a24.112,24.112,0,0,0-2.506-1.5,23.564,23.564,0,0,0-5.161-1.994,21.423,21.423,0,0,0-10.3-.158.01.01,0,0,1-.01.01,20.8,20.8,0,0,0-2.842.849c-.226.079-.454.168-.691.256-3.236,1.3-2.772,8.349-2.25,14.261a56.977,56.977,0,0,1,.386,6.8,13.817,13.817,0,0,1-.2,1.559C403.414,652.042,401.006,656.118,400.464,659.286Z" transform="translate(-364.585 -587.771)" fill="#ff814c"/>
      <g id="Grupo_891881" data-name="Grupo 891881" transform="translate(0 37.423)">
        <g id="Grupo_891880" data-name="Grupo 891880" transform="translate(0 0.436)">
          <path id="Trazado_688737" data-name="Trazado 688737" d="M362.258,654.488c.086-.67,1.352-1.783,1.9-2.248a7.42,7.42,0,0,1,4.12-1.861,3.193,3.193,0,0,1-.118-.353,3.372,3.372,0,0,0-.665.147c-.534.165-.975-.6-.457-.9a1.825,1.825,0,0,1,1.6-.306,36.9,36.9,0,0,1,3.693,1.991,18.294,18.294,0,0,1,4.359-.282c.412,0,.822.006,1.243.012l.01,0c3.436.031,12.235-4.654,13.02-5.166.457-.313,1.03-1.9,2.342-4.708.076-.169.171-.35.256-.528.138-.292.267-.582.425-.887.006-.022.023-.045.03-.068,2.648-5.606,6.33-11.289,9.606-13.157,3.241-1.843,1.284,13.03,1.284,13.03a14.388,14.388,0,0,1,.122,3.231,10.656,10.656,0,0,1-2.068,5.481c-.049.08-.109.161-.157.253-.322.5-.685,1-1.087,1.523-.3.371-.617.732-.959,1.109-.2.219-.425.442-.649.654a17.351,17.351,0,0,1-5.1,3.807c-4,2.179-5.884,2.267-13.21,1.536a44.292,44.292,0,0,1-11-2.649,5.6,5.6,0,0,1-.969.754c-1.261.955-2.264.218-1.962-.066-.792.4-1.58-.016-1.38-.408-.737.2-1.878-.739-.922-1.438a7.255,7.255,0,0,0-2.324,1.761C362.808,655.255,362.185,655.059,362.258,654.488Z" transform="translate(-362.043 -625.804)" fill="#fff"/>
          <path id="Trazado_688738" data-name="Trazado 688738" d="M387.811,657.406c-1.572,0-3.479-.16-6.053-.416a44.9,44.9,0,0,1-10.93-2.611,6.815,6.815,0,0,1-.9.681c-.993.754-1.9.557-2.222.176a.568.568,0,0,1-.072-.107,1.3,1.3,0,0,1-1.239-.218.563.563,0,0,1-.153-.263,1.4,1.4,0,0,1-1.183-.717.8.8,0,0,1-.082-.427,8.176,8.176,0,0,0-1.594,1.366.846.846,0,0,1-.976.31.665.665,0,0,1-.369-.733h0c.067-.534.712-1.312,1.971-2.379a8.548,8.548,0,0,1,3.1-1.714.8.8,0,0,1-.461-.426.65.65,0,0,1,.271-.854,2.022,2.022,0,0,1,1.773-.323,39.471,39.471,0,0,1,3.661,1.959,20.251,20.251,0,0,1,4.322-.262l.252,0c.329,0,.658.006.994.01l.054.008H378c3.327,0,11.909-4.539,12.831-5.138a9.285,9.285,0,0,0,1.272-2.435c.276-.619.6-1.348.993-2.186.042-.093.091-.193.142-.295.038-.077.077-.156.114-.234l.121-.257c.1-.209.2-.419.307-.637l.027-.061c3.127-6.619,6.75-11.573,9.692-13.252a1,1,0,0,1,1.115-.033c1.972,1.328.664,11.879.485,13.241a14.77,14.77,0,0,1,.119,3.249c-.105,1.839-.636,3.248-2.1,5.578l-.057.089a1.581,1.581,0,0,0-.091.151c-.322.5-.681,1-1.106,1.552-.292.359-.6.713-.97,1.122-.206.224-.431.449-.66.666a17.606,17.606,0,0,1-5.146,3.838A13.329,13.329,0,0,1,387.811,657.406Zm-17.087-3.523.133.054a44.128,44.128,0,0,0,10.942,2.635c7.173.718,9.091.666,13.089-1.511a17.133,17.133,0,0,0,5.057-3.773c.223-.211.442-.43.641-.646.364-.4.667-.751.95-1.1.415-.539.767-1.032,1.073-1.5a1.976,1.976,0,0,1,.1-.169l.05-.08c1.44-2.294,1.935-3.6,2.038-5.382a14.449,14.449,0,0,0-.119-3.181l-.007-.034,0-.033c.426-3.236,1.2-11.86-.3-12.87-.114-.078-.31-.158-.673.049-3.379,1.927-7.134,8.013-9.52,13.065l-.024.052c-.119.235-.215.44-.309.643l-.122.259c-.037.079-.077.161-.118.241-.048.1-.1.192-.136.283-.391.838-.716,1.566-.991,2.184-.7,1.569-1.053,2.358-1.423,2.612-.94.611-9.7,5.232-13.141,5.2l-.055-.008c-.294-.01-.62,0-.947-.006l-.251,0a18.721,18.721,0,0,0-4.294.273l-.1.032-.085-.063a36.686,36.686,0,0,0-3.645-1.965,1.623,1.623,0,0,0-1.414.291.234.234,0,0,0-.1.323.333.333,0,0,0,.389.2,3.5,3.5,0,0,1,.707-.155l.175-.016.046.169a3.167,3.167,0,0,0,.11.33l.109.269-.289.019a7.325,7.325,0,0,0-4,1.812c-1.52,1.289-1.8,1.878-1.827,2.114h0a.261.261,0,0,0,.122.3.449.449,0,0,0,.487-.2,7.481,7.481,0,0,1,2.42-1.825l1.257-.414-1.068.781c-.259.19-.338.394-.235.608a.953.953,0,0,0,.978.459l.457-.123-.216.422c-.008.016-.025.047.035.107a.986.986,0,0,0,1.063.018l1.282-.653-1.044.992c.021-.008.086.069.248.125a1.553,1.553,0,0,0,1.443-.378,5.466,5.466,0,0,0,.943-.73Z" transform="translate(-362.028 -625.789)"/>
        </g>
        <path id="Trazado_688739" data-name="Trazado 688739" d="M404.41,650.359c.933-1.26,2.365-2.694,3.641-4.091.481-.534.943-1.066,1.348-1.566a8.585,8.585,0,0,0,1.268-2.007,2.526,2.526,0,0,0,.217-.833,38.5,38.5,0,0,0-.376-4.411c-.721-5.628-2.592-13.137-5.062-12.017-4.23,1.918-7.679,8.346-10.691,13.433A13.482,13.482,0,0,0,404.41,650.359Z" transform="translate(-364.205 -625.322)" fill="#8979f3"/>
        <path id="Trazado_688740" data-name="Trazado 688740" d="M403.875,629.285a16.709,16.709,0,0,0-2.618,8.577c-.088,1.451-1.557,6.382-1.768,9.828,1.007,1.129,3.691,2.6,4.211,2.2l.278-11.906Z" transform="translate(-364.52 -625.586)"/>
      </g>
      <path id="Trazado_688741" data-name="Trazado 688741" d="M398.982,659.45c.148.464,8.635,4.44,13.446,6.414,6.166,2.531,14.919,3.1,17.623,2.585,1.105-.206,1.815-.5,1.983-.859.524-1.125-1.278-12.074-1.061-19.357.04-1.411.07-2.842.07-4.244.039-7.322-.474-14.18-2.132-15.454-.375-.3-.809-.6-1.293-.927a24.112,24.112,0,0,0-2.506-1.5,23.564,23.564,0,0,0-5.161-1.994,21.423,21.423,0,0,0-10.3-.158.01.01,0,0,1-.01.01,20.8,20.8,0,0,0-2.842.849c-.226.079-.454.168-.691.256-3.236,1.3-2.772,8.349-2.25,14.261C404.091,642.075,398.269,659.123,398.982,659.45Z" transform="translate(-364.482 -587.771)" fill="#8979f3"/>
      <g id="Grupo_891882" data-name="Grupo 891882" transform="translate(49.049 30.993)">
        <path id="Trazado_688742" data-name="Trazado 688742" d="M415.129,620.434V623.6s-.748,1.372,0,1.522c1.645.33,4.019-1.52,4.019-1.52V618.77Z" transform="translate(-414.588 -618.456)" fill="#fff"/>
        <path id="Trazado_688743" data-name="Trazado 688743" d="M415.53,625.348a2.309,2.309,0,0,1-.456-.044.581.581,0,0,1-.433-.327c-.215-.458.14-1.212.265-1.452v-3.255l4.438-1.837v5.248l-.081.063A7.669,7.669,0,0,1,415.53,625.348Zm-.205-4.8-.025,3.126c-.18.33-.386.9-.279,1.123a.164.164,0,0,0,.135.092c1.369.275,3.347-1.108,3.768-1.419V619.06Z" transform="translate(-414.573 -618.434)"/>
      </g>
      <g id="Grupo_891884" data-name="Grupo 891884" transform="translate(54.384)">
        <g id="Grupo_891883" data-name="Grupo 891883" transform="translate(7.242)">
          <path id="Trazado_688744" data-name="Trazado 688744" d="M452.374,592.582a4.805,4.805,0,0,0-.5-1.662c-.164-.2-.379-.376-.693-.189a.746.746,0,0,0-.322.719c.055.491-.079.615-.482,1.252-.451-.636-.821-1.644-.438-3.792a3.68,3.68,0,0,0-.091-2.256.4.4,0,0,0-.343-.218.974.974,0,0,0-.1.015,1.358,1.358,0,0,0-.031-.255c-.105-.463-.277-.773-.83-.736a1.486,1.486,0,0,0-.994.666.719.719,0,0,0-.661-.4c-1.15-.006-1.373,1.33-1.3,2.664-1.037.443-.3,2.982.575,4.859a2.5,2.5,0,0,0,.047.738c-.871,2.21-5.261,13.055-9.717,18.533-4.708,5.787-5.29,6.235-7.953,12.909-1.614,5.323,4.274,5.908,7.828,5.56,4.307-6.7,9.127-15.348,9.3-15.991.141-.5,3.472-15.108,4.449-19.386a9.184,9.184,0,0,0,2.011-2.111A1.128,1.128,0,0,0,452.374,592.582Z" transform="translate(-428.06 -585.247)" fill="#fff"/>
          <path id="Trazado_688745" data-name="Trazado 688745" d="M434.717,631.265c-1.883,0-4.583-.311-5.908-1.926a4.1,4.1,0,0,1-.48-3.983c2.49-6.241,3.184-7.092,7.037-11.809l.955-1.172c4.4-5.415,8.773-16.169,9.662-18.423a2.63,2.63,0,0,1-.044-.681c-.717-1.549-1.34-3.535-.962-4.52a.987.987,0,0,1,.385-.5,3.247,3.247,0,0,1,.556-2.363,1.259,1.259,0,0,1,.949-.389h.009a.9.9,0,0,1,.669.273,1.487,1.487,0,0,1,.971-.54c.742-.051.941.426,1.048.9.006.027.012.055.017.084a.611.611,0,0,1,.441.328,3.817,3.817,0,0,1,.11,2.386,4.977,4.977,0,0,0,.233,3.365c.257-.4.31-.5.272-.839a.956.956,0,0,1,.424-.921.684.684,0,0,1,.961.238,3.91,3.91,0,0,1,.494,1.512l.046.239a1.326,1.326,0,0,1-.277,1.088,9.661,9.661,0,0,1-1.993,2.111l-.31,1.357c-1.3,5.68-3.993,17.5-4.123,17.961-.186.687-5.1,9.475-9.326,16.047l-.055.086-.1.01C436.019,631.22,435.425,631.265,434.717,631.265Zm12.152-45.342a.843.843,0,0,0-.645.259,3.067,3.067,0,0,0-.436,2.183l.008.147-.135.058a.543.543,0,0,0-.292.331c-.313.819.264,2.723.975,4.246l.026.055-.007.059a2.285,2.285,0,0,0,.044.675l.011.059-.021.056c-.842,2.138-5.269,13.079-9.749,18.589l-.955,1.171c-3.82,4.676-4.508,5.52-6.967,11.683a3.705,3.705,0,0,0,.409,3.579c1.649,2.011,5.732,1.831,7.1,1.7,4.4-6.852,9.062-15.264,9.22-15.847.127-.455,2.925-12.709,4.119-17.943l.345-1.515.066-.046a9.006,9.006,0,0,0,1.962-2.063.917.917,0,0,0,.2-.755l-.048-.245a3.829,3.829,0,0,0-.408-1.326c-.182-.223-.285-.222-.421-.141a.541.541,0,0,0-.222.516,1.483,1.483,0,0,1-.372,1.167l-.307.484-.181-.255c-.4-.57-.893-1.6-.472-3.95a3.5,3.5,0,0,0-.073-2.125.19.19,0,0,0-.155-.1l-.086.014-.217.017-.008-.218a1.16,1.16,0,0,0-.025-.212c-.107-.472-.242-.6-.612-.577a1.281,1.281,0,0,0-.844.584l-.189.245-.156-.267A.493.493,0,0,0,446.868,585.924Z" transform="translate(-428.046 -585.232)"/>
        </g>
        <path id="Trazado_688746" data-name="Trazado 688746" d="M420.719,629.578c1.033,1.834,7.254,8.512,9.58,7.774a20.975,20.975,0,0,0,2.81-1.1,10.5,10.5,0,0,0,1.668-.987c4.056-2.863,7.1-8.414,7.6-9.354-2.924-4.779-6.882-6.854-11.866-7.518C426.7,624.142,418.3,625.273,420.719,629.578Z" transform="translate(-420.288 -587.438)" fill="#8979f3"/>
      </g>
      <g id="Grupo_891885" data-name="Grupo 891885" transform="translate(47.952 25.433)">
        <path id="Trazado_688747" data-name="Trazado 688747" d="M418.322,621.911a4.041,4.041,0,0,1-3.278-1.739c-2.463-3.21-1.01-7.315-.994-7.356l.048-.132,6.756.536.037.12a22,22,0,0,1,.9,5.96C421.747,620.667,420.1,621.911,418.322,621.911Z" transform="translate(-413.411 -612.492)" fill="#fff"/>
        <path id="Trazado_688748" data-name="Trazado 688748" d="M414.207,612.866l6.493.513a21.606,21.606,0,0,1,.888,5.9c-.035,1.215-1.552,2.434-3.28,2.434a3.9,3.9,0,0,1-3.133-1.668c-2.431-3.168-.968-7.18-.968-7.18Zm-.249-.388-.1.262c-.062.172-1.5,4.24,1.022,7.529a4.3,4.3,0,0,0,3.424,1.813c1.868,0,3.606-1.33,3.647-2.791a21.748,21.748,0,0,0-.9-6.019l-.074-.239-.248-.019-6.493-.514-.278-.022Z" transform="translate(-413.397 -612.478)"/>
      </g>
      <path id="Trazado_688749" data-name="Trazado 688749" d="M411.466,614.891c-.739.759.144,1.629,1.125,2.05a1.1,1.1,0,0,0,.1.268c-.294,1.039.186,2.229,1.436,1.731,1.156,1.632,2.7,3.135,5.133,2.789a2.889,2.889,0,0,0,2.188-2.318c-.036-1.079-1.845-.4-2.313-1.174a.517.517,0,0,0-.686-.169,1.752,1.752,0,0,1-2.148.23,3.645,3.645,0,0,1-1.159-.989,16.849,16.849,0,0,0-.185-2.309c-.008-.194-.006-1.016-.025-1.69,2.5.368,5.853.707,7.461-1.114,1.434-1.623.206-3.024-1.481-3.249a1.747,1.747,0,0,0-2.6-.1c-.5-.421-1.127-.794-1.709-.45a.921.921,0,0,0-.45.613,1.089,1.089,0,0,0-.636-.048,1.567,1.567,0,0,0-.86.5c-.662-.454-1.783.3-1.825,1.29a1.394,1.394,0,0,0-.807,1.718A1.526,1.526,0,0,0,411.466,614.891Z" transform="translate(-365.292 -586.764)"/>
    </g>
    <g id="Grupo_891888" data-name="Grupo 891888" transform="translate(483.202 556.622)">
      <g id="Grupo_891887" data-name="Grupo 891887">
        <path id="Trazado_688750" data-name="Trazado 688750" d="M498.86,580.046l-2.734-16.037,36.954-4.443.622,26-30.65,1.448-8.832,6.508Z" transform="translate(-493.756 -559.304)" fill="#fff"/>
        <path id="Trazado_688751" data-name="Trazado 688751" d="M532.819,559.811l.611,25.513-30.352,1.433-.141.007-.114.083-8.172,6.023,4.376-12.708.039-.113-.02-.118-2.684-15.736,36.455-4.383Zm.455-.526-37.452,4.5,2.766,16.22-4.864,14.125,9.378-6.911,30.806-1.455-.634-26.483Z" transform="translate(-493.723 -559.285)"/>
      </g>
      <path id="Trazado_688752" data-name="Trazado 688752" d="M513.206,567.1c-.437.153-.873.3-1.312.456a.415.415,0,0,0-.4-.094c-.2.056-1.162.506-1.207.123a.419.419,0,0,0-.632-.34c-.022.013-2.24,1.419-2.225.683.008-.446-.563-.5-.776-.188l-1.117.425a.419.419,0,0,0-.7-.164,1.384,1.384,0,0,1-1.918.438c-.234-.478-.937-.039-.7.436.675,1.373,1.956.848,2.846.066.488.538,1.182.318,1.748-.17.526.665,1.922-.037,2.776-.528a.9.9,0,0,0,.493.509c.755.353.646-.171,1.287-.244,1.154-.129,1.613.409,2.565-1.011C514.228,567.059,513.5,566.665,513.206,567.1Z" transform="translate(-494.285 -559.792)"/>
      <path id="Trazado_688753" data-name="Trazado 688753" d="M530.5,565.057c-.815.451-2.377,1.666-3.351.906a.418.418,0,0,0-.406-.094c-.218.091-.961.517-1.134.3a.419.419,0,0,0-.57-.134,1.515,1.515,0,0,1-1.873.25.414.414,0,0,0-.586.016l-1.439,0c-.186-.495-.98-.259-.792.242a1.48,1.48,0,0,0,2.545.634c.726.577,1.565.286,2.322-.247.583.478.937-.055,1.707-.094.424-.02.712.357,1.252.283a9.1,9.1,0,0,0,2.763-1.352C531.408,565.5,530.97,564.8,530.5,565.057Z" transform="translate(-495.493 -559.665)"/>
      <path id="Trazado_688754" data-name="Trazado 688754" d="M516.771,570.9a9.736,9.736,0,0,1-2.675.324.42.42,0,0,0-.569-.133,3.047,3.047,0,0,1-1.732.547c-.23.007-.074-.236-.517-.139-.237.05-1.166.237-1.184.468a.416.416,0,0,0-.632-.341c-.14.1-.293.181-.44.272l-.031-.061a.419.419,0,0,0-.57-.134,12.484,12.484,0,0,0-1.289.911c-.176-.5-.969-.261-.792.241.377,1.06,1.447.321,2.149-.186l.018.034a.418.418,0,0,0,.569.133c.128-.067.245-.153.368-.227.266.245.776.153,1.195.083a7.542,7.542,0,0,1,.87-.181c.083,0,.461.162.527.161a3.466,3.466,0,0,0,1.6-.679c.36.361.808.268,1.395.158.922-.175,1.936.019,2.465-.852C517.773,570.844,517.045,570.449,516.771,570.9Z" transform="translate(-494.561 -560.045)"/>
      <path id="Trazado_688755" data-name="Trazado 688755" d="M527.509,570.374c-.161.25-.97-.106-1.207-.109a1.139,1.139,0,0,0-.522.1c-.188.088-.31.123-.222.306-.231-.48-.933-.039-.7.436a.626.626,0,0,0,.6.349.911.911,0,0,0,.435-.165c.276-.162.354-.224.674-.151.634.144,1.262.259,1.666-.37C528.522,570.323,527.794,569.929,527.509,570.374Z" transform="translate(-495.791 -560.01)"/>
      <path id="Trazado_688756" data-name="Trazado 688756" d="M515.055,576.471c-.269.07-2.2.674-2.347.445a.422.422,0,0,0-.652-.065c-.174.022-.347.047-.521.071a.435.435,0,0,0-.472-.178,16.283,16.283,0,0,1-3.389.595.422.422,0,0,0-.653-.065,1.448,1.448,0,0,1-1.676.551c-.4-.348-.972.251-.568.6.917.794,1.787.433,2.548-.283a1.373,1.373,0,0,0,1.005.348c.622-.029.754-.491,1.274-.572.281-.042.59.131.88.087.193-.031.4-.284.557-.31a.756.756,0,0,0,.3.129,2.241,2.241,0,0,0,.969-.164c.8.515,2.22-.2,2.987-.4C515.812,577.13,515.572,576.336,515.055,576.471Z" transform="translate(-494.449 -560.427)"/>
      <path id="Trazado_688757" data-name="Trazado 688757" d="M529.956,574.839a38.289,38.289,0,0,0-4.027-.149.42.42,0,0,0-.585.016,2.254,2.254,0,0,1-2.453.758.422.422,0,0,0-.563.163c-.449.071-.9.141-1.346.213a.413.413,0,0,0-.5-.051l-2,.094c-.447-.291-.841.436-.4.725,1.046.681,1.874.221,2.9.313.871.077,1.449.17,1.9-.567a2,2,0,0,0,1.253.064c.544-.132.991-.743,1.471-.832.192-.034.839.187,1.115.188a20.13,20.13,0,0,1,2.123-.193,5.616,5.616,0,0,0,1.135.084C530.5,575.612,530.487,574.784,529.956,574.839Z" transform="translate(-495.331 -560.302)"/>
      <path id="Trazado_688758" data-name="Trazado 688758" d="M518.772,580.844c-.338.148-.61-.077-.932-.039s-.643.232-.979.291c-.495.09-2.745.262-2.762.23a.428.428,0,0,0-.472-.176,22.973,22.973,0,0,1-3.344.858c-.321-.418-1.028.012-.7.436.546.711.906.554,1.668.313.5-.161.917-.1,1.4-.226.246-.063.465-.3.7-.347.147-.027.171-.049.163-.065a1.152,1.152,0,0,0,.166.039c.232.045.458.355.791.383.674.058,1.317-.411,1.985-.494a7.832,7.832,0,0,0,.82-.077,9.746,9.746,0,0,0,1.738-.333C519.494,581.424,519.26,580.628,518.772,580.844Z" transform="translate(-494.772 -560.716)"/>
      <path id="Trazado_688759" data-name="Trazado 688759" d="M531.111,579.946c-.279-.106-.309-.463-.672-.511-.414-.054-.725.34-1.08.459-.486.163-.98-.037-1.467.088-.719.188-1.164.8-1.953.252-.438-.3-.833.425-.4.724,1.095.757,1.949-.152,3.059-.185a3.171,3.171,0,0,0,1.375-.249c.557-.246.4.019.937.225C531.409,580.939,531.6,580.134,531.111,579.946Z" transform="translate(-495.827 -560.625)"/>
    </g>
    <g id="Grupo_891896" data-name="Grupo 891896" transform="translate(346.976 648.252)">
      <g id="Grupo_891889" data-name="Grupo 891889">
        <path id="Trazado_688760" data-name="Trazado 688760" d="M530.952,657.67l-3.13,5.3H351.311l-3.13-5.3Z" transform="translate(-347.814 -657.461)" fill="#fff"/>
        <path id="Trazado_688761" data-name="Trazado 688761" d="M527.915,663.162H351.165l-3.377-5.716h183.5Zm-176.51-.419H527.677l2.882-4.876H348.522Z" transform="translate(-347.788 -657.446)"/>
      </g>
      <g id="Grupo_891890" data-name="Grupo 891890" transform="translate(156.872 5.507)">
        <path id="Trazado_688762" data-name="Trazado 688762" d="M523.8,724.418h2.8l-4.829-61.072H515.84Z" transform="translate(-515.84 -663.346)"/>
      </g>
      <g id="Grupo_891892" data-name="Grupo 891892" transform="translate(169.885 5.297)">
        <g id="Grupo_891891" data-name="Grupo 891891">
          <path id="Trazado_688763" data-name="Trazado 688763" d="M537.992,724.418h2.8l-4.828-61.072h-5.924Z" transform="translate(-529.797 -663.136)" fill="#fff"/>
          <path id="Trazado_688764" data-name="Trazado 688764" d="M541,724.613H537.79l-8.01-61.492h6.356l.015.193Zm-2.839-.419h2.385l-4.8-60.653h-5.493Z" transform="translate(-529.78 -663.121)"/>
        </g>
      </g>
      <g id="Grupo_891894" data-name="Grupo 891894" transform="translate(1.304 5.297)">
        <g id="Grupo_891893" data-name="Grupo 891893">
          <path id="Trazado_688765" data-name="Trazado 688765" d="M352.224,724.418h-2.8l4.828-61.072h5.924Z" transform="translate(-349.201 -663.136)" fill="#fff"/>
          <path id="Trazado_688766" data-name="Trazado 688766" d="M352.391,724.613h-3.206l4.861-61.492H360.4l-.031.237Zm-2.754-.419h2.386l7.9-60.653h-5.493Z" transform="translate(-349.185 -663.121)"/>
        </g>
      </g>
      <g id="Grupo_891895" data-name="Grupo 891895" transform="translate(14.923 5.507)">
        <path id="Trazado_688767" data-name="Trazado 688767" d="M366.572,724.418h-2.8l4.828-61.072h5.924Z" transform="translate(-363.775 -663.346)"/>
      </g>
    </g>
    <g id="Grupo_891907" data-name="Grupo 891907" transform="translate(478.811 614.726)">
      <g id="Grupo_891898" data-name="Grupo 891898" transform="translate(0 31.403)">
        <rect id="Rectángulo_342452" data-name="Rectángulo 342452" width="21.689" height="1.495" transform="translate(0 0.688)"/>
        <g id="Grupo_891897" data-name="Grupo 891897" transform="translate(1.561)">
          <rect id="Rectángulo_342453" data-name="Rectángulo 342453" width="1.257" height="0.891" transform="translate(18.209)"/>
          <rect id="Rectángulo_342454" data-name="Rectángulo 342454" width="1.256" height="0.891" transform="translate(16.388)"/>
          <rect id="Rectángulo_342455" data-name="Rectángulo 342455" width="1.256" height="0.891" transform="translate(14.567)"/>
          <rect id="Rectángulo_342456" data-name="Rectángulo 342456" width="1.259" height="0.89" transform="translate(12.746 0.001)"/>
          <rect id="Rectángulo_342457" data-name="Rectángulo 342457" width="1.256" height="0.89" transform="translate(10.925 0.001)"/>
          <rect id="Rectángulo_342458" data-name="Rectángulo 342458" width="1.254" height="0.89" transform="translate(9.105 0.001)"/>
          <rect id="Rectángulo_342459" data-name="Rectángulo 342459" width="1.254" height="0.89" transform="translate(7.285 0.001)"/>
          <rect id="Rectángulo_342460" data-name="Rectángulo 342460" width="1.255" height="0.89" transform="translate(5.465 0.001)"/>
          <rect id="Rectángulo_342461" data-name="Rectángulo 342461" width="1.254" height="0.89" transform="translate(3.645 0.001)"/>
          <rect id="Rectángulo_342462" data-name="Rectángulo 342462" width="1.259" height="0.89" transform="translate(1.82 0.001)"/>
          <rect id="Rectángulo_342463" data-name="Rectángulo 342463" width="1.259" height="0.89" transform="translate(0 0.001)"/>
        </g>
      </g>
      <g id="Grupo_891906" data-name="Grupo 891906" transform="translate(9.993)">
        <g id="Grupo_891899" data-name="Grupo 891899" transform="translate(10.583 24.071)">
          <path id="Trazado_688768" data-name="Trazado 688768" d="M511.061,655.451h3.155l4.93-8.134h-3.155Z" transform="translate(-511.061 -647.316)"/>
        </g>
        <g id="Grupo_891900" data-name="Grupo 891900" transform="translate(11.988 24.071)">
          <path id="Trazado_688769" data-name="Trazado 688769" d="M512.566,655.451h3.155l4.929-8.134H517.5Z" transform="translate(-512.566 -647.316)" fill="#aab6c2"/>
        </g>
        <g id="Grupo_891901" data-name="Grupo 891901" transform="translate(0 0.21)">
          <path id="Trazado_688770" data-name="Trazado 688770" d="M501.46,647.589h28.9a1.737,1.737,0,0,0,1.731-1.6l1.817-22.359a1.735,1.735,0,0,0-1.73-1.877h-28.9a1.736,1.736,0,0,0-1.73,1.6l-1.817,22.359A1.738,1.738,0,0,0,501.46,647.589Z" transform="translate(-499.724 -621.755)"/>
        </g>
        <g id="Grupo_891902" data-name="Grupo 891902" transform="translate(1.464)">
          <path id="Trazado_688771" data-name="Trazado 688771" d="M502.646,647.589h30.115a1.133,1.133,0,0,0,1.128-1.041l1.915-23.57a1.131,1.131,0,0,0-1.128-1.223H504.562a1.131,1.131,0,0,0-1.127,1.039l-1.915,23.571A1.132,1.132,0,0,0,502.646,647.589Z" transform="translate(-501.307 -621.545)" fill="#fff"/>
          <path id="Trazado_688772" data-name="Trazado 688772" d="M532.746,647.783H502.632a1.342,1.342,0,0,1-1.335-1.449l1.915-23.572a1.348,1.348,0,0,1,1.335-1.232h30.115A1.34,1.34,0,0,1,536,622.98l-1.916,23.571A1.348,1.348,0,0,1,532.746,647.783Zm-28.2-25.834a.926.926,0,0,0-.918.848l-1.915,23.572a.92.92,0,0,0,.918,1h30.115a.926.926,0,0,0,.919-.848l1.915-23.571a.923.923,0,0,0-.919-1Z" transform="translate(-501.292 -621.53)"/>
        </g>
        <g id="Grupo_891903" data-name="Grupo 891903" transform="translate(1.454 30.331)">
          <path id="Trazado_688773" data-name="Trazado 688773" d="M501.282,657.278c1.817-1.912,6.076-3.255,11.039-3.255s9.223,1.343,11.04,3.255Z" transform="translate(-501.282 -654.023)"/>
        </g>
        <g id="Grupo_891904" data-name="Grupo 891904" transform="translate(3.451 30.331)">
          <path id="Trazado_688774" data-name="Trazado 688774" d="M503.421,657.278c1.818-1.912,6.076-3.255,11.039-3.255s9.223,1.343,11.04,3.255Z" transform="translate(-503.421 -654.023)" fill="#aab6c2"/>
        </g>
        <g id="Grupo_891905" data-name="Grupo 891905" transform="translate(5.442 20.28)">
          <path id="Trazado_688775" data-name="Trazado 688775" d="M505.951,646.213h7.039a.4.4,0,0,0,.4-.358l.216-2.162a.4.4,0,0,0-.4-.438h-7.038a.4.4,0,0,0-.4.358l-.216,2.162A.4.4,0,0,0,505.951,646.213Z" transform="translate(-505.554 -643.255)"/>
        </g>
      </g>
    </g>
    <g id="Grupo_891918" data-name="Grupo 891918" transform="translate(351.867 614.726)">
      <g id="Grupo_891909" data-name="Grupo 891909" transform="translate(24.477 31.403)">
        <rect id="Rectángulo_342464" data-name="Rectángulo 342464" width="21.689" height="1.495" transform="translate(0 0.688)"/>
        <g id="Grupo_891908" data-name="Grupo 891908" transform="translate(0.663)">
          <rect id="Rectángulo_342465" data-name="Rectángulo 342465" width="1.257" height="0.891"/>
          <rect id="Rectángulo_342466" data-name="Rectángulo 342466" width="1.257" height="0.891" transform="translate(1.821)"/>
          <rect id="Rectángulo_342467" data-name="Rectángulo 342467" width="1.256" height="0.891" transform="translate(3.642)"/>
          <rect id="Rectángulo_342468" data-name="Rectángulo 342468" width="1.259" height="0.89" transform="translate(5.461 0.001)"/>
          <rect id="Rectángulo_342469" data-name="Rectángulo 342469" width="1.256" height="0.89" transform="translate(7.285 0.001)"/>
          <rect id="Rectángulo_342470" data-name="Rectángulo 342470" width="1.254" height="0.89" transform="translate(9.106 0.001)"/>
          <rect id="Rectángulo_342471" data-name="Rectángulo 342471" width="1.254" height="0.89" transform="translate(10.926 0.001)"/>
          <rect id="Rectángulo_342472" data-name="Rectángulo 342472" width="1.255" height="0.89" transform="translate(12.746 0.001)"/>
          <rect id="Rectángulo_342473" data-name="Rectángulo 342473" width="1.254" height="0.89" transform="translate(14.566 0.001)"/>
          <rect id="Rectángulo_342474" data-name="Rectángulo 342474" width="1.258" height="0.89" transform="translate(16.387 0.001)"/>
          <rect id="Rectángulo_342475" data-name="Rectángulo 342475" width="1.259" height="0.89" transform="translate(18.207 0.001)"/>
        </g>
      </g>
      <g id="Grupo_891917" data-name="Grupo 891917">
        <g id="Grupo_891910" data-name="Grupo 891910" transform="translate(17.506 24.071)">
          <path id="Trazado_688776" data-name="Trazado 688776" d="M379.867,655.451h-3.156l-4.93-8.134h3.155Z" transform="translate(-371.781 -647.316)"/>
        </g>
        <g id="Grupo_891911" data-name="Grupo 891911" transform="translate(16.101 24.071)">
          <path id="Trazado_688777" data-name="Trazado 688777" d="M378.362,655.451h-3.156l-4.93-8.134h3.155Z" transform="translate(-370.276 -647.316)" fill="#aab6c2"/>
        </g>
        <g id="Grupo_891912" data-name="Grupo 891912" transform="translate(1.985 0.21)">
          <path id="Trazado_688778" data-name="Trazado 688778" d="M387.606,647.589h-28.9a1.739,1.739,0,0,1-1.732-1.6l-1.816-22.359a1.736,1.736,0,0,1,1.731-1.877h28.9a1.737,1.737,0,0,1,1.73,1.6l1.817,22.359A1.737,1.737,0,0,1,387.606,647.589Z" transform="translate(-355.155 -621.755)"/>
        </g>
        <g id="Grupo_891913" data-name="Grupo 891913">
          <path id="Trazado_688779" data-name="Trazado 688779" d="M386.413,647.589H356.3a1.133,1.133,0,0,1-1.128-1.041l-1.915-23.57a1.131,1.131,0,0,1,1.128-1.223H384.5a1.131,1.131,0,0,1,1.127,1.039l1.915,23.571A1.132,1.132,0,0,1,386.413,647.589Z" transform="translate(-353.043 -621.545)" fill="#fff"/>
          <path id="Trazado_688780" data-name="Trazado 688780" d="M386.4,647.783H356.284a1.349,1.349,0,0,1-1.337-1.232l-1.915-23.571a1.34,1.34,0,0,1,1.336-1.45h30.115a1.349,1.349,0,0,1,1.336,1.232l1.915,23.572a1.342,1.342,0,0,1-1.336,1.449Zm-32.029-25.834a.923.923,0,0,0-.919,1l1.915,23.571a.926.926,0,0,0,.919.848H386.4a.921.921,0,0,0,.919-1L385.4,622.8a.926.926,0,0,0-.918-.848Z" transform="translate(-353.028 -621.53)"/>
        </g>
        <g id="Grupo_891914" data-name="Grupo 891914" transform="translate(12.64 30.331)">
          <path id="Trazado_688781" data-name="Trazado 688781" d="M388.648,657.278c-1.817-1.912-6.076-3.255-11.04-3.255s-9.222,1.343-11.039,3.255Z" transform="translate(-366.569 -654.023)"/>
        </g>
        <g id="Grupo_891915" data-name="Grupo 891915" transform="translate(10.643 30.331)">
          <path id="Trazado_688782" data-name="Trazado 688782" d="M386.509,657.278c-1.818-1.912-6.076-3.255-11.039-3.255s-9.223,1.343-11.04,3.255Z" transform="translate(-364.43 -654.023)" fill="#aab6c2"/>
        </g>
        <g id="Grupo_891916" data-name="Grupo 891916" transform="translate(22.682 20.28)">
          <path id="Trazado_688783" data-name="Trazado 688783" d="M384.979,646.213H377.94a.4.4,0,0,1-.4-.358l-.216-2.162a.4.4,0,0,1,.395-.438h7.039a.4.4,0,0,1,.4.358l.216,2.162A.4.4,0,0,1,384.979,646.213Z" transform="translate(-377.327 -643.255)"/>
        </g>
      </g>
    </g>
    <g id="Grupo_891923" data-name="Grupo 891923" transform="translate(376.437 572.726)">
      <g id="Grupo_891921" data-name="Grupo 891921">
        <g id="Grupo_891920" data-name="Grupo 891920">
          <path id="Trazado_688784" data-name="Trazado 688784" d="M404.421,605.167c-3.747-.634-6.216-5.441-6.325-7.983l-.01-.222-15.873-.115a2.638,2.638,0,0,1-2.614-2.654l.112-14.794a2.641,2.641,0,0,1,2.634-2.614l25.7.1a2.636,2.636,0,0,1,2.613,2.653l-.113,14.794a2.639,2.639,0,0,1-2.632,2.614l-3.961.064-.057.144C402.728,600.072,403.973,603.954,404.421,605.167Z" transform="translate(-379.366 -576.553)" fill="#fff"/>
          <g id="Grupo_891919" data-name="Grupo 891919">
            <path id="Trazado_688785" data-name="Trazado 688785" d="M382.328,576.537l.021.467,25.68.1a2.4,2.4,0,0,1,2.382,2.419l-.113,14.793a2.413,2.413,0,0,1-2.429,2.383l-3.78.061-.31,0-.115.288c-1.092,2.725-.14,6.246.383,7.787-3.606-.9-5.648-5.651-5.735-7.682l-.019-.443-.444,0L382.2,596.6a2.4,2.4,0,0,1-2.382-2.419l.113-14.794a2.4,2.4,0,0,1,2.4-2.381v-.467Zm0,0a2.866,2.866,0,0,0-2.866,2.845l-.113,14.794a2.867,2.867,0,0,0,2.845,2.888l15.652.113c.109,2.538,2.7,7.874,6.919,8.256,0,0-2.021-4.829-.667-8.207l3.779-.061h.022a2.867,2.867,0,0,0,2.866-2.846l.113-14.793a2.868,2.868,0,0,0-2.845-2.889l-25.682-.1Z" transform="translate(-379.349 -576.537)"/>
          </g>
        </g>
      </g>
      <g id="Grupo_891922" data-name="Grupo 891922" transform="translate(5.385 7.469)">
        <path id="Trazado_688786" data-name="Trazado 688786" d="M388.717,586.36a1.8,1.8,0,1,1-1.776-1.822A1.8,1.8,0,0,1,388.717,586.36Z" transform="translate(-385.118 -584.538)"/>
        <path id="Trazado_688787" data-name="Trazado 688787" d="M397.753,586.594a1.8,1.8,0,1,1-1.776-1.823A1.8,1.8,0,0,1,397.753,586.594Z" transform="translate(-385.719 -584.553)"/>
        <path id="Trazado_688788" data-name="Trazado 688788" d="M406.9,586.6a1.8,1.8,0,1,1-1.775-1.823A1.8,1.8,0,0,1,406.9,586.6Z" transform="translate(-386.327 -584.554)"/>
      </g>
    </g>
  </g>
</svg>
