<svg xmlns="http://www.w3.org/2000/svg" width="196.225" height="197.386" viewBox="0 0 196.225 197.386">
  <g id="Grupo_892021" data-name="Grupo 892021" transform="translate(-615.02 -261.059)">
    <g id="Grupo_891947" data-name="Grupo 891947" transform="translate(615.02 270.456)">
      <g id="Grupo_891926" data-name="Grupo 891926">
        <path id="Trazado_688789" data-name="Trazado 688789" d="M647.512,437.713c36.182,34.706,107.071,18.46,143.313,0s9.539-62.766,19.129-100.426c8.137-31.977-23.626-60.229-54.26-58.981-.542.022-1.086.052-1.628.092a44.39,44.39,0,0,0-14.359,3.508c-34.074,14.768-36.8,24.036-68.566,22.89C589.176,301.844,611.33,403.008,647.512,437.713Z" transform="translate(-615.02 -272.299)" fill="#e6ebf0"/>
        <g id="Grupo_891925" data-name="Grupo 891925" transform="translate(0 5.967)">
          <path id="Trazado_688790" data-name="Trazado 688790" d="M647.512,437.713c36.182,34.706,107.071,18.46,143.313,0s9.539-62.766,19.129-100.426c8.137-31.977-23.626-60.229-54.26-58.981-.542.022-1.086.052-1.628.092a44.39,44.39,0,0,0-14.359,3.508c-34.074,14.768-36.8,24.036-68.566,22.89C589.176,301.844,611.33,403.008,647.512,437.713Z" transform="translate(-615.02 -278.266)" fill="#e6ebf0"/>
        </g>
        <path id="Trazado_688791" data-name="Trazado 688791" d="M679.891,290.434a3.088,3.088,0,0,0,2.362,3.411,41.2,41.2,0,0,0,39.617-12.231C739.619,262.879,682.122,273.036,679.891,290.434Z" transform="translate(-621.968 -271.583)" fill="#e6ebf0"/>
      </g>
      <g id="Grupo_891927" data-name="Grupo 891927" transform="translate(12.337 185.811)">
        <rect id="Rectángulo_342476" data-name="Rectángulo 342476" width="169.463" height="1.287"/>
      </g>
      <g id="Grupo_891946" data-name="Grupo 891946" transform="translate(19.493 46.883)">
        <g id="Grupo_891937" data-name="Grupo 891937">
          <g id="Grupo_891930" data-name="Grupo 891930" transform="translate(0 74.943)">
            <g id="Grupo_891928" data-name="Grupo 891928" transform="translate(10.9)">
              <path id="Trazado_688792" data-name="Trazado 688792" d="M664.975,416.749H649.06v-8.72h15.915Zm-15-.913h14.09v-6.9h-14.09Z" transform="translate(-649.06 -408.029)" fill="#aab6c2"/>
            </g>
            <g id="Grupo_891929" data-name="Grupo 891929" transform="translate(0 7.808)">
              <path id="Trazado_688793" data-name="Trazado 688793" d="M652.767,425.495H636.852v-8.721h15.915Zm-15-.912h14.09v-6.9h-14.09Z" transform="translate(-636.852 -416.774)" fill="#aab6c2"/>
            </g>
          </g>
          <g id="Grupo_891931" data-name="Grupo 891931" transform="translate(50.148)">
            <path id="Trazado_688794" data-name="Trazado 688794" d="M708.932,332.814H693.018v-8.721h15.914Zm-15-.912h14.09v-6.9H693.93Z" transform="translate(-693.018 -324.093)" fill="#aab6c2"/>
          </g>
          <g id="Grupo_891932" data-name="Grupo 891932" transform="translate(133.174 87.526)">
            <path id="Trazado_688795" data-name="Trazado 688795" d="M801.921,430.842H786.007v-8.72h15.914Zm-15-.913H801.01v-6.9H786.919Z" transform="translate(-786.007 -422.122)" fill="#aab6c2"/>
          </g>
          <g id="Grupo_891936" data-name="Grupo 891936" transform="translate(63.098 96.269)">
            <g id="Grupo_891933" data-name="Grupo 891933" transform="translate(15.02)">
              <path id="Trazado_688796" data-name="Trazado 688796" d="M740.259,440.635H724.345v-8.72h15.914Zm-15-.913h14.09v-6.9h-14.09Z" transform="translate(-724.345 -431.915)" fill="#aab6c2"/>
            </g>
            <g id="Grupo_891934" data-name="Grupo 891934">
              <path id="Trazado_688797" data-name="Trazado 688797" d="M723.437,440.635H707.522v-8.72h15.915Zm-15-.913h14.09v-6.9h-14.09Z" transform="translate(-707.522 -431.915)" fill="#aab6c2"/>
            </g>
            <g id="Grupo_891935" data-name="Grupo 891935" transform="translate(7.519 7.808)">
              <path id="Trazado_688798" data-name="Trazado 688798" d="M731.858,449.38H715.943V440.66h15.915Zm-15-.912h14.09v-6.9h-14.09Z" transform="translate(-715.943 -440.66)" fill="#aab6c2"/>
            </g>
          </g>
        </g>
        <g id="Grupo_891945" data-name="Grupo 891945" transform="translate(101.197 10.243)">
          <g id="Grupo_891940" data-name="Grupo 891940" transform="translate(0 35.872)">
            <g id="Grupo_891938" data-name="Grupo 891938">
              <path id="Trazado_688799" data-name="Trazado 688799" d="M766.108,384.463H750.193v-8.721h15.915Zm-15-.913H765.2v-6.9h-14.09Z" transform="translate(-750.193 -375.742)" fill="#aab6c2"/>
            </g>
            <g id="Grupo_891939" data-name="Grupo 891939" transform="translate(10.899 7.808)">
              <path id="Trazado_688800" data-name="Trazado 688800" d="M778.315,393.207H762.4v-8.72h15.915Zm-15-.912H777.4v-6.9h-14.09Z" transform="translate(-762.4 -384.487)" fill="#aab6c2"/>
            </g>
          </g>
          <g id="Grupo_891944" data-name="Grupo 891944" transform="translate(11.575)">
            <g id="Grupo_891941" data-name="Grupo 891941" transform="translate(15.02)">
              <path id="Trazado_688801" data-name="Trazado 688801" d="M795.894,344.286H779.979v-8.721h15.915Zm-15-.913h14.09v-6.895h-14.09Z" transform="translate(-779.979 -335.565)" fill="#aab6c2"/>
            </g>
            <g id="Grupo_891942" data-name="Grupo 891942">
              <path id="Trazado_688802" data-name="Trazado 688802" d="M779.071,344.286H763.157v-8.721h15.914Zm-15-.913h14.09v-6.895h-14.09Z" transform="translate(-763.157 -335.565)" fill="#aab6c2"/>
            </g>
            <g id="Grupo_891943" data-name="Grupo 891943" transform="translate(7.519 7.808)">
              <path id="Trazado_688803" data-name="Trazado 688803" d="M787.492,353.031H771.578V344.31h15.914Zm-15-.913h14.09v-6.9H772.49Z" transform="translate(-771.578 -344.31)" fill="#aab6c2"/>
            </g>
          </g>
        </g>
      </g>
    </g>
    <g id="Grupo_891967" data-name="Grupo 891967" transform="translate(762.735 261.059)">
      <g id="Grupo_891958" data-name="Grupo 891958" transform="translate(7.855 9.466)">
        <g id="Grupo_891948" data-name="Grupo 891948">
          <path id="Trazado_688804" data-name="Trazado 688804" d="M789.259,282.821a11.242,11.242,0,1,1,19.547,7.659,13.741,13.741,0,0,0-3.881,8.928l0,.334-9.089-.066,0-.3a13.832,13.832,0,0,0-3.759-9.029A11.2,11.2,0,0,1,789.259,282.821Z" transform="translate(-789.259 -271.661)" fill="#8979f3"/>
        </g>
        <g id="Grupo_891949" data-name="Grupo 891949" transform="translate(5.536 7.166)">
          <path id="Trazado_688805" data-name="Trazado 688805" d="M798.25,292.012c-.006-.025-.569-2.478-.966-4.924a30.16,30.16,0,0,1-.385-3.218,1.921,1.921,0,0,1-.637-.3c-1.737-1.212-.127-3.7-.058-3.808a.282.282,0,0,1,.351-.033c.138.068.2.192.149.278-.428.649-1.285,2.512-.131,3.317a1.13,1.13,0,0,0,.314.161c-.026-1.533.337-1.588.549-1.62a.915.915,0,0,1,.845.269,1.2,1.2,0,0,1-.847,1.761,55.476,55.476,0,0,0,1.347,8.162c.025.109-.074.186-.221.173a.427.427,0,0,1-.11-.025A.306.306,0,0,1,798.25,292.012Zm-.568-9.76c-.188.048-.269.476-.262,1.169.453-.263.616-.932.427-1.152a.047.047,0,0,0-.024-.017A.308.308,0,0,0,797.682,282.252Z" transform="translate(-795.459 -279.687)"/>
        </g>
        <g id="Grupo_891950" data-name="Grupo 891950" transform="translate(13.501 7.24)">
          <path id="Trazado_688806" data-name="Trazado 688806" d="M804.712,292.256a.415.415,0,0,1-.109.023c-.147.011-.246-.069-.219-.177a55.313,55.313,0,0,0,1.472-8.141,1.113,1.113,0,0,1-.328-.112,1.175,1.175,0,0,1-.492-1.661.917.917,0,0,1,.85-.256c.211.035.573.1.524,1.629a1.127,1.127,0,0,0,.316-.156c1.166-.787.338-2.662-.079-3.319-.055-.086.013-.209.153-.274a.283.283,0,0,1,.351.037c.068.107,1.638,2.622-.117,3.808a1.939,1.939,0,0,1-.641.288,30.364,30.364,0,0,1-.435,3.212c-.435,2.44-1.036,4.885-1.042,4.91A.306.306,0,0,1,804.712,292.256Zm.783-9.942a.046.046,0,0,0-.024.016c-.193.216-.039.888.409,1.158.016-.693-.057-1.122-.245-1.173A.286.286,0,0,0,805.5,282.314Z" transform="translate(-804.38 -279.77)"/>
        </g>
        <g id="Grupo_891951" data-name="Grupo 891951" transform="translate(8.268 18.082)">
          <path id="Trazado_688807" data-name="Trazado 688807" d="M798.585,293.037l.273-.222a4.066,4.066,0,0,1,5.155.038l.271.226-.068,9.086-5.7-.042Zm5.165.289-.079-.065a3.53,3.53,0,0,0-4.478-.033l-.08.063-.061,8.3,4.636.034Z" transform="translate(-798.519 -291.912)"/>
        </g>
        <g id="Grupo_891952" data-name="Grupo 891952" transform="translate(5.714 27.318)">
          <path id="Trazado_688808" data-name="Trazado 688808" d="M796.348,303.646l9.42.069a.693.693,0,0,0,.7-.688h0a.694.694,0,0,0-.689-.7l-9.421-.07a.7.7,0,0,0-.7.689h0A.7.7,0,0,0,796.348,303.646Z" transform="translate(-795.658 -302.257)"/>
        </g>
        <g id="Grupo_891953" data-name="Grupo 891953" transform="translate(6.282 28.713)">
          <path id="Trazado_688809" data-name="Trazado 688809" d="M796.908,305.209l8.413.062a.66.66,0,0,0,.625-.689h0a.659.659,0,0,0-.614-.7l-8.413-.062a.661.661,0,0,0-.625.69h0A.66.66,0,0,0,796.908,305.209Z" transform="translate(-796.294 -303.82)" fill="#aab6c2"/>
        </g>
        <g id="Grupo_891954" data-name="Grupo 891954" transform="translate(6.27 30.105)">
          <path id="Trazado_688810" data-name="Trazado 688810" d="M796.9,306.768l8.414.062a.661.661,0,0,0,.625-.69h0a.66.66,0,0,0-.616-.7l-8.412-.063a.662.662,0,0,0-.626.69h0A.662.662,0,0,0,796.9,306.768Z" transform="translate(-796.281 -305.379)"/>
        </g>
        <g id="Grupo_891955" data-name="Grupo 891955" transform="translate(6.259 31.498)">
          <path id="Trazado_688811" data-name="Trazado 688811" d="M796.885,308.327l8.412.062a.66.66,0,0,0,.625-.69h0a.66.66,0,0,0-.614-.7l-8.413-.061a.659.659,0,0,0-.626.689h0A.662.662,0,0,0,796.885,308.327Z" transform="translate(-796.269 -306.939)" fill="#aab6c2"/>
        </g>
        <g id="Grupo_891956" data-name="Grupo 891956" transform="translate(6.249 32.889)">
          <path id="Trazado_688812" data-name="Trazado 688812" d="M796.872,309.886l8.413.061a.659.659,0,0,0,.625-.688h0a.66.66,0,0,0-.615-.7l-8.413-.062a.66.66,0,0,0-.625.69h0A.66.66,0,0,0,796.872,309.886Z" transform="translate(-796.258 -308.497)"/>
        </g>
        <g id="Grupo_891957" data-name="Grupo 891957" transform="translate(7.457 34.285)">
          <path id="Trazado_688813" data-name="Trazado 688813" d="M803.438,311.495l-4.449-.035a1.389,1.389,0,0,1-1.379-1.4h0l7.227.056h0A1.389,1.389,0,0,1,803.438,311.495Z" transform="translate(-797.61 -310.06)" fill="#aab6c2"/>
        </g>
      </g>
      <g id="Grupo_891966" data-name="Grupo 891966">
        <g id="Grupo_891959" data-name="Grupo 891959" transform="translate(18.42)">
          <path id="Trazado_688814" data-name="Trazado 688814" d="M801.7,267.136a.8.8,0,0,1-.611-.784l.035-4.5a.8.8,0,0,1,1.6.013l-.035,4.5a.8.8,0,0,1-.807.795A.827.827,0,0,1,801.7,267.136Z" transform="translate(-801.092 -261.059)" fill="#8979f3"/>
        </g>
        <g id="Grupo_891960" data-name="Grupo 891960" transform="translate(8.389 2.042)">
          <path id="Trazado_688815" data-name="Trazado 688815" d="M792.885,268.822a.8.8,0,0,1-.492-.356l-2.415-3.9a.8.8,0,0,1,1.362-.845l2.415,3.9a.8.8,0,0,1-.871,1.2Z" transform="translate(-789.857 -263.346)" fill="#8979f3"/>
        </g>
        <g id="Grupo_891961" data-name="Grupo 891961" transform="translate(1.456 9.958)">
          <path id="Trazado_688816" data-name="Trazado 688816" d="M786.9,275.672a.8.8,0,0,1-.139-.047l-4.2-1.878a.8.8,0,0,1,.654-1.462l4.2,1.878a.8.8,0,0,1-.515,1.51Z" transform="translate(-782.092 -272.212)" fill="#8979f3"/>
        </g>
        <g id="Grupo_891962" data-name="Grupo 891962" transform="translate(0 21.291)">
          <path id="Trazado_688817" data-name="Trazado 688817" d="M781.073,286.619a.8.8,0,0,1,.162-1.579l3.805-.136a.8.8,0,1,1,.056,1.6l-3.8.136A.811.811,0,0,1,781.073,286.619Z" transform="translate(-780.461 -284.904)" fill="#8979f3"/>
        </g>
        <g id="Grupo_891963" data-name="Grupo 891963" transform="translate(26.576 2.201)">
          <path id="Trazado_688818" data-name="Trazado 688818" d="M810.838,268.962a.775.775,0,0,1-.243-.1.8.8,0,0,1-.242-1.105l2.474-3.86a.8.8,0,1,1,1.347.864l-2.473,3.859A.8.8,0,0,1,810.838,268.962Z" transform="translate(-810.226 -263.524)" fill="#8979f3"/>
        </g>
        <g id="Grupo_891964" data-name="Grupo 891964" transform="translate(31.638 10.225)">
          <path id="Trazado_688819" data-name="Trazado 688819" d="M816.508,275.9a.8.8,0,0,1-.128-1.513l4.223-1.814a.8.8,0,1,1,.632,1.472l-4.223,1.813A.8.8,0,0,1,816.508,275.9Z" transform="translate(-815.896 -272.511)" fill="#8979f3"/>
        </g>
        <g id="Grupo_891965" data-name="Grupo 891965" transform="translate(33.337 21.519)">
          <path id="Trazado_688820" data-name="Trazado 688820" d="M818.41,286.739a.8.8,0,0,1,.23-1.578l3.8.193a.8.8,0,1,1-.081,1.6l-3.8-.193A.9.9,0,0,1,818.41,286.739Z" transform="translate(-817.799 -285.16)" fill="#8979f3"/>
        </g>
      </g>
    </g>
    <g id="Grupo_891985" data-name="Grupo 891985" transform="translate(664.654 300.459)">
      <g id="Grupo_891970" data-name="Grupo 891970" transform="translate(11.869 37.358)">
        <g id="Grupo_891968" data-name="Grupo 891968" transform="translate(39.982 0.346)">
          <path id="Trazado_688821" data-name="Trazado 688821" d="M747.443,465.381l2.677-.019-18.7-116.675a1.371,1.371,0,0,0-1.522-1.258,1.471,1.471,0,0,0-1.2,1.64Z" transform="translate(-728.684 -347.416)"/>
        </g>
        <g id="Grupo_891969" data-name="Grupo 891969">
          <path id="Trazado_688822" data-name="Trazado 688822" d="M686.506,465.707l32.459-109.326-.077,109.093,2.724-.02L721.25,348.5a1.419,1.419,0,0,0-1.085-1.446,1.379,1.379,0,0,0-1.553.886L683.9,465.726Z" transform="translate(-683.904 -347.028)"/>
        </g>
      </g>
      <g id="Grupo_891975" data-name="Grupo 891975">
        <g id="Grupo_891974" data-name="Grupo 891974">
          <path id="Trazado_688823" data-name="Trazado 688823" d="M759.329,419.077h-82.2l-6.519-113.89h82.2Z" transform="translate(-670.61 -305.187)"/>
          <g id="Grupo_891971" data-name="Grupo 891971" transform="translate(2.202)">
            <path id="Trazado_688824" data-name="Trazado 688824" d="M761.8,419.077H679.6l-6.52-113.89h82.2Z" transform="translate(-673.077 -305.187)" fill="#aab6c2"/>
          </g>
          <g id="Grupo_891973" data-name="Grupo 891973" transform="translate(4.849 2.441)">
            <g id="Grupo_891972" data-name="Grupo 891972">
              <path id="Trazado_688825" data-name="Trazado 688825" d="M683.14,416.733l-6.833-108.562h76.118l6.833,108.562Z" transform="translate(-676.07 -307.948)" fill="#fff"/>
              <path id="Trazado_688826" data-name="Trazado 688826" d="M752.187,308.367l6.805,108.116H683.321l-6.805-108.116Zm.42-.446H676.041L682.9,416.93h76.565l-6.861-109.009Z" transform="translate(-676.041 -307.921)"/>
            </g>
          </g>
        </g>
      </g>
      <g id="Grupo_891976" data-name="Grupo 891976" transform="translate(18.764 13.758)">
        <path id="Trazado_688827" data-name="Trazado 688827" d="M747.143,379.5a4.847,4.847,0,0,0,4.893-5.261l-1.576-22.528H739.216a2.206,2.206,0,0,0-.123,1.858l1.168,1.962a4.166,4.166,0,0,1,.633,1.913,3.614,3.614,0,0,1-3.654,3.928,4.07,4.07,0,0,1-.475-.028,4.349,4.349,0,0,1-3.691-3.57,3.788,3.788,0,0,1,.328-2.246l.9-1.974a2.319,2.319,0,0,0-.392-1.842H722.672l.787,11.245a2.759,2.759,0,0,0,1.273.357,1.728,1.728,0,0,0,.6-.1l1.888-1.029a3.7,3.7,0,0,1,1.878-.5,4.232,4.232,0,0,1,3.028,1.318,4.142,4.142,0,0,1,1.18,3.083,3.636,3.636,0,0,1-3.329,3.442c-.111.009-.221.013-.33.013a4.127,4.127,0,0,1-1.949-.5l-2.048-1.042a1.871,1.871,0,0,0-.6-.1,2.464,2.464,0,0,0-1.225.36l.787,11.242Z" transform="translate(-694.952 -323.93)" fill="#8979f3"/>
        <path id="Trazado_688828" data-name="Trazado 688828" d="M702.868,351.706a2.329,2.329,0,0,1,.388,1.843l-.9,1.973a3.807,3.807,0,0,0-.266,2.574,4.349,4.349,0,0,0,3.67,3.247,4.146,4.146,0,0,0,.431.022h0a3.619,3.619,0,0,0,3.654-3.928,4.17,4.17,0,0,0-.63-1.912l-1.17-1.961a2.19,2.19,0,0,1,.125-1.859h11.242l.471,6.74h0l.315,4.507a2.314,2.314,0,0,0,1.878.252l1.889-1.028a3.71,3.71,0,0,1,1.878-.5,4.283,4.283,0,0,1,4.2,3.929c0,.039,0,.081,0,.121s0,.065,0,.1v.025c0,.1.008.193,0,.29a3.4,3.4,0,0,1-1.479,2.678,3.614,3.614,0,0,1-1.859.7,4.094,4.094,0,0,1-2.28-.483L722.4,368a2.179,2.179,0,0,0-1.824.264l.126,1.807h0l.66,9.431H698.909a5.823,5.823,0,0,1-5.713-5.34l-1.57-22.452Z" transform="translate(-691.626 -323.929)"/>
        <path id="Trazado_688829" data-name="Trazado 688829" d="M710.739,334.35c0-.033,0-.065,0-.1l0-.027c0-.1-.008-.194-.006-.29a3.4,3.4,0,0,1,1.485-2.679,3.606,3.606,0,0,1,1.861-.7,4.117,4.117,0,0,1,2.283.486l2.049,1.043a2.129,2.129,0,0,0,1.8-.262l-.146-2.161h.029l-.614-9.067,22.809.052a5.416,5.416,0,0,1,5.3,4.976l1.541,22.783-11.212-.025a2.207,2.207,0,0,0-.122,1.86l1.165,1.963a4.127,4.127,0,0,1,.633,1.915,3.621,3.621,0,0,1-3.662,3.929l-.123,0c-.032,0-.065,0-.1,0l-.027,0c-.1,0-.194-.006-.292-.015a4.039,4.039,0,0,1-2.8-1.671,4.138,4.138,0,0,1-.833-1.91,3.8,3.8,0,0,1,.329-2.249l.9-1.976a2.271,2.271,0,0,0-.39-1.821l-11.251-.03-.5-7.446h0l-.255-3.786a2.31,2.31,0,0,0-1.877-.254l-1.892,1.028a3.705,3.705,0,0,1-1.88.5,4.287,4.287,0,0,1-4.2-3.937C710.742,334.432,710.742,334.391,710.739,334.35Z" transform="translate(-693.673 -320.596)" fill="#aab6c2"/>
      </g>
      <g id="Grupo_891977" data-name="Grupo 891977" transform="translate(17.264 13.867)">
        <path id="Trazado_688830" data-name="Trazado 688830" d="M705.893,357.756c-.174-.006-.26-.009-.345-.018a3.8,3.8,0,0,1-2.625-1.563,3.936,3.936,0,0,1-.792-1.8,3.568,3.568,0,0,1,.3-2.105l.9-1.969a2.523,2.523,0,0,0-.406-2.038l-.064-.1-11.086.012-1.57-22.108a4.671,4.671,0,0,1,4.712-5.078l22.109-.024.768,10.83a2.183,2.183,0,0,1-.986.267,1.586,1.586,0,0,1-.525-.089l-2.009-1.016a4.265,4.265,0,0,0-2.032-.52,4.121,4.121,0,0,0-.693.058,3.827,3.827,0,0,0-3.166,3.634,4.415,4.415,0,0,0,4.4,4.554,3.937,3.937,0,0,0,1.98-.526l1.872-1.026a1.55,1.55,0,0,1,.5-.079,2.4,2.4,0,0,1,1.049.278l.768,10.817-11.079.011-.06.124a2.382,2.382,0,0,0-.122,2.032l1.171,1.971a3.886,3.886,0,0,1,.6,1.8,3.377,3.377,0,0,1-3.409,3.674Z" transform="translate(-689.972 -320.744)" fill="#fff"/>
        <path id="Trazado_688831" data-name="Trazado 688831" d="M716.794,321.156l.744,10.479a1.869,1.869,0,0,1-.758.179,1.353,1.353,0,0,1-.428-.068l-2-1.008a4.44,4.44,0,0,0-2.869-.488,4.047,4.047,0,0,0-3.349,3.843,4.4,4.4,0,0,0,.009.473,4.706,4.706,0,0,0,4.618,4.306,4.132,4.132,0,0,0,2.076-.55l1.846-1.012a1.286,1.286,0,0,1,.425-.07,2.085,2.085,0,0,1,.839.2l.743,10.455-6.229.006-4.479,0h-.274l-.12.246a2.6,2.6,0,0,0-.127,2.215l.012.025.014.024,1.166,1.957a3.661,3.661,0,0,1,.566,1.7,3.158,3.158,0,0,1-3.191,3.44l-.105,0-.045,0h-.042l-.041,0h-.007c-.081,0-.164,0-.247-.013a3.586,3.586,0,0,1-2.478-1.486,3.677,3.677,0,0,1-.745-1.692,3.346,3.346,0,0,1,.287-1.987l.894-1.963.013-.029.009-.031a2.682,2.682,0,0,0-.443-2.187l-.129-.2h-.242l-1.8,0-8.964.009-1.554-21.9a4.45,4.45,0,0,1,4.494-4.844l21.9-.023Zm.408-.438-22.313.024a4.888,4.888,0,0,0-4.929,5.313l1.583,22.311,9.373-.01h0l1.8,0a2.318,2.318,0,0,1,.393,1.831l-.895,1.963a3.767,3.767,0,0,0-.322,2.234,4.114,4.114,0,0,0,.831,1.894,4.01,4.01,0,0,0,2.779,1.654c.1.01.193.013.289.016h.026l.1,0h0c.04,0,.08,0,.121,0h0a3.6,3.6,0,0,0,3.627-3.909,4.1,4.1,0,0,0-.633-1.9l-1.159-1.946a2.2,2.2,0,0,1,.118-1.849l4.479-.005h0l6.7-.007-.794-11.172a2.713,2.713,0,0,0-1.258-.36,1.713,1.713,0,0,0-.606.108l-1.876,1.028a3.7,3.7,0,0,1-1.865.5h0a4.257,4.257,0,0,1-4.177-3.9h0a4.251,4.251,0,0,1-.007-.427,3.607,3.607,0,0,1,2.983-3.427,3.982,3.982,0,0,1,.657-.054,4.079,4.079,0,0,1,1.933.5l2.034,1.027a1.8,1.8,0,0,0,.6.1,2.458,2.458,0,0,0,1.214-.363l-.792-11.172Z" transform="translate(-689.946 -320.718)"/>
      </g>
      <g id="Grupo_891979" data-name="Grupo 891979" transform="translate(21.055 78.663)">
        <g id="Grupo_891978" data-name="Grupo 891978" transform="translate(0 0.904)">
          <path id="Trazado_688832" data-name="Trazado 688832" d="M709.015,408.7l-10.179,4.459a58.724,58.724,0,0,1-4.645-17.762l11.057-1.1A47.575,47.575,0,0,0,709.015,408.7Z" transform="translate(-694.192 -394.303)" fill="#8979f3" fill-rule="evenodd"/>
          <path id="Trazado_688833" data-name="Trazado 688833" d="M702.508,397.272a.335.335,0,0,0,.267.08l2.326-.329a.333.333,0,0,0-.094-.66l-2.325.329a.335.335,0,0,0-.284.377A.328.328,0,0,0,702.508,397.272Z" transform="translate(-695.071 -394.523)" fill="#fff"/>
          <path id="Trazado_688834" data-name="Trazado 688834" d="M696,398.168a.333.333,0,0,0,.267.079l3.95-.56a.333.333,0,0,0-.093-.66l-3.951.561a.334.334,0,0,0-.173.579Z" transform="translate(-694.373 -394.595)" fill="#fff"/>
          <path id="Trazado_688835" data-name="Trazado 688835" d="M700.1,399.849a.332.332,0,0,0,.279.079l4.767-.86a.333.333,0,0,0-.118-.656l-4.767.86a.333.333,0,0,0-.162.578Z" transform="translate(-694.813 -394.743)" fill="#fff"/>
          <path id="Trazado_688836" data-name="Trazado 688836" d="M696.382,400.6a.327.327,0,0,0,.279.079l.976-.175a.333.333,0,1,0-.12-.654l-.974.175a.333.333,0,0,0-.269.387A.323.323,0,0,0,696.382,400.6Z" transform="translate(-694.415 -394.897)" fill="#fff"/>
          <path id="Trazado_688837" data-name="Trazado 688837" d="M703.841,401.413a.332.332,0,0,0,.293.076l1.791-.394a.333.333,0,1,0-.143-.651l-1.792.4a.332.332,0,0,0-.254.4A.336.336,0,0,0,703.841,401.413Z" transform="translate(-695.214 -394.96)" fill="#fff"/>
          <path id="Trazado_688838" data-name="Trazado 688838" d="M696.857,402.87a.33.33,0,0,0,.293.076l4.766-1.047a.333.333,0,0,0-.143-.651l-4.766,1.048a.332.332,0,0,0-.254.4A.326.326,0,0,0,696.857,402.87Z" transform="translate(-694.466 -395.046)" fill="#fff"/>
          <path id="Trazado_688839" data-name="Trazado 688839" d="M701.877,404.066a.331.331,0,0,0,.3.072l3.977-1.033a.333.333,0,1,0-.167-.644l-3.978,1.033a.333.333,0,0,0-.238.405A.33.33,0,0,0,701.877,404.066Z" transform="translate(-695.003 -395.176)" fill="#fff"/>
          <path id="Trazado_688840" data-name="Trazado 688840" d="M697.421,405.266a.329.329,0,0,0,.3.072l2.629-.683a.332.332,0,0,0-.169-.643l-2.628.682a.334.334,0,0,0-.239.405A.337.337,0,0,0,697.421,405.266Z" transform="translate(-694.526 -395.342)" fill="#fff"/>
          <path id="Trazado_688841" data-name="Trazado 688841" d="M705.788,405.322a.333.333,0,0,0,.317.07l.984-.3a.333.333,0,1,0-.193-.637l-.984.3a.334.334,0,0,0-.222.415A.348.348,0,0,0,705.788,405.322Z" transform="translate(-695.422 -395.389)" fill="#fff"/>
          <path id="Trazado_688842" data-name="Trazado 688842" d="M698.073,407.478a.332.332,0,0,0,.316.07l5.484-1.648a.332.332,0,1,0-.192-.637l-5.482,1.647a.334.334,0,0,0-.126.568Z" transform="translate(-694.596 -395.476)" fill="#fff"/>
          <path id="Trazado_688843" data-name="Trazado 688843" d="M703.042,408.368a.332.332,0,0,0,.328.065l4-1.371a.333.333,0,0,0-.215-.629l-4,1.371a.332.332,0,0,0-.207.422A.327.327,0,0,0,703.042,408.368Z" transform="translate(-695.128 -395.601)" fill="#fff"/>
          <path id="Trazado_688844" data-name="Trazado 688844" d="M698.813,409.9a.331.331,0,0,0,.329.064l1.841-.629a.333.333,0,0,0-.215-.63l-1.84.631a.33.33,0,0,0-.207.422A.321.321,0,0,0,698.813,409.9Z" transform="translate(-694.675 -395.845)" fill="#fff"/>
          <path id="Trazado_688845" data-name="Trazado 688845" d="M706.2,409.644a.332.332,0,0,0,.34.061l1.815-.7a.333.333,0,0,0-.24-.621l-1.815.7a.333.333,0,0,0-.1.561Z" transform="translate(-695.466 -395.81)" fill="#fff"/>
          <path id="Trazado_688846" data-name="Trazado 688846" d="M699.641,412.067a.338.338,0,0,0,.341.063l4.04-1.558a.333.333,0,0,0-.239-.621l-4.04,1.556a.333.333,0,0,0-.191.431A.327.327,0,0,0,699.641,412.067Z" transform="translate(-694.764 -395.977)" fill="#fff"/>
        </g>
        <path id="Trazado_688847" data-name="Trazado 688847" d="M699.764,395.594l.82-.141a.215.215,0,0,0,.178-.232l-.17-1.738a.214.214,0,0,0-.214-.194l-.834.005a.214.214,0,0,0-.212.236l.181,1.873A.215.215,0,0,0,699.764,395.594Z" transform="translate(-694.743 -393.29)"/>
      </g>
      <g id="Grupo_891981" data-name="Grupo 891981" transform="translate(42.165 89.341)">
        <g id="Grupo_891980" data-name="Grupo 891980" transform="translate(0 0.904)">
          <path id="Trazado_688848" data-name="Trazado 688848" d="M732.658,420.661l-10.178,4.458a58.658,58.658,0,0,1-4.646-17.762l11.058-1.1A47.556,47.556,0,0,0,732.658,420.661Z" transform="translate(-717.835 -406.262)" fill="#aab6c2" fill-rule="evenodd"/>
          <path id="Trazado_688849" data-name="Trazado 688849" d="M726.152,409.231a.335.335,0,0,0,.267.08l2.324-.329a.333.333,0,1,0-.092-.659l-2.327.329a.333.333,0,0,0-.172.579Z" transform="translate(-718.714 -406.482)" fill="#fff"/>
          <path id="Trazado_688850" data-name="Trazado 688850" d="M719.641,410.127a.337.337,0,0,0,.267.079l3.95-.56a.333.333,0,0,0-.093-.66l-3.95.56a.333.333,0,0,0-.283.377A.339.339,0,0,0,719.641,410.127Z" transform="translate(-718.016 -406.554)" fill="#fff"/>
          <path id="Trazado_688851" data-name="Trazado 688851" d="M723.747,411.807a.326.326,0,0,0,.279.079l4.768-.861a.333.333,0,0,0-.119-.655l-4.767.861a.333.333,0,0,0-.268.388A.324.324,0,0,0,723.747,411.807Z" transform="translate(-718.456 -406.702)" fill="#fff"/>
          <path id="Trazado_688852" data-name="Trazado 688852" d="M720.026,412.561a.325.325,0,0,0,.279.079l.976-.175a.333.333,0,1,0-.12-.655l-.973.176a.333.333,0,0,0-.27.387A.327.327,0,0,0,720.026,412.561Z" transform="translate(-718.058 -406.856)" fill="#fff"/>
          <path id="Trazado_688853" data-name="Trazado 688853" d="M727.486,413.372a.33.33,0,0,0,.291.076l1.793-.394a.333.333,0,0,0-.143-.651l-1.793.395a.333.333,0,0,0-.253.4A.318.318,0,0,0,727.486,413.372Z" transform="translate(-718.857 -406.919)" fill="#fff"/>
          <path id="Trazado_688854" data-name="Trazado 688854" d="M720.5,414.829a.33.33,0,0,0,.293.076l4.766-1.049a.333.333,0,0,0-.144-.65l-4.766,1.049a.333.333,0,0,0-.149.574Z" transform="translate(-718.109 -407.005)" fill="#fff"/>
          <path id="Trazado_688855" data-name="Trazado 688855" d="M725.52,416.025a.333.333,0,0,0,.305.072l3.977-1.033a.333.333,0,1,0-.167-.645l-3.979,1.034a.331.331,0,0,0-.237.405A.326.326,0,0,0,725.52,416.025Z" transform="translate(-718.646 -407.135)" fill="#fff"/>
          <path id="Trazado_688856" data-name="Trazado 688856" d="M721.065,417.225a.336.336,0,0,0,.3.072l2.629-.683a.333.333,0,0,0-.168-.644l-2.629.682a.332.332,0,0,0-.237.405A.328.328,0,0,0,721.065,417.225Z" transform="translate(-718.169 -407.301)" fill="#fff"/>
          <path id="Trazado_688857" data-name="Trazado 688857" d="M729.431,417.281a.333.333,0,0,0,.318.069l.983-.3a.333.333,0,1,0-.193-.637l-.983.3a.334.334,0,0,0-.125.568Z" transform="translate(-719.065 -407.348)" fill="#fff"/>
          <path id="Trazado_688858" data-name="Trazado 688858" d="M721.716,419.437a.332.332,0,0,0,.317.069l5.483-1.648a.332.332,0,1,0-.192-.636l-5.482,1.647a.331.331,0,0,0-.222.414A.335.335,0,0,0,721.716,419.437Z" transform="translate(-718.239 -407.435)" fill="#fff"/>
          <path id="Trazado_688859" data-name="Trazado 688859" d="M726.685,420.326a.331.331,0,0,0,.329.066l4-1.371a.332.332,0,0,0-.215-.629l-4,1.37a.331.331,0,0,0-.206.422A.315.315,0,0,0,726.685,420.326Z" transform="translate(-718.771 -407.56)" fill="#fff"/>
          <path id="Trazado_688860" data-name="Trazado 688860" d="M722.456,421.863a.334.334,0,0,0,.329.064l1.84-.629a.333.333,0,1,0-.215-.63l-1.84.63a.334.334,0,0,0-.208.423A.339.339,0,0,0,722.456,421.863Z" transform="translate(-718.318 -407.804)" fill="#fff"/>
          <path id="Trazado_688861" data-name="Trazado 688861" d="M729.843,421.6a.332.332,0,0,0,.34.061l1.814-.7a.332.332,0,1,0-.238-.621l-1.815.7a.333.333,0,0,0-.191.43A.329.329,0,0,0,729.843,421.6Z" transform="translate(-719.11 -407.768)" fill="#fff"/>
          <path id="Trazado_688862" data-name="Trazado 688862" d="M723.284,424.026a.336.336,0,0,0,.341.062l4.039-1.557a.333.333,0,0,0-.239-.621l-4.04,1.557a.334.334,0,0,0-.191.431A.339.339,0,0,0,723.284,424.026Z" transform="translate(-718.407 -407.936)" fill="#fff"/>
        </g>
        <path id="Trazado_688863" data-name="Trazado 688863" d="M723.407,407.553l.821-.141a.215.215,0,0,0,.177-.232l-.169-1.737a.215.215,0,0,0-.215-.194l-.834.005a.214.214,0,0,0-.212.236l.182,1.873A.214.214,0,0,0,723.407,407.553Z" transform="translate(-718.386 -405.249)"/>
      </g>
      <g id="Grupo_891984" data-name="Grupo 891984" transform="translate(59.197 75.88)">
        <g id="Grupo_891983" data-name="Grupo 891983" transform="translate(0 0.719)">
          <g id="Grupo_891982" data-name="Grupo 891982">
            <path id="Trazado_688864" data-name="Trazado 688864" d="M751.943,405.585l-10.178,4.459a58.7,58.7,0,0,1-4.646-17.762l11.057-1.1A47.583,47.583,0,0,0,751.943,405.585Z" transform="translate(-736.933 -391)" fill="#fff" fill-rule="evenodd"/>
            <path id="Trazado_688865" data-name="Trazado 688865" d="M741.656,410.247l-.069-.156a58.751,58.751,0,0,1-4.659-17.814l-.017-.171,11.4-1.128.016.17a47.365,47.365,0,0,0,3.752,14.345l.07.157Zm-4.371-17.834a58.414,58.414,0,0,0,4.547,17.384l9.864-4.322A47.669,47.669,0,0,1,748,391.351Z" transform="translate(-736.911 -390.978)"/>
          </g>
          <path id="Trazado_688866" data-name="Trazado 688866" d="M745.436,394.156a.334.334,0,0,0,.267.079l2.325-.329a.333.333,0,1,0-.093-.659l-2.326.329a.334.334,0,0,0-.283.376A.342.342,0,0,0,745.436,394.156Z" transform="translate(-737.812 -391.221)" fill="#aab6c2"/>
          <path id="Trazado_688867" data-name="Trazado 688867" d="M738.925,395.051a.329.329,0,0,0,.267.079l3.95-.559a.333.333,0,0,0-.093-.66l-3.951.561a.333.333,0,0,0-.173.579Z" transform="translate(-737.115 -391.292)" fill="#aab6c2"/>
          <path id="Trazado_688868" data-name="Trazado 688868" d="M743.031,396.732a.332.332,0,0,0,.279.079l4.767-.861a.333.333,0,1,0-.119-.655l-4.766.861a.333.333,0,0,0-.269.387A.325.325,0,0,0,743.031,396.732Z" transform="translate(-737.555 -391.44)" fill="#aab6c2"/>
          <path id="Trazado_688869" data-name="Trazado 688869" d="M739.31,397.486a.335.335,0,0,0,.279.079l.975-.176a.333.333,0,1,0-.119-.655l-.973.177a.332.332,0,0,0-.27.386A.341.341,0,0,0,739.31,397.486Z" transform="translate(-737.156 -391.594)" fill="#aab6c2"/>
          <path id="Trazado_688870" data-name="Trazado 688870" d="M746.77,398.3a.334.334,0,0,0,.292.076l1.792-.393a.333.333,0,0,0-.143-.651l-1.792.395a.332.332,0,0,0-.149.573Z" transform="translate(-737.955 -391.658)" fill="#aab6c2"/>
          <path id="Trazado_688871" data-name="Trazado 688871" d="M739.786,399.753a.334.334,0,0,0,.292.076l4.766-1.048a.333.333,0,0,0-.143-.65l-4.766,1.048a.332.332,0,0,0-.254.4A.325.325,0,0,0,739.786,399.753Z" transform="translate(-737.207 -391.744)" fill="#aab6c2"/>
          <path id="Trazado_688872" data-name="Trazado 688872" d="M744.8,400.95a.336.336,0,0,0,.305.072l3.978-1.035a.332.332,0,1,0-.168-.643l-3.978,1.033a.333.333,0,0,0-.238.405A.343.343,0,0,0,744.8,400.95Z" transform="translate(-737.745 -391.873)" fill="#aab6c2"/>
          <path id="Trazado_688873" data-name="Trazado 688873" d="M740.349,402.149a.331.331,0,0,0,.3.072l2.629-.683a.332.332,0,1,0-.168-.643l-2.628.682a.332.332,0,0,0-.239.405A.349.349,0,0,0,740.349,402.149Z" transform="translate(-737.267 -392.039)" fill="#aab6c2"/>
          <path id="Trazado_688874" data-name="Trazado 688874" d="M748.715,402.2a.336.336,0,0,0,.318.07l.984-.3a.332.332,0,0,0-.192-.637l-.985.3a.332.332,0,0,0-.221.415A.338.338,0,0,0,748.715,402.2Z" transform="translate(-738.164 -392.087)" fill="#aab6c2"/>
          <path id="Trazado_688875" data-name="Trazado 688875" d="M741,404.362a.334.334,0,0,0,.316.069l5.484-1.648a.333.333,0,0,0-.192-.637l-5.483,1.648a.334.334,0,0,0-.222.415A.341.341,0,0,0,741,404.362Z" transform="translate(-737.337 -392.173)" fill="#aab6c2"/>
          <path id="Trazado_688876" data-name="Trazado 688876" d="M745.969,405.251a.334.334,0,0,0,.329.065l4-1.371a.333.333,0,0,0-.215-.629l-4,1.371a.333.333,0,0,0-.206.422A.327.327,0,0,0,745.969,405.251Z" transform="translate(-737.869 -392.298)" fill="#aab6c2"/>
          <path id="Trazado_688877" data-name="Trazado 688877" d="M741.741,406.787a.333.333,0,0,0,.329.065l1.841-.629a.333.333,0,0,0-.216-.63l-1.839.63a.334.334,0,0,0-.114.564Z" transform="translate(-737.417 -392.542)" fill="#aab6c2"/>
          <path id="Trazado_688878" data-name="Trazado 688878" d="M749.127,406.527a.329.329,0,0,0,.339.061l1.816-.7a.333.333,0,1,0-.24-.621l-1.815.7a.332.332,0,0,0-.19.429A.327.327,0,0,0,749.127,406.527Z" transform="translate(-738.208 -392.507)" fill="#aab6c2"/>
          <path id="Trazado_688879" data-name="Trazado 688879" d="M742.569,408.95a.332.332,0,0,0,.341.062l4.04-1.557a.332.332,0,0,0-.238-.621l-4.042,1.557a.331.331,0,0,0-.1.559Z" transform="translate(-737.505 -392.675)" fill="#aab6c2"/>
        </g>
        <path id="Trazado_688880" data-name="Trazado 688880" d="M742.692,392.478l.821-.141a.214.214,0,0,0,.177-.232l-.169-1.738a.214.214,0,0,0-.214-.194l-.834.006a.213.213,0,0,0-.212.234l.182,1.874A.214.214,0,0,0,742.692,392.478Z" transform="translate(-737.484 -390.173)"/>
      </g>
    </g>
    <g id="Grupo_892002" data-name="Grupo 892002" transform="translate(629.681 313.543)">
      <g id="Grupo_891987" data-name="Grupo 891987" transform="translate(25.603 132.741)">
        <g id="Grupo_891986" data-name="Grupo 891986">
          <path id="Trazado_688881" data-name="Trazado 688881" d="M662.853,474.421a4.962,4.962,0,0,1-2.187-.329c-.571-.557-.234-4.18-.138-4.746.089-.546,3.732-.611,3.769-.611,1.287,0,1.592.175,1.713.328.539.675.165,4.446.161,4.483C666.085,474.335,663.821,474.421,662.853,474.421Z" transform="translate(-660.141 -468.536)" fill="#fff"/>
          <path id="Trazado_688882" data-name="Trazado 688882" d="M664.272,468.912a2.779,2.779,0,0,1,1.558.252c.414.519.2,3.619.118,4.337-.054.49-1.695.7-3.12.7a4.775,4.775,0,0,1-2.047-.271c-.444-.433-.223-3.714-.08-4.57a10.845,10.845,0,0,1,3.571-.444Zm0-.4c-.393,0-3.84.021-3.966.779-.006.039-.532,4.211.2,4.921a4.108,4.108,0,0,0,2.327.385c1.553,0,3.422-.183,3.518-1.054,0-.038.4-3.87-.2-4.629-.166-.209-.509-.4-1.87-.4Z" transform="translate(-660.117 -468.512)"/>
        </g>
      </g>
      <g id="Grupo_891988" data-name="Grupo 891988" transform="translate(24.773 137.154)">
        <path id="Trazado_688883" data-name="Trazado 688883" d="M660.353,473.454s-2.149,3.075-.612,5.491c0,0,11.2.527,14.582,0,0,0,.088-4.129-2.811-4.48a42.544,42.544,0,0,0-5.8-.249S662.459,475.739,660.353,473.454Z" transform="translate(-659.187 -473.454)"/>
      </g>
      <g id="Grupo_891990" data-name="Grupo 891990" transform="translate(0.83 132.741)">
        <g id="Grupo_891989" data-name="Grupo 891989">
          <path id="Trazado_688884" data-name="Trazado 688884" d="M635.106,474.421a4.966,4.966,0,0,1-2.187-.329c-.571-.557-.232-4.18-.138-4.746.089-.546,3.732-.611,3.769-.611,1.287,0,1.592.175,1.712.328.54.674.166,4.446.162,4.483C638.338,474.335,636.075,474.421,635.106,474.421Z" transform="translate(-632.395 -468.536)" fill="#fff"/>
          <path id="Trazado_688885" data-name="Trazado 688885" d="M636.526,468.912a2.777,2.777,0,0,1,1.557.252c.415.519.2,3.619.119,4.337-.054.49-1.7.7-3.12.7a4.772,4.772,0,0,1-2.047-.271c-.444-.433-.223-3.714-.08-4.57a10.844,10.844,0,0,1,3.571-.444Zm0-.4c-.393,0-3.841.021-3.966.779-.006.039-.532,4.211.2,4.921a4.107,4.107,0,0,0,2.327.385c1.552,0,3.422-.183,3.518-1.054,0-.038.4-3.87-.2-4.629-.166-.209-.509-.4-1.87-.4Z" transform="translate(-632.371 -468.512)"/>
        </g>
      </g>
      <g id="Grupo_891991" data-name="Grupo 891991" transform="translate(0 137.154)">
        <path id="Trazado_688886" data-name="Trazado 688886" d="M632.607,473.454s-2.149,3.075-.613,5.491c0,0,11.2.527,14.583,0,0,0,.088-4.129-2.811-4.48a42.542,42.542,0,0,0-5.8-.249S634.713,475.739,632.607,473.454Z" transform="translate(-631.441 -473.454)"/>
      </g>
      <g id="Grupo_891992" data-name="Grupo 891992" transform="translate(17.338 56.759)">
        <path id="Trazado_688887" data-name="Trazado 688887" d="M671.786,422.276c0,10.013-3.787,31.078-6.33,40.16h-6.588c-.032-.053-.078-10.449-.066-14.475,0-7.285-1.974-19.264-2.5-25.853-.284-3.543-.179-12.366-2.456-18.216-.421-1.087-.822-2.13-1.191-3.121-1.338-3.626-2.193-6.44-1.6-7.115,1.624-1.846,15.592-15.529,19.091-8C673.82,393.57,671.786,412.261,671.786,422.276Z" transform="translate(-650.86 -383.411)"/>
      </g>
      <g id="Grupo_891993" data-name="Grupo 891993" transform="translate(19.13 71.05)">
        <path id="Trazado_688888" data-name="Trazado 688888" d="M661.333,441.67c-.074-3.722.432-7.421.326-11.143a52.9,52.9,0,0,0-1.37-9.436,54.715,54.715,0,0,1-1.54-10.995c-.01-2.646,1.119-5.755.57-8.329a2.706,2.706,0,0,0-2.741-2.35c-1.835.042-2.931,1.571-3.712,3.067.369.991,2.506,20.168,5.643,45.346a82.424,82.424,0,0,1,.572,16.32c.659,0,1.6.095,3.372,0C663.941,457.615,661.47,448.173,661.333,441.67Z" transform="translate(-652.867 -399.417)"/>
      </g>
      <g id="Grupo_891994" data-name="Grupo 891994" transform="translate(0.771 56.537)">
        <path id="Trazado_688889" data-name="Trazado 688889" d="M653.225,390.782s-.01.348-.021,1a58.945,58.945,0,0,1-.928,6.737c-.231,1.339-.415,7.181-.689,8.785-1.148,6.482-2.716,10.486-3.675,18.994-1.129,9.951-6.452,25.853-9.087,36.461H632.3s1.4-15.529,2.239-18.448c1.022-3.572-1.5-8.251-1.473-12.584.031-3.079-.063-6.125-.106-8.8-.01-.9-.021-1.771-.021-2.646.085-14.009-.78-19.861,3.595-30.475.063-.17.126-.338.2-.507a42.778,42.778,0,0,1,2.773-5.418c.357-.591,1.18-.812,2.309-.675,2.72.316,7.168,2.731,10.858,6.937C652.867,390.35,653.046,390.56,653.225,390.782Z" transform="translate(-632.304 -383.163)"/>
      </g>
      <g id="Grupo_891996" data-name="Grupo 891996" transform="translate(0.667 63.172)">
        <g id="Grupo_891995" data-name="Grupo 891995">
          <path id="Trazado_688890" data-name="Trazado 688890" d="M640.2,391.535a7.166,7.166,0,0,0-3.679-.937c-4.375,10.614-3.51,16.466-3.595,30.475,0,.875.011,1.75.021,2.646.064,2.857.2,5.819.106,8.8-.085,3.172-.04,12.3-.305,15.549-.463,5.655-.721,13.76-.461,15.483h3.24c1.538-5.3,1.763-11.645,2.786-17.064,1.034-5.471.6-11.227.38-16.75a90.28,90.28,0,0,0-.854-9.689,89.352,89.352,0,0,1-1.338-9.4,40.594,40.594,0,0,1,3.721-17.912.413.413,0,0,0,0-.4A.457.457,0,0,0,640.2,391.535Z" transform="translate(-632.188 -390.594)"/>
        </g>
      </g>
      <g id="Grupo_892001" data-name="Grupo 892001" transform="translate(3.47)">
        <path id="Trazado_688891" data-name="Trazado 688891" d="M666.453,340.625s8.018,6.225,13.088,22.82l-13.088,2.961-.134-16.471Z" transform="translate(-638.648 -322.068)"/>
        <path id="Trazado_688892" data-name="Trazado 688892" d="M671.232,386.843c-.158.5-8.471,1.449-12.557,1.887-7.687.824-18.238-1.432-21.127-1.98-1.18-.221-1.94-.537-2.12-.917-.558-1.2,1.371-12.9,1.139-20.683-.043-1.507-.073-3.036-.073-4.533-.042-7.821.505-15.148,2.276-16.508.4-.316.864-.643,1.381-.992.443-.3.918-.612,1.445-.916.39-.232.8-.464,1.233-.686a25.13,25.13,0,0,1,5.512-2.129,22.863,22.863,0,0,1,11.006-.169.01.01,0,0,0,.011.01,22.5,22.5,0,0,1,3.037.906c.243.084.484.18.737.275,3.458,1.391,2.962,8.918,2.4,15.233a60.856,60.856,0,0,0-.412,7.262,15.067,15.067,0,0,0,.211,1.666C666.116,369.219,670.653,383.459,671.232,386.843Z" transform="translate(-635.327 -321.854)" fill="#8979f3"/>
        <g id="Grupo_891997" data-name="Grupo 891997" transform="translate(16.292 11.119)">
          <path id="Trazado_688893" data-name="Trazado 688893" d="M657.847,339.957c-1.758,0-3.883-1.637-3.972-1.707l-.077-.061V332.63l4.693,1.945v3.464c.115.221.512,1.051.286,1.537a.6.6,0,0,1-.446.336A2.456,2.456,0,0,1,657.847,339.957Z" transform="translate(-653.598 -332.33)" fill="#fff"/>
          <path id="Trazado_688894" data-name="Trazado 688894" d="M653.974,332.893l4.293,1.779v3.38s.8,1.466,0,1.627a2.27,2.27,0,0,1-.444.042c-1.71,0-3.849-1.665-3.849-1.665v-5.162Zm-.4-.6v5.957l.154.12c.092.071,2.269,1.75,4.095,1.75a2.6,2.6,0,0,0,.522-.05.8.8,0,0,0,.588-.447,2.2,2.2,0,0,0-.267-1.67V334.4l-.246-.1-4.294-1.779-.553-.229Z" transform="translate(-653.574 -332.294)"/>
        </g>
        <g id="Grupo_891998" data-name="Grupo 891998" transform="translate(14.36 4.329)">
          <path id="Trazado_688895" data-name="Trazado 688895" d="M657.725,334.967a4.7,4.7,0,0,1-2.8-.987c-3.553-2.608-3.281-7.343-3.279-7.39l.01-.152,7.229-1.5.075.113a23.993,23.993,0,0,1,2.751,5.962,2.715,2.715,0,0,1-.623,2.29A4.281,4.281,0,0,1,657.725,334.967Z" transform="translate(-651.434 -324.717)" fill="#fff"/>
          <path id="Trazado_688896" data-name="Trazado 688896" d="M658.765,325.136a23.517,23.517,0,0,1,2.726,5.9c.4,1.528-1.407,3.7-3.79,3.7a4.5,4.5,0,0,1-2.685-.948c-3.506-2.573-3.2-7.215-3.2-7.215l6.947-1.439Zm.185-.446-.264.054-6.949,1.439-.3.062-.02.3c-.013.2-.28,4.892,3.362,7.564a4.886,4.886,0,0,0,2.92,1.027,4.48,4.48,0,0,0,3.518-1.74,2.912,2.912,0,0,0,.66-2.462,23.725,23.725,0,0,0-2.779-6.021l-.15-.226Z" transform="translate(-651.41 -324.69)"/>
        </g>
        <path id="Trazado_688897" data-name="Trazado 688897" d="M649.53,329.254c-.542,1.019.647,1.661,1.8,1.8a1.153,1.153,0,0,0,.186.25c.007,1.176.872,2.275,2.028,1.373,1.705,1.354,3.78,2.455,6.218,1.354a3.143,3.143,0,0,0,1.583-3.09c-.366-1.117-2.051.14-2.776-.522a.563.563,0,0,0-.77.03,1.907,1.907,0,0,1-2.178.895,3.967,3.967,0,0,1-1.512-.68,18.415,18.415,0,0,0-.9-2.359c-.067-.2-.314-1.062-.541-1.76,2.732-.379,6.337-1.043,7.466-3.437,1.005-2.134-.705-3.226-2.539-2.946a1.9,1.9,0,0,0-2.746.688c-.652-.288-1.42-.487-1.923.049a1,1,0,0,0-.285.779,1.187,1.187,0,0,0-.679.143,1.707,1.707,0,0,0-.748.785c-.83-.274-1.772.861-1.516,1.9a1.518,1.518,0,0,0-.321,2.042A1.665,1.665,0,0,0,649.53,329.254Z" transform="translate(-636.766 -319.841)"/>
        <path id="Trazado_688898" data-name="Trazado 688898" d="M666.523,373.347s11.8,1.308,13.064-1.874c1.186-2.979-.091-6.634-1.621-10.72-1.18-3.16-11.056,6.381-11.056,6.381Z" transform="translate(-638.669 -324.156)"/>
        <path id="Trazado_688899" data-name="Trazado 688899" d="M657.483,364.846c-.77.886-.706,6.283-1.9,6.379-6.642.558-9.9-6.62-10.511-5.957a9.472,9.472,0,0,0-.389,2.34,85.277,85.277,0,0,1-2.3,9.688c-.094.306-4.491,8.781-4.838,9.845-1.18-.221-1.94-.537-2.12-.917-.558-1.2,1.371-12.9,1.139-20.683-.043-1.507-.073-3.036-.073-4.533-.042-7.821.529-13.205,1.838-16.015a6.629,6.629,0,0,1,1.819-1.485c.443-.3.918-.612,1.445-.916,3.721-1.138,8.643,1.033,10.7,4.09,1.434,2.119,9.33,13.314,9.435,13.641C662.49,362.674,658.97,363.17,657.483,364.846Z" transform="translate(-635.327 -322.246)"/>
        <g id="Grupo_891999" data-name="Grupo 891999" transform="translate(19.025 11.581)">
          <path id="Trazado_688900" data-name="Trazado 688900" d="M661.961,341.169c-1.1,0-2.17-1.272-2.748-1.955l-.083-.1a4.377,4.377,0,0,1-2-.783.741.741,0,0,1-.237-.729.474.474,0,0,1,.471-.276h0a1.51,1.51,0,0,1,.457.077,4.308,4.308,0,0,1-.346-3.191c.146-.462.388-.726.66-.726a.428.428,0,0,1,.322.157c.062-.3.185-.554.427-.6l.112-.011c.615,0,.674.892.721,1.608l0,.038c.012-.074.022-.146.031-.206a2.147,2.147,0,0,1,.176-.746c.109-.167.281-.388.522-.388.479,0,.628.833.771,1.637.025.137.053.293.078.407.024-.1.051-.269.068-.38.063-.387.132-.827.5-.827a.584.584,0,0,1,.367.163c.421.347.391,1.223.362,2.07a4.308,4.308,0,0,0,.032,1.024c.031.1.091.246.163.429.433,1.093.8,2.11.482,2.543a1.6,1.6,0,0,1-1.305.762Z" transform="translate(-656.658 -332.836)" fill="#fff"/>
          <path id="Trazado_688901" data-name="Trazado 688901" d="M658.971,333.212c.575,0,.469,1.381.578,2.018.044.056.082.082.116.082.238,0,.248-1.26.4-1.5.138-.211.255-.3.354-.3.487,0,.581,2.061.746,2.125a.224.224,0,0,0,.079.016c.377,0,.2-1.3.589-1.3a.407.407,0,0,1,.239.117c.554.457.144,2.419.332,3,.154.479,1.02,2.314.672,2.792a1.4,1.4,0,0,1-1.142.679c-1.087,0-2.207-1.432-2.722-2.033a4.864,4.864,0,0,1-1.971-.741c-.226-.234-.368-.647.1-.665h.03a1.842,1.842,0,0,1,.81.269c.027.014.058.024.087.038a4.3,4.3,0,0,1-.63-3.559c.124-.392.309-.587.47-.587s.286.179.322.536a7.808,7.808,0,0,0,.205,1.375,4.719,4.719,0,0,0-.047-.977c-.037-.423-.008-1.321.3-1.379a.372.372,0,0,1,.075-.007Zm0-.4a.79.79,0,0,0-.148.013.7.7,0,0,0-.505.476.606.606,0,0,0-.206-.037c-.172,0-.6.085-.851.865a4.4,4.4,0,0,0,.193,2.977l-.078,0h-.047a.67.67,0,0,0-.648.4.935.935,0,0,0,.279.942,4.3,4.3,0,0,0,2.039.825l.038.045c.6.709,1.711,2.028,2.9,2.028a1.792,1.792,0,0,0,1.467-.846c.374-.516.013-1.544-.458-2.734-.071-.178-.129-.323-.159-.415a4.389,4.389,0,0,1-.022-.956c.029-.9.061-1.821-.435-2.231a.773.773,0,0,0-.495-.209.577.577,0,0,0-.551.407c-.143-.675-.353-1.245-.863-1.246h0a.873.873,0,0,0-.667.446c-.114-.421-.333-.749-.785-.749Z" transform="translate(-656.635 -332.812)"/>
        </g>
        <path id="Trazado_688902" data-name="Trazado 688902" d="M665.279,371.111c8.993-2.037-3.548-30.833-3.548-30.833l-3.021,1.388c-.178.284,4.93,20.554,2.528,19.762-1.052-.344-8.586-13.7-13.174-16.612a11.48,11.48,0,0,0-6.564-1.694c-2.638.041-3.938,2.613-3.514,5.216.858,5.274,4.756,12.72,9.9,18.073C653.544,372.3,657.521,372.874,665.279,371.111Z" transform="translate(-635.603 -322.031)" fill="#8979f3"/>
        <g id="Grupo_892000" data-name="Grupo 892000" transform="translate(22.949 45.709)">
          <path id="Trazado_688903" data-name="Trazado 688903" d="M662.428,375.9a1.163,1.163,0,0,1-.84-.37,1.246,1.246,0,0,1-.332-.94c.023-.382.243-.91.659-.973a1.866,1.866,0,0,1,0-.392c.046-.428.3-1.063.824-1.063a.728.728,0,0,1,.346.095,1.428,1.428,0,0,1,.329.248,1.357,1.357,0,0,1,.594-.7.968.968,0,0,1,.494-.153.791.791,0,0,1,.608.312c.132-.456.371-.7.7-.7a.769.769,0,0,1,.339.086,2.3,2.3,0,0,1,.814.888l.077.119a4.254,4.254,0,0,1,.726,1.787,1.119,1.119,0,0,1-.973,1.123.892.892,0,0,1-.507-.17c-.031-.022-.063-.046-.095-.07a.851.851,0,0,1-.571.786.931.931,0,0,1-.324.059,1.36,1.36,0,0,1-.955-.49.768.768,0,0,1-.575.453h-.011a.951.951,0,0,1-.583-.2,1.172,1.172,0,0,1-.739.271Z" transform="translate(-661.054 -371.059)" fill="#fff"/>
          <path id="Trazado_688904" data-name="Trazado 688904" d="M665.783,371.435a.579.579,0,0,1,.253.065,2.588,2.588,0,0,1,.811.937,4.037,4.037,0,0,1,.692,1.667c-.028.463-.349.935-.772.935a.7.7,0,0,1-.395-.135,2.77,2.77,0,0,1-.437-.387c.088.479.033.917-.412,1.08a.717.717,0,0,1-.254.046,1.416,1.416,0,0,1-1-.651.324.324,0,0,1-.008.034c-.108.235-.246.546-.543.58a.278.278,0,0,1-.048,0,.9.9,0,0,1-.575-.321.208.208,0,0,1-.062.151.98.98,0,0,1-.624.233,1.007,1.007,0,0,1-.973-1.1c.019-.284.193-.792.546-.792l.033,0a.346.346,0,0,1,.125.038,1.746,1.746,0,0,1-.045-.6c.037-.362.246-.885.624-.885a.518.518,0,0,1,.25.07,1.522,1.522,0,0,1,.528.515,1.2,1.2,0,0,1,.592-.973.771.771,0,0,1,.392-.124c.336,0,.554.316.711.681.039-.446.18-1.071.6-1.071Zm0-.4h0a.848.848,0,0,0-.782.556.9.9,0,0,0-.525-.166,1.176,1.176,0,0,0-.6.179,1.577,1.577,0,0,0-.56.554,1.7,1.7,0,0,0-.166-.1.918.918,0,0,0-.44-.119c-.586,0-.958.625-1.022,1.244a2.155,2.155,0,0,0-.011.262,1.317,1.317,0,0,0-.648,1.109,1.443,1.443,0,0,0,.387,1.09,1.362,1.362,0,0,0,.985.433,1.348,1.348,0,0,0,.742-.226.987.987,0,0,0,.52.161c.032,0,.063,0,.093,0a.872.872,0,0,0,.593-.341,1.416,1.416,0,0,0,.917.379,1.126,1.126,0,0,0,.393-.071.715.715,0,0,1,1.1-.534,1.319,1.319,0,0,0,1.172-1.311,4.549,4.549,0,0,0-.758-1.91l-.074-.116a2.48,2.48,0,0,0-.9-.963.993.993,0,0,0-.426-.1Z" transform="translate(-661.03 -371.035)"/>
        </g>
      </g>
    </g>
    <g id="Grupo_892020" data-name="Grupo 892020" transform="translate(713.937 318.061)">
      <g id="Grupo_892003" data-name="Grupo 892003" transform="translate(42.106 54.274)">
        <path id="Trazado_688905" data-name="Trazado 688905" d="M778.189,465.228h4.423s1.186-10.486,1.148-16.244c-.028-7.17,2.78-17.263,3.245-24.306.047-.59.086-1.137.122-1.643.257-3.537,2.768-10.348,4.815-16.191.294-.852.588-1.683.853-2.472,1.328-3.927,2.22-7.044,1.66-7.749-1.46-1.842-9.687-15.274-14.645-9.074-5.667,7.105-6.606,25.655-6.606,35.655S777.308,453.067,778.189,465.228Z" transform="translate(-772.992 -385.714)" fill="#fff"/>
        <path id="Trazado_688906" data-name="Trazado 688906" d="M782.777,465.415h-4.811l-.014-.2c-.388-5.349-1.417-12.308-2.412-19.037-1.265-8.551-2.573-17.392-2.573-23,0-8.253.647-28.26,6.653-35.787a4.023,4.023,0,0,1,3.313-1.7c4.147.127,8.88,6.847,10.9,9.718.333.473.6.847.762,1.058.537.676.081,2.9-1.624,7.949-.176.527-.366,1.071-.56,1.63l-.921,2.63c-1.85,5.248-3.947,11.2-4.177,14.352l-.02.273c-.031.429-.064.885-.1,1.371a102.355,102.355,0,0,1-1.523,10.513c-.854,4.8-1.736,9.762-1.72,13.775.037,5.7-1.138,16.163-1.15,16.269Zm-4.414-.425H782.4c.159-1.444,1.161-10.774,1.127-16.029-.016-4.054.87-9.035,1.727-13.852a102.671,102.671,0,0,0,1.518-10.47c.039-.487.071-.944.1-1.371l.02-.273c.233-3.211,2.25-8.93,4.2-14.462l.92-2.629c.194-.556.383-1.1.559-1.625.628-1.857,2.3-6.792,1.695-7.548-.174-.22-.44-.6-.778-1.078-1.984-2.819-6.632-9.418-10.567-9.537-.034,0-.069,0-.1,0a3.616,3.616,0,0,0-2.862,1.544c-5.921,7.422-6.561,27.313-6.561,35.521,0,5.58,1.306,14.406,2.569,22.942C776.945,452.774,777.961,459.652,778.362,464.99Z" transform="translate(-772.966 -385.689)"/>
      </g>
      <path id="Trazado_688907" data-name="Trazado 688907" d="M781.345,467.008l2.133.129s1.387-8.08,2.254-17.033c.692-7.137,1.588-16.474,2.138-23.517.047-.59.086-1.137.122-1.643.257-3.537,2.768-10.348,4.815-16.191.294-.852.588-1.683.853-2.472-.046-.043-.1-.074-.151-.117a.425.425,0,0,0-.454-.042c-1.271-1.884-4.01-3.727-5.46-.989-.816,1.537.113,3.348.2,4.938.18,3.211-1.649,6.095-2.776,8.906-4.02,10.021-.759,21.074-1.859,31.549C782.591,456.01,780.957,461.407,781.345,467.008Z" transform="translate(-731.752 -333.349)"/>
      <g id="Grupo_892004" data-name="Grupo 892004" transform="translate(59.324 54.485)">
        <path id="Trazado_688908" data-name="Trazado 688908" d="M796.359,430.313c1.015,9.938,18.522,27.672,23.221,34.253,0,0,3.026-2.812,2.855-3.329-1.1-3.315-4.751-9.025-6.528-15.408-3.173-11.392-6.061-14.926-6.09-21.527-.065-13.284,2.978-19.917-.018-29.654-.209-.684-.446-1.369-.711-2.084-.636-1.686-3.337-4.432-4.379-6.369-.152-.274-9,1.22-12.209,5.043C792.16,391.637,794.785,414.881,796.359,430.313Z" transform="translate(-792.274 -385.95)" fill="#fff"/>
        <path id="Trazado_688909" data-name="Trazado 688909" d="M819.524,464.86l-.141-.2c-1.191-1.668-3.228-4.077-5.585-6.867-7.137-8.446-16.912-20.013-17.675-27.487h0c-.46-4.505-1.008-9.677-1.547-14.751-2.106-19.847-2.508-24.195-2.261-24.486,3.091-3.675,11.2-5.254,12.305-5.143a.3.3,0,0,1,.253.137A23.925,23.925,0,0,0,806.948,389a16.45,16.45,0,0,1,2.317,3.465c.287.774.521,1.46.714,2.1,1.891,6.144,1.4,11,.777,17.137a112.2,112.2,0,0,0-.749,12.578c.017,3.949,1.045,6.729,2.6,10.937.99,2.679,2.222,6.012,3.481,10.534a62.285,62.285,0,0,0,4.369,10.588,43.655,43.655,0,0,1,2.157,4.811c.176.535-1.487,2.226-2.913,3.55Zm-22.978-34.595c.75,7.342,10.476,18.852,17.577,27.255,2.273,2.689,4.248,5.026,5.464,6.7a13.154,13.154,0,0,0,2.619-2.959,44.1,44.1,0,0,0-2.132-4.737,62.781,62.781,0,0,1-4.4-10.662c-1.254-4.5-2.484-7.83-3.471-10.5-1.514-4.1-2.608-7.058-2.626-11.082a113.025,113.025,0,0,1,.751-12.622c.617-6.094,1.105-10.908-.76-16.971-.192-.629-.422-1.307-.707-2.072a16.534,16.534,0,0,0-2.253-3.353,25.176,25.176,0,0,1-2.07-2.91H804.5c-1.05,0-8.809,1.412-11.837,4.969-.14.9,1.118,12.744,2.333,24.2.539,5.075,1.087,10.246,1.546,14.752Z" transform="translate(-792.251 -385.925)"/>
      </g>
      <path id="Trazado_688910" data-name="Trazado 688910" d="M809.594,420.647c-.048.673-.087,1.347-.1,2.021-.105,6.558,1.934,12.012,4.587,17.749,2.673,5.779,8.053,22.73,8.934,23.53.664-.748,1.053-1.079,1.229-1.692-1.1-3.315-12.588-30.334-12.618-36.935-.065-13.284,2.978-19.917-.018-29.654-1.195,1.4-1.546,4.812-1.7,6.169A100.534,100.534,0,0,0,809.594,420.647Z" transform="translate(-734.753 -332.483)"/>
      <path id="Trazado_688911" data-name="Trazado 688911" d="M781.63,380.231s-11.945,16.5-12.42,33.472a31.558,31.558,0,0,0,19.313,6.579s3.505-11.661,3.529-15.173-.825-21.713-.825-21.713Z" transform="translate(-730.458 -330.829)"/>
      <path id="Trazado_688912" data-name="Trazado 688912" d="M803.661,380.742s6.614,7.511,8.595,15.293c1.19,4.683.948,24.3.948,24.3s-11.375,1.621-19.549-.747c0,0-1.223-22.256-1.087-26.985S803.661,380.742,803.661,380.742Z" transform="translate(-732.959 -330.884)"/>
      <g id="Grupo_892005" data-name="Grupo 892005" transform="translate(25.48 35.334)">
        <path id="Trazado_688913" data-name="Trazado 688913" d="M771.943,384.321c5.68.524,11.368-5.468,13.843-8.867a11.532,11.532,0,0,0,1.229-1.985c.73-1.837-1.055-11.75-6.129-7.863a18.153,18.153,0,0,0-2.437,3.447c-.475.8-.967,1.621-1.413,2.382A26.326,26.326,0,0,1,774,375.49c-1.094.292-17.737,5.545-18.049,5.588a16.832,16.832,0,0,1-1.332,2.82C754.547,384,771.772,384.306,771.943,384.321Z" transform="translate(-754.375 -364.501)" fill="#fff"/>
        <path id="Trazado_688914" data-name="Trazado 688914" d="M772.6,384.539c-.234,0-.465-.011-.7-.031-.085,0-1.178-.026-2.684-.055-14.72-.293-14.728-.307-14.813-.486l-.056-.119.08-.1a15.77,15.77,0,0,0,1.3-2.765l.044-.118.125-.018c.233-.048,4.874-1.5,8.97-2.779,4.379-1.369,8.514-2.661,9.054-2.805a31.788,31.788,0,0,0,2.9-3.958c.342-.584.712-1.205,1.08-1.822l.333-.56a18.188,18.188,0,0,1,2.49-3.506c1.823-1.4,3.151-.975,3.945-.375,2.324,1.758,3.06,7.106,2.513,8.484a11.725,11.725,0,0,1-1.255,2.032C782.848,379.785,777.59,384.539,772.6,384.539Zm-17.624-.847c1.81.088,10.391.258,14.251.334,2.011.04,2.664.054,2.709.057h0c5.041.453,10.491-4.44,13.652-8.78a11.273,11.273,0,0,0,1.2-1.939c.5-1.259-.23-6.364-2.375-7.986-.983-.744-2.135-.62-3.427.371a18.685,18.685,0,0,0-2.386,3.39l-.331.557c-.369.617-.738,1.237-1.079,1.821a24.047,24.047,0,0,1-3.158,4.152c-.535.143-4.859,1.494-9.041,2.8-5.417,1.693-8.271,2.583-8.907,2.762A20.721,20.721,0,0,1,754.972,383.692Z" transform="translate(-754.345 -364.476)"/>
      </g>
      <path id="Trazado_688915" data-name="Trazado 688915" d="M791.492,363.934c1.141,2-1.259,7.514-1.483,10.995-3.588.638-7.427-1.946-10.538-6.8.691-6.129,5.155-11.126,8.745-13.745C791.325,352.114,790.514,362.215,791.492,363.934Z" transform="translate(-731.557 -328.024)" fill="#aab6c2"/>
      <path id="Trazado_688916" data-name="Trazado 688916" d="M783.631,365.1s1,4.912-.664,8.089c0,0,1.721,1.942,2.726,2.11s1.337-8.556,1.337-8.556Z" transform="translate(-731.932 -329.208)"/>
      <path id="Trazado_688917" data-name="Trazado 688917" d="M776.6,385.036s21.3,7.884,33.012,1.316c0,0-7.421-7.432-7.115-15.276.009-.346.041-.693.083-1.041.085-.685.212-1.39.359-2.117,1.6-7.968,5.568-17.812-11.212-16.812,0,0-9.423,4.693-9.212,9.945s4.1,6.035,1.117,11.951A138.881,138.881,0,0,1,776.6,385.036Z" transform="translate(-731.249 -327.701)" fill="#aab6c2"/>
      <g id="Grupo_892006" data-name="Grupo 892006" transform="translate(58.165 19.039)">
        <path id="Trazado_688918" data-name="Trazado 688918" d="M791.544,348.358v2.969s-.8,1.465,0,1.624c1.755.351,4.287-2.386,4.287-2.386v-3.984Z" transform="translate(-790.978 -346.263)" fill="#fff"/>
        <path id="Trazado_688919" data-name="Trazado 688919" d="M791.839,353.156a1.811,1.811,0,0,1-.362-.035.606.606,0,0,1-.454-.342c-.229-.487.166-1.317.284-1.544v-3.058l4.712-1.953v4.385l-.057.062C795.862,350.779,793.64,353.156,791.839,353.156Zm-.107-4.695-.025,2.929c-.193.354-.412.964-.3,1.209a.182.182,0,0,0,.153.1c1.473.292,3.654-1.871,4.031-2.262v-3.579Z" transform="translate(-790.953 -346.225)"/>
      </g>
      <g id="Grupo_892007" data-name="Grupo 892007" transform="translate(55.477 12.247)">
        <path id="Trazado_688920" data-name="Trazado 688920" d="M790.169,338.869a23.5,23.5,0,0,0-1.973,6.185c-.279,2.118,3.6,4.912,6.755,1.93s2.28-7.546,2.28-7.546Z" transform="translate(-787.967 -338.645)" fill="#fff"/>
        <path id="Trazado_688921" data-name="Trazado 688921" d="M791.887,348.472a4.223,4.223,0,0,1-1.932-.477,3.234,3.234,0,0,1-2-3,23.923,23.923,0,0,1,1.994-6.251l.064-.13,7.369.595.03.159c.008.047.862,4.712-2.344,7.739A4.645,4.645,0,0,1,791.887,348.472Zm-1.614-9.406a23.077,23.077,0,0,0-1.892,5.988,2.852,2.852,0,0,0,1.769,2.562,3.94,3.94,0,0,0,4.629-.814c2.708-2.557,2.355-6.371,2.242-7.191Z" transform="translate(-787.942 -338.618)"/>
      </g>
      <path id="Trazado_688922" data-name="Trazado 688922" d="M788.622,338.467c.216-.135.5-.142.7-.275.644-.414.377-.61.75-1.02a2.588,2.588,0,0,1,1.072-.752,6.375,6.375,0,0,1,3.641.021.444.444,0,0,1,.276.687,5.374,5.374,0,0,1,2.887,2.067,5.442,5.442,0,0,1,.107,5.466c-.777,1.185-2.237,2.155-3.021.584a6.4,6.4,0,0,1-.405-3.6,5.771,5.771,0,0,0,0-1.232,3.138,3.138,0,0,0-2.418-1.449c-.241.24-.443.6-.667.838a3.474,3.474,0,0,1-1.195.835,1.761,1.761,0,0,1-2.166-.354A1.269,1.269,0,0,1,788.622,338.467Z" transform="translate(-732.467 -326.107)"/>
      <path id="Trazado_688923" data-name="Trazado 688923" d="M795.07,342.643s1.27-.592,1.522.428a1.086,1.086,0,0,1-1.163,1.437C794.938,344.321,794.773,343.071,795.07,342.643Z" transform="translate(-733.213 -326.784)" fill="#fff"/>
      <path id="Trazado_688924" data-name="Trazado 688924" d="M810.863,346.458c-1.1.137-3.629.809-4.7-1.3a9.732,9.732,0,0,1-.532-3.112,33.293,33.293,0,0,0-.4-3.986,7,7,0,0,0-2.393-4.355c-2.2-1.594-6.372-.4-7.545,1.986a.475.475,0,0,0,.115.594.436.436,0,0,0,.069.125c1.34,1.572,2.9,1.62,3.409,4.174a23,23,0,0,1-.053,4.02c.051,2.425.971,5.115,3.052,6.551,3.333,2.3,8.95-.424,9.782-4.16C811.78,346.506,811.237,346.271,810.863,346.458Z" transform="translate(-733.247 -325.767)"/>
      <path id="Trazado_688925" data-name="Trazado 688925" d="M798.062,337.946a4.324,4.324,0,0,0-2.87-2.358c-.632-.226-1.077.729-.437.957a3.426,3.426,0,0,1,2.316,1.757A.527.527,0,0,0,798.062,337.946Z" transform="translate(-733.162 -326.042)" fill="#8979f3"/>
      <path id="Trazado_688926" data-name="Trazado 688926" d="M774.266,395.666s-1.7,7.495-4.141,12.112c0,0-.967-.205-.915-2.223S772.339,397.094,774.266,395.666Z" transform="translate(-730.458 -332.483)"/>
      <path id="Trazado_688927" data-name="Trazado 688927" d="M813.245,395.666s-.429,1.117-2.71,1.644c0,0,.088,9.534.965,10.469s3.334.646,4.211,0S815.467,397.751,813.245,395.666Z" transform="translate(-734.886 -332.483)"/>
      <path id="Trazado_688928" data-name="Trazado 688928" d="M792.358,401.436s.711,11.405.787,12.941l-1.655,6.164S791.058,409.331,792.358,401.436Z" transform="translate(-732.838 -333.101)"/>
      <path id="Trazado_688929" data-name="Trazado 688929" d="M782.464,474.19a6.294,6.294,0,0,1-4.584-.227,11.706,11.706,0,0,1-3.993,1.083c-1.709,0-3.077-.527-3.2,1.119s-.157,2.116,0,2.3c4.29.837,11.773,0,11.773,0A4.872,4.872,0,0,0,782.464,474.19Z" transform="translate(-730.605 -340.872)"/>
      <path id="Trazado_688930" data-name="Trazado 688930" d="M824.926,469.591a6.122,6.122,0,0,1-3.373,3.012,11.41,11.41,0,0,1-2.04,3.536c-1.2,1.184-2.528,1.757-1.455,3.01a10.924,10.924,0,0,0,1.619,1.639c4.628-2.132,8.255-8.155,8.255-8.155A4.934,4.934,0,0,0,824.926,469.591Z" transform="translate(-735.649 -340.404)"/>
      <g id="Grupo_892008" data-name="Grupo 892008" transform="translate(18.599 49.625)">
        <path id="Trazado_688931" data-name="Trazado 688931" d="M748.781,390.973a.829.829,0,0,1-.219-.865,1.682,1.682,0,0,1-1.353-.24c-.484-.414-.373-.812-.088-1.286a1.822,1.822,0,0,1,.181-.239c-.03-.026-.064-.04-.095-.07a.463.463,0,0,1-.1-.459,4.365,4.365,0,0,1,1.75-1.97c2.052-1.5,3.029-2.425,3.173-3.321a1.478,1.478,0,0,0-1.871.446.869.869,0,0,1-.846.346c-.407-.1-.441-.415-.411-.717a2.537,2.537,0,0,1,1.334-1.553,8.065,8.065,0,0,1,2.7-.287c3.851.824,3.678,4,3.163,3.575-.8,2.281-2.888,5.908-4.1,5.445C750.982,390.961,749.719,391.9,748.781,390.973Z" transform="translate(-746.664 -380.507)" fill="#fff"/>
        <path id="Trazado_688932" data-name="Trazado 688932" d="M749.617,391.537a1.4,1.4,0,0,1-1.012-.439,1,1,0,0,1-.32-.774,1.672,1.672,0,0,1-1.24-.321,1.071,1.071,0,0,1-.131-1.557c.021-.035.045-.07.069-.1a.683.683,0,0,1-.107-.619,4.522,4.522,0,0,1,1.828-2.077c1.971-1.437,2.835-2.284,3.05-3.012a1.239,1.239,0,0,0-1.454.438,1.072,1.072,0,0,1-1.062.422c-.433-.1-.626-.42-.575-.946a2.7,2.7,0,0,1,1.479-1.733,8.263,8.263,0,0,1,2.81-.293c2.369.507,3.4,1.924,3.579,3.081.07.456-.011.8-.215.913a.316.316,0,0,1-.109.037c-.708,1.925-2.273,4.749-3.535,5.335a1.032,1.032,0,0,1-.625.1,3.761,3.761,0,0,1-2.37,1.542Zm-.8-1.714-.079.311a.621.621,0,0,0,.162.663.938.938,0,0,0,.754.315,3.6,3.6,0,0,0,2.153-1.5l.1-.113.139.054a.565.565,0,0,0,.444-.05c1.078-.5,2.644-3.178,3.376-5.267l.1-.29.146.122a1.74,1.74,0,0,0-.127-.846,3.913,3.913,0,0,0-3.129-2.282,7.85,7.85,0,0,0-2.585.279,2.376,2.376,0,0,0-1.19,1.371c-.035.355.06.446.248.49a.666.666,0,0,0,.629-.269,1.681,1.681,0,0,1,2.118-.514l.16.063-.027.169c-.165,1.028-1.32,2.046-3.259,3.46a4.187,4.187,0,0,0-1.673,1.863.251.251,0,0,0,.051.241l.085.061.163.139-.142.163a1.489,1.489,0,0,0-.16.21c-.3.493-.287.729.044,1.013a1.45,1.45,0,0,0,1.182.191Z" transform="translate(-746.639 -380.481)"/>
      </g>
      <g id="Grupo_892013" data-name="Grupo 892013" transform="translate(0 33.184)">
        <path id="Trazado_688933" data-name="Trazado 688933" d="M752.415,379.807l-1.282,4.488-6.86,10.535a.464.464,0,0,1-.519.193L726.145,390a.467.467,0,0,1-.259-.708l7.4-11.012.746-2.236-.509-13.487a.467.467,0,0,1,.594-.466l17.9,5.113a.466.466,0,0,1,.338.446Z" transform="translate(-725.807 -362.068)"/>
        <path id="Trazado_688934" data-name="Trazado 688934" d="M751.9,384.01s-.342,1.629.8,2.2l-6.916,10.221-.442-2.167S747.6,386.35,751.9,384.01Z" transform="translate(-727.9 -364.419)" fill="#aab6c2"/>
        <path id="Trazado_688935" data-name="Trazado 688935" d="M727.5,390.737l15.879,4.249.442,2.167-16.785-4.793Z" transform="translate(-725.939 -365.14)" fill="#aab6c2"/>
        <g id="Grupo_892009" data-name="Grupo 892009" transform="translate(1.561 15.305)">
          <path id="Trazado_688936" data-name="Trazado 688936" d="M727.844,389.369c1.137-6.054,6.486-9.46,7.2-9.889l14.459,4.129c-3.384,2.476-5.743,8.689-6.179,9.9Z" transform="translate(-727.587 -379.238)" fill="#fff"/>
          <path id="Trazado_688937" data-name="Trazado 688937" d="M735.046,379.692l13.942,3.981c-3.1,2.546-5.271,8.013-5.836,9.541l-15.081-4.037c1.161-5.639,6.038-8.905,6.975-9.486Zm-.064-.483s-6.269,3.526-7.426,10.293l15.879,4.249s2.683-7.827,6.558-10.255l-15.011-4.287Z" transform="translate(-727.556 -379.209)"/>
        </g>
        <g id="Grupo_892010" data-name="Grupo 892010" transform="translate(0.612 15.293)">
          <path id="Trazado_688938" data-name="Trazado 688938" d="M726.854,386.991c.673-1.313,4.063-7.546,7.757-7.546.092,0,.185,0,.277.012l14.413,4.12c-1.6.826-6.361,3.539-7.9,7.329Z" transform="translate(-726.532 -379.223)" fill="#fff"/>
          <path id="Trazado_688939" data-name="Trazado 688939" d="M734.572,379.642h0c.072,0,.144,0,.216.007l13.881,3.964c-1.911,1.044-5.941,3.571-7.441,7l-14.087-3.793c.887-1.679,4.049-7.179,7.431-7.179Zm0-.446c-4.3,0-8.079,7.913-8.079,7.913l15,4.038c1.71-4.557,8.386-7.654,8.386-7.654l-15.011-4.287c-.1-.008-.2-.012-.3-.012Z" transform="translate(-726.493 -379.196)"/>
        </g>
        <path id="Trazado_688940" data-name="Trazado 688940" d="M752.548,382.357s.57-1.564,1.841-1.446l-.475-12.333-1.52,1.606S750.064,378.341,752.548,382.357Z" transform="translate(-728.55 -362.765)" fill="#aab6c2"/>
        <path id="Trazado_688941" data-name="Trazado 688941" d="M734.9,364.832l15.727,4.777,1.52-1.606-16.784-4.793Z" transform="translate(-726.781 -362.19)" fill="#aab6c2"/>
        <g id="Grupo_892011" data-name="Grupo 892011" transform="translate(7.154 2.641)">
          <path id="Trazado_688942" data-name="Trazado 688942" d="M735.835,377.534c-.379-.743-3.12-6.465-.893-12.2l15.333,4.656c-.271,1.262-1.548,7.784.019,11.674Z" transform="translate(-733.848 -365.059)" fill="#fff"/>
          <path id="Trazado_688943" data-name="Trazado 688943" d="M735.049,365.574l14.938,4.537c-.328,1.594-1.367,7.386-.081,11.184l-13.943-3.981c-.488-.988-2.906-6.338-.914-11.74Zm-.266-.548c-2.591,6.358.87,12.663.87,12.663l15.011,4.287c-2.008-4.108-.154-12.172-.154-12.172l-15.728-4.778Z" transform="translate(-733.82 -365.026)"/>
        </g>
        <g id="Grupo_892012" data-name="Grupo 892012" transform="translate(5.932 4.172)">
          <path id="Trazado_688944" data-name="Trazado 688944" d="M735.6,377.694c-3.363-1.717-2.929-9.118-2.8-10.626l14.417,4.355c-.69,4.033,1.919,8.852,2.842,10.4Z" transform="translate(-732.478 -366.775)" fill="#fff"/>
          <path id="Trazado_688945" data-name="Trazado 688945" d="M732.966,367.328l13.965,4.219c-.537,3.7,1.551,7.979,2.621,9.874l-13.88-3.963c-3.066-1.615-2.843-8.195-2.706-10.129Zm-.4-.588s-1.014,9.121,2.938,11.133l15.011,4.287s-4.034-6.155-3.079-10.928l-14.87-4.492Z" transform="translate(-732.451 -366.74)"/>
        </g>
      </g>
      <g id="Grupo_892014" data-name="Grupo 892014" transform="translate(21.283 49.192)">
        <path id="Trazado_688946" data-name="Trazado 688946" d="M750.031,381.989a4.477,4.477,0,0,1,1.185-1.525,1.583,1.583,0,0,1,1.239-.184c.943.179,3.345.734,4.505,2.227-.758-.173.355,2.441-.57,2.283-.313-.054-3.223-2.388-3.532-2.456-1.079-.235-1.084.268-1.687.6a.984.984,0,0,1-1.032-.018C749.759,382.637,749.865,382.289,750.031,381.989Z" transform="translate(-749.67 -380.022)" fill="#fff"/>
        <path id="Trazado_688947" data-name="Trazado 688947" d="M756.441,384.984a.633.633,0,0,1-.112-.01,9.7,9.7,0,0,1-1.922-1.309c-.622-.462-1.475-1.1-1.629-1.152-.647-.141-.807,0-1.071.241a2.45,2.45,0,0,1-.457.343,1.2,1.2,0,0,1-1.263-.033.837.837,0,0,1-.168-1.2h0a4.632,4.632,0,0,1,1.251-1.6,1.771,1.771,0,0,1,1.4-.216c1.245.236,3.5.849,4.634,2.305l.366.471-.581-.133a2.587,2.587,0,0,0,.026.809c.064.57.125,1.107-.143,1.361A.465.465,0,0,1,756.441,384.984Zm-4.1-2.949a2.535,2.535,0,0,1,.535.065,10.019,10.019,0,0,1,1.783,1.224,19.977,19.977,0,0,0,1.751,1.233c.007,0,.051,0,.066-.008.113-.107.049-.668.012-1-.059-.522-.106-.941.086-1.158a8.055,8.055,0,0,0-4.187-1.925,1.368,1.368,0,0,0-1.079.151,4.276,4.276,0,0,0-1.118,1.452h0c-.2.368-.136.519.048.655a.768.768,0,0,0,.8,0,2.013,2.013,0,0,0,.379-.288A1.223,1.223,0,0,1,752.344,382.035Z" transform="translate(-749.645 -379.996)"/>
      </g>
      <g id="Grupo_892019" data-name="Grupo 892019" transform="translate(59.632)">
        <g id="Grupo_892015" data-name="Grupo 892015" transform="translate(9.956 7.495)">
          <path id="Trazado_688948" data-name="Trazado 688948" d="M829.325,352.288a2.682,2.682,0,0,1-.21.489c-2.9,5.547-11.818,7.214-16.426,7.471a12.633,12.633,0,0,1-2.562-.052c-2.13-.421-10.2-7.979-3.593-10.337a20.057,20.057,0,0,1,4.631-.19c1.016.039,2.07.076,3.038.119a20.486,20.486,0,0,0,4.455-.195c.922-.835-4.433-14.091-4.4-14.435a18.45,18.45,0,0,0,3.047-1.559C817.414,333.513,830.925,347.878,829.325,352.288Z" transform="translate(-803.771 -333.328)" fill="#fff"/>
          <path id="Trazado_688949" data-name="Trazado 688949" d="M811.468,360.464a8.355,8.355,0,0,1-1.407-.09c-1.594-.316-6.071-4.172-6.306-7.355-.08-1.082.32-2.549,2.682-3.391a19.934,19.934,0,0,1,4.708-.2l.83.031c.751.028,1.5.056,2.212.088a23.11,23.11,0,0,0,4.329-.159c.489-.641-2.461-8.613-3.571-11.614a15.534,15.534,0,0,1-.919-2.667l.013-.125.116-.048a18.356,18.356,0,0,0,2.989-1.523l.126-.111.152.1c.626.441,13.715,14.385,12.078,18.925a2.879,2.879,0,0,1-.225.522c-2.648,5.061-10.6,7.247-16.6,7.582C812.246,360.452,811.838,360.464,811.468,360.464Zm-2.162-10.638a11.209,11.209,0,0,0-2.729.2c-1.692.6-2.5,1.6-2.4,2.959.219,2.951,4.5,6.677,5.963,6.967a12.258,12.258,0,0,0,2.511.048c5.889-.328,13.68-2.451,16.248-7.357a2.536,2.536,0,0,0,.2-.454l0-.008c1.454-4.01-10.448-17.045-11.817-18.343a19.053,19.053,0,0,1-2.8,1.414c.107.323.462,1.281.863,2.367,2.733,7.387,4.088,11.5,3.432,12.1-.325.28-3.385.29-4.605.249-.71-.031-1.462-.06-2.212-.087l-.827-.031C810.521,349.836,809.9,349.825,809.307,349.825Z" transform="translate(-803.746 -333.296)"/>
        </g>
        <path id="Trazado_688950" data-name="Trazado 688950" d="M796.731,362.921c1.927,1.633,13.314.437,17.115.895,1.41-3.743-.605-8.405-5.218-12.74-6.754-.488-11.436-1.213-14.985,2.133C790.569,356.106,795.073,361.517,796.731,362.921Z" transform="translate(-792.595 -327.66)" fill="#aab6c2"/>
        <g id="Grupo_892018" data-name="Grupo 892018" transform="translate(16.188)">
          <g id="Grupo_892017" data-name="Grupo 892017">
            <g id="Grupo_892016" data-name="Grupo 892016">
              <path id="Trazado_688951" data-name="Trazado 688951" d="M812.144,327.812a5.655,5.655,0,0,0,.51,2.1,2.712,2.712,0,0,0,.051.267,2.538,2.538,0,0,0-.277-.056c-.581-.046-1.434.221-1.462.926-.029.746.95.862,1.47,1.051a5.1,5.1,0,0,1,1.712.944,8.519,8.519,0,0,1,1,1.608c.224.393.5,1.079,1,1.188a2.381,2.381,0,0,0,1.436-.384,1.507,1.507,0,0,0,.541-1.251,4.786,4.786,0,0,0-.074-1.219,3.936,3.936,0,0,0-.618-2.112,2.789,2.789,0,0,0-.321-.362,3.75,3.75,0,0,0-.462-2.01.457.457,0,0,0-.715-.115.856.856,0,0,0-.329-.285.647.647,0,0,0-.474-.015,1.562,1.562,0,0,0-.373-.249,1.237,1.237,0,0,0-1.327.157,6,6,0,0,1,.724-2.133.49.49,0,0,0-.427-.721C812.555,325.044,812.126,326.931,812.144,327.812Z" transform="translate(-810.752 -324.927)" fill="#fff"/>
              <path id="Trazado_688952" data-name="Trazado 688952" d="M816.314,336.047a1.089,1.089,0,0,1-.233-.022c-.521-.112-.816-.671-1.031-1.079-.039-.076-.077-.147-.113-.21-.079-.139-.154-.279-.229-.421a5.546,5.546,0,0,0-.742-1.15,5.035,5.035,0,0,0-1.627-.888c-.092-.034-.2-.064-.311-.1-.53-.154-1.331-.388-1.3-1.162a1.017,1.017,0,0,1,.354-.733,1.889,1.889,0,0,1,1.315-.4,5.745,5.745,0,0,1-.49-2.095h0a3.82,3.82,0,0,1,.865-2.539,1.211,1.211,0,0,1,.953-.346.748.748,0,0,1,.6.377.681.681,0,0,1,0,.655,6.472,6.472,0,0,0-.631,1.627,1.481,1.481,0,0,1,1.131.056,1.582,1.582,0,0,1,.34.211.813.813,0,0,1,.511.054.964.964,0,0,1,.286.2.691.691,0,0,1,.412-.048.643.643,0,0,1,.445.337,3.959,3.959,0,0,1,.491,2.026,2.73,2.73,0,0,1,.278.323,4.174,4.174,0,0,1,.659,2.224,4.923,4.923,0,0,1,.073,1.249,1.706,1.706,0,0,1-.637,1.411A2.862,2.862,0,0,1,816.314,336.047Zm-4.038-5.738a1.457,1.457,0,0,0-.913.3.588.588,0,0,0-.21.43c-.017.411.4.564.994.737.122.035.238.069.337.105a5.4,5.4,0,0,1,1.782.987,5.843,5.843,0,0,1,.816,1.25c.073.138.147.274.224.41.038.067.079.143.121.223.186.353.417.792.742.861a2.219,2.219,0,0,0,1.274-.353,1.325,1.325,0,0,0,.446-1.091,4.616,4.616,0,0,0-.071-1.161,3.84,3.84,0,0,0-.581-2.028,2.687,2.687,0,0,0-.3-.335l-.069-.067,0-.1a3.533,3.533,0,0,0-.435-1.9.22.22,0,0,0-.154-.122.3.3,0,0,0-.24.069l-.174.143-.132-.181a.645.645,0,0,0-.247-.217.423.423,0,0,0-.322-.005l-.114.035-.088-.079a1.356,1.356,0,0,0-.32-.213,1.026,1.026,0,0,0-1.1.124l-.4.338.053-.523a6.08,6.08,0,0,1,.747-2.21.258.258,0,0,0,.007-.253.326.326,0,0,0-.263-.157.773.773,0,0,0-.626.233,3.456,3.456,0,0,0-.732,2.219h0a5.427,5.427,0,0,0,.494,2.023l.018.071a.781.781,0,0,0,.023.133,1.129,1.129,0,0,1,.023.112l.05.3-.3-.056c-.037-.007-.075-.016-.113-.025a.879.879,0,0,0-.141-.028C812.351,330.31,812.314,330.308,812.276,330.308Z" transform="translate(-810.726 -324.901)"/>
            </g>
          </g>
        </g>
        <path id="Trazado_688953" data-name="Trazado 688953" d="M815.834,334.94s.736,1.805.99,2.577,2.556-1.108,2.556-1.108l-.545-2.062a12.982,12.982,0,0,1-.812-1.3c-.317-.609-2.5-.358-2.322.125A7.354,7.354,0,0,1,815.834,334.94Z" transform="translate(-795.07 -325.735)" fill="#fff"/>
      </g>
      <path id="Trazado_688954" data-name="Trazado 688954" d="M756.08,386.044a3.147,3.147,0,0,1,.845-.037c.318.056,2.362-1.685,2.187-1.924s-1.04-1.385-1.04-1.385l-1.842-.237-1.068.952-.3.912.544.873Z" transform="translate(-728.92 -331.068)" fill="#fff"/>
      <path id="Trazado_688955" data-name="Trazado 688955" d="M806.257,365.344l-6.965-.246a54.022,54.022,0,0,0,6.007,4.668Z" transform="translate(-733.681 -329.208)"/>
    </g>
  </g>
</svg>
