<svg xmlns="http://www.w3.org/2000/svg" xmlns:xlink="http://www.w3.org/1999/xlink" width="195.247" height="197.386" viewBox="0 0 195.247 197.386">
  <defs>
    <clipPath id="clip-path">
      <path id="Trazado_688966" data-name="Trazado 688966" d="M225.256,590.87c-22.8-6.922-42.459-16.7-64.732-43.851S78.391,528.226,60.99,568.944s-4.872,78.3,16.01,85.265,29.842,13.777,41.371,40.484c9.248,21.425,60.664,31.742,76.595,11.081,29.138-37.788,29.943-23.027,43.864-51.217S248.675,597.979,225.256,590.87Z" transform="translate(-52.766 -531.27)" fill="none"/>
    </clipPath>
  </defs>
  <g id="Grupo_892088" data-name="Grupo 892088" transform="translate(-52.766 -520.892)">
    <g id="Grupo_892041" data-name="Grupo 892041" transform="translate(52.766 530.653)">
      <g id="Grupo_892022" data-name="Grupo 892022" transform="translate(0 0)">
        <path id="Trazado_688956" data-name="Trazado 688956" d="M225.256,590.87c-22.8-6.922-42.459-16.7-64.732-43.851S78.391,528.226,60.99,568.944s-4.872,78.3,16.01,85.265,29.842,13.777,41.371,40.484c9.248,21.425,60.664,31.742,76.595,11.081,29.138-37.788,29.943-23.027,43.864-51.217S248.675,597.979,225.256,590.87Z" transform="translate(-52.766 -531.27)" fill="#e6ebf0"/>
        <path id="Trazado_688957" data-name="Trazado 688957" d="M218.468,551.791c-15.492-17.507-21.354-22.739-38.479-19.045s10.7,33.412,39.065,47.986S237.434,573.222,218.468,551.791Z" transform="translate(-60.021 -531.292)" fill="#e6ebf0"/>
      </g>
      <g id="Grupo_892023" data-name="Grupo 892023" transform="translate(5.234 185.747)">
        <rect id="Rectángulo_342477" data-name="Rectángulo 342477" width="183.595" height="1.357"/>
      </g>
      <g id="Grupo_892040" data-name="Grupo 892040" transform="translate(0 0)">
        <g id="Grupo_892039" data-name="Grupo 892039" clip-path="url(#clip-path)">
          <g id="Grupo_892038" data-name="Grupo 892038" transform="translate(-49.197 -18.401)">
            <g id="Grupo_892032" data-name="Grupo 892032" transform="translate(28.682 30.473)">
              <g id="Grupo_892031" data-name="Grupo 892031">
                <g id="Grupo_892030" data-name="Grupo 892030">
                  <g id="Grupo_892024" data-name="Grupo 892024" transform="translate(33.626)">
                    <path id="Trazado_688958" data-name="Trazado 688958" d="M81.6,586.249v-7.292H93.691V544.106h3.334v34.851h13.029v7.292h6.978V732.375H66.706V586.249Z" transform="translate(-66.706 -544.106)" fill="#c6d0db"/>
                    <rect id="Rectángulo_342478" data-name="Rectángulo 342478" width="6.978" height="131.448" transform="translate(0 42.143)" fill="#aab6c2"/>
                  </g>
                  <g id="Grupo_892025" data-name="Grupo 892025" transform="translate(58.789 76.952)">
                    <rect id="Rectángulo_342479" data-name="Rectángulo 342479" width="50.325" height="111.318" fill="#c6d0db"/>
                    <rect id="Rectángulo_342480" data-name="Rectángulo 342480" width="6.978" height="111.318" fill="#aab6c2"/>
                    <rect id="Rectángulo_342481" data-name="Rectángulo 342481" width="7.222" height="2.997" transform="translate(36.081 4.743)" fill="#aab6c2"/>
                    <rect id="Rectángulo_342482" data-name="Rectángulo 342482" width="7.221" height="2.997" transform="translate(23.923 4.743)" fill="#aab6c2"/>
                    <rect id="Rectángulo_342483" data-name="Rectángulo 342483" width="7.222" height="2.997" transform="translate(36.081 15.655)" fill="#aab6c2"/>
                    <rect id="Rectángulo_342484" data-name="Rectángulo 342484" width="7.221" height="2.997" transform="translate(23.923 15.655)" fill="#aab6c2"/>
                    <rect id="Rectángulo_342485" data-name="Rectángulo 342485" width="7.221" height="2.997" transform="translate(11.765 15.655)" fill="#aab6c2"/>
                    <rect id="Rectángulo_342486" data-name="Rectángulo 342486" width="7.222" height="2.997" transform="translate(36.081 26.568)" fill="#aab6c2"/>
                    <rect id="Rectángulo_342487" data-name="Rectángulo 342487" width="7.221" height="2.997" transform="translate(11.765 26.568)" fill="#aab6c2"/>
                    <rect id="Rectángulo_342488" data-name="Rectángulo 342488" width="7.221" height="2.997" transform="translate(23.923 32.024)" fill="#aab6c2"/>
                    <rect id="Rectángulo_342489" data-name="Rectángulo 342489" width="7.222" height="2.997" transform="translate(36.081 37.481)" fill="#aab6c2"/>
                    <rect id="Rectángulo_342490" data-name="Rectángulo 342490" width="7.221" height="2.998" transform="translate(23.923 42.937)" fill="#aab6c2"/>
                    <rect id="Rectángulo_342491" data-name="Rectángulo 342491" width="7.222" height="2.997" transform="translate(36.081 48.394)" fill="#aab6c2"/>
                    <rect id="Rectángulo_342492" data-name="Rectángulo 342492" width="7.221" height="2.997" transform="translate(11.765 48.394)" fill="#aab6c2"/>
                    <rect id="Rectángulo_342493" data-name="Rectángulo 342493" width="7.222" height="2.997" transform="translate(36.081 58.478)" fill="#aab6c2"/>
                    <rect id="Rectángulo_342494" data-name="Rectángulo 342494" width="7.221" height="2.997" transform="translate(23.923 58.478)" fill="#aab6c2"/>
                    <rect id="Rectángulo_342495" data-name="Rectángulo 342495" width="7.222" height="2.997" transform="translate(36.081 69.391)" fill="#aab6c2"/>
                    <rect id="Rectángulo_342496" data-name="Rectángulo 342496" width="7.221" height="2.997" transform="translate(23.923 69.391)" fill="#aab6c2"/>
                    <rect id="Rectángulo_342497" data-name="Rectángulo 342497" width="7.221" height="2.997" transform="translate(11.765 69.391)" fill="#aab6c2"/>
                    <rect id="Rectángulo_342498" data-name="Rectángulo 342498" width="7.222" height="2.997" transform="translate(36.081 80.303)" fill="#aab6c2"/>
                    <rect id="Rectángulo_342499" data-name="Rectángulo 342499" width="7.221" height="2.997" transform="translate(11.765 80.303)" fill="#aab6c2"/>
                    <rect id="Rectángulo_342500" data-name="Rectángulo 342500" width="7.221" height="2.997" transform="translate(23.923 85.76)" fill="#aab6c2"/>
                    <rect id="Rectángulo_342501" data-name="Rectángulo 342501" width="7.221" height="2.997" transform="translate(11.765 85.76)" fill="#aab6c2"/>
                    <rect id="Rectángulo_342502" data-name="Rectángulo 342502" width="7.222" height="2.997" transform="translate(36.081 91.217)" fill="#aab6c2"/>
                    <rect id="Rectángulo_342503" data-name="Rectángulo 342503" width="7.221" height="2.997" transform="translate(23.923 96.672)" fill="#aab6c2"/>
                    <rect id="Rectángulo_342504" data-name="Rectángulo 342504" width="7.222" height="2.997" transform="translate(36.081 102.129)" fill="#aab6c2"/>
                    <rect id="Rectángulo_342505" data-name="Rectángulo 342505" width="7.221" height="2.997" transform="translate(11.765 102.129)" fill="#aab6c2"/>
                  </g>
                  <g id="Grupo_892026" data-name="Grupo 892026" transform="translate(179.201 76.952)">
                    <rect id="Rectángulo_342506" data-name="Rectángulo 342506" width="50.325" height="111.318" fill="#c6d0db"/>
                    <rect id="Rectángulo_342507" data-name="Rectángulo 342507" width="6.978" height="111.318" fill="#aab6c2"/>
                  </g>
                  <g id="Grupo_892027" data-name="Grupo 892027" transform="translate(107.713 24.003)">
                    <rect id="Rectángulo_342508" data-name="Rectángulo 342508" width="67.521" height="164.266" fill="#c6d0db"/>
                    <rect id="Rectángulo_342509" data-name="Rectángulo 342509" width="6.978" height="164.266" fill="#aab6c2"/>
                    <rect id="Rectángulo_342510" data-name="Rectángulo 342510" width="10.545" height="4.377" transform="translate(49.864 7.868)" fill="#aab6c2"/>
                    <rect id="Rectángulo_342511" data-name="Rectángulo 342511" width="10.545" height="4.377" transform="translate(32.109 7.868)" fill="#aab6c2"/>
                    <rect id="Rectángulo_342512" data-name="Rectángulo 342512" width="10.545" height="4.377" transform="translate(49.864 23.803)" fill="#aab6c2"/>
                    <rect id="Rectángulo_342513" data-name="Rectángulo 342513" width="10.545" height="4.377" transform="translate(32.109 23.803)" fill="#aab6c2"/>
                    <rect id="Rectángulo_342514" data-name="Rectángulo 342514" width="10.545" height="4.377" transform="translate(14.354 23.803)" fill="#aab6c2"/>
                    <rect id="Rectángulo_342515" data-name="Rectángulo 342515" width="10.545" height="4.377" transform="translate(49.864 39.74)" fill="#aab6c2"/>
                    <rect id="Rectángulo_342516" data-name="Rectángulo 342516" width="10.545" height="4.377" transform="translate(14.354 39.74)" fill="#aab6c2"/>
                    <rect id="Rectángulo_342517" data-name="Rectángulo 342517" width="10.545" height="4.377" transform="translate(32.109 47.707)" fill="#aab6c2"/>
                    <rect id="Rectángulo_342518" data-name="Rectángulo 342518" width="10.545" height="4.377" transform="translate(49.864 55.675)" fill="#aab6c2"/>
                    <rect id="Rectángulo_342519" data-name="Rectángulo 342519" width="10.545" height="4.377" transform="translate(32.109 63.643)" fill="#aab6c2"/>
                    <rect id="Rectángulo_342520" data-name="Rectángulo 342520" width="10.545" height="4.377" transform="translate(49.864 71.611)" fill="#aab6c2"/>
                    <rect id="Rectángulo_342521" data-name="Rectángulo 342521" width="10.545" height="4.377" transform="translate(14.354 71.611)" fill="#aab6c2"/>
                    <rect id="Rectángulo_342522" data-name="Rectángulo 342522" width="10.545" height="4.377" transform="translate(49.864 86.337)" fill="#aab6c2"/>
                    <rect id="Rectángulo_342523" data-name="Rectángulo 342523" width="10.545" height="4.377" transform="translate(32.109 86.337)" fill="#aab6c2"/>
                    <rect id="Rectángulo_342524" data-name="Rectángulo 342524" width="10.545" height="4.377" transform="translate(49.864 102.273)" fill="#aab6c2"/>
                    <rect id="Rectángulo_342525" data-name="Rectángulo 342525" width="10.545" height="4.377" transform="translate(32.109 102.273)" fill="#aab6c2"/>
                    <rect id="Rectángulo_342526" data-name="Rectángulo 342526" width="10.545" height="4.377" transform="translate(14.354 102.273)" fill="#aab6c2"/>
                    <rect id="Rectángulo_342527" data-name="Rectángulo 342527" width="10.545" height="4.377" transform="translate(49.864 118.209)" fill="#aab6c2"/>
                    <rect id="Rectángulo_342528" data-name="Rectángulo 342528" width="10.545" height="4.377" transform="translate(14.354 118.209)" fill="#aab6c2"/>
                    <rect id="Rectángulo_342529" data-name="Rectángulo 342529" width="10.545" height="4.377" transform="translate(32.109 126.176)" fill="#aab6c2"/>
                    <rect id="Rectángulo_342530" data-name="Rectángulo 342530" width="10.545" height="4.377" transform="translate(14.354 126.176)" fill="#aab6c2"/>
                    <rect id="Rectángulo_342531" data-name="Rectángulo 342531" width="10.545" height="4.377" transform="translate(49.864 134.144)" fill="#aab6c2"/>
                    <rect id="Rectángulo_342532" data-name="Rectángulo 342532" width="10.545" height="4.377" transform="translate(32.109 142.112)" fill="#aab6c2"/>
                    <rect id="Rectángulo_342533" data-name="Rectángulo 342533" width="10.545" height="4.377" transform="translate(49.864 150.08)" fill="#aab6c2"/>
                    <rect id="Rectángulo_342534" data-name="Rectángulo 342534" width="10.545" height="4.377" transform="translate(14.354 150.08)" fill="#aab6c2"/>
                  </g>
                  <g id="Grupo_892028" data-name="Grupo 892028" transform="translate(213.871 36.248)">
                    <rect id="Rectángulo_342535" data-name="Rectángulo 342535" width="66.179" height="152.021" fill="#c6d0db"/>
                    <rect id="Rectángulo_342536" data-name="Rectángulo 342536" width="6.839" height="152.021" fill="#aab6c2"/>
                    <rect id="Rectángulo_342537" data-name="Rectángulo 342537" width="10.336" height="4.05" transform="translate(48.873 7.281)" fill="#aab6c2"/>
                    <rect id="Rectángulo_342538" data-name="Rectángulo 342538" width="10.336" height="4.05" transform="translate(31.471 7.281)" fill="#aab6c2"/>
                    <rect id="Rectángulo_342539" data-name="Rectángulo 342539" width="10.336" height="4.05" transform="translate(48.873 22.029)" fill="#aab6c2"/>
                    <rect id="Rectángulo_342540" data-name="Rectángulo 342540" width="10.336" height="4.05" transform="translate(31.471 22.029)" fill="#aab6c2"/>
                    <rect id="Rectángulo_342541" data-name="Rectángulo 342541" width="10.336" height="4.05" transform="translate(14.069 22.029)" fill="#aab6c2"/>
                    <rect id="Rectángulo_342542" data-name="Rectángulo 342542" width="10.336" height="4.051" transform="translate(48.873 36.777)" fill="#aab6c2"/>
                    <rect id="Rectángulo_342543" data-name="Rectángulo 342543" width="10.336" height="4.051" transform="translate(14.069 36.777)" fill="#aab6c2"/>
                    <rect id="Rectángulo_342544" data-name="Rectángulo 342544" width="10.336" height="4.05" transform="translate(31.471 44.15)" fill="#aab6c2"/>
                    <rect id="Rectángulo_342545" data-name="Rectángulo 342545" width="10.336" height="4.05" transform="translate(48.873 51.525)" fill="#aab6c2"/>
                    <rect id="Rectángulo_342546" data-name="Rectángulo 342546" width="10.336" height="4.051" transform="translate(31.471 58.898)" fill="#aab6c2"/>
                    <rect id="Rectángulo_342547" data-name="Rectángulo 342547" width="10.336" height="4.049" transform="translate(48.873 66.273)" fill="#aab6c2"/>
                    <rect id="Rectángulo_342548" data-name="Rectángulo 342548" width="10.336" height="4.049" transform="translate(14.069 66.273)" fill="#aab6c2"/>
                    <rect id="Rectángulo_342549" data-name="Rectángulo 342549" width="10.336" height="4.05" transform="translate(48.873 79.901)" fill="#aab6c2"/>
                    <rect id="Rectángulo_342550" data-name="Rectángulo 342550" width="10.336" height="4.05" transform="translate(31.471 79.901)" fill="#aab6c2"/>
                    <rect id="Rectángulo_342551" data-name="Rectángulo 342551" width="10.336" height="4.05" transform="translate(48.873 94.649)" fill="#aab6c2"/>
                    <rect id="Rectángulo_342552" data-name="Rectángulo 342552" width="10.336" height="4.05" transform="translate(31.471 94.649)" fill="#aab6c2"/>
                    <rect id="Rectángulo_342553" data-name="Rectángulo 342553" width="10.336" height="4.05" transform="translate(14.069 94.649)" fill="#aab6c2"/>
                    <rect id="Rectángulo_342554" data-name="Rectángulo 342554" width="10.336" height="4.05" transform="translate(48.873 109.397)" fill="#aab6c2"/>
                    <rect id="Rectángulo_342555" data-name="Rectángulo 342555" width="10.336" height="4.05" transform="translate(14.069 109.397)" fill="#aab6c2"/>
                    <rect id="Rectángulo_342556" data-name="Rectángulo 342556" width="10.336" height="4.05" transform="translate(31.471 116.77)" fill="#aab6c2"/>
                    <rect id="Rectángulo_342557" data-name="Rectángulo 342557" width="10.336" height="4.05" transform="translate(14.069 116.77)" fill="#aab6c2"/>
                    <rect id="Rectángulo_342558" data-name="Rectángulo 342558" width="10.336" height="4.05" transform="translate(48.873 124.145)" fill="#aab6c2"/>
                    <rect id="Rectángulo_342559" data-name="Rectángulo 342559" width="10.336" height="4.051" transform="translate(31.471 131.518)" fill="#aab6c2"/>
                    <rect id="Rectángulo_342560" data-name="Rectángulo 342560" width="10.336" height="4.051" transform="translate(48.873 138.892)" fill="#aab6c2"/>
                    <rect id="Rectángulo_342561" data-name="Rectángulo 342561" width="10.336" height="4.051" transform="translate(14.069 138.892)" fill="#aab6c2"/>
                  </g>
                  <g id="Grupo_892029" data-name="Grupo 892029" transform="translate(0 84.581)">
                    <rect id="Rectángulo_342562" data-name="Rectángulo 342562" width="42.622" height="103.689" fill="#c6d0db"/>
                    <rect id="Rectángulo_342563" data-name="Rectángulo 342563" width="4.405" height="103.689" fill="#aab6c2"/>
                    <rect id="Rectángulo_342564" data-name="Rectángulo 342564" width="6.656" height="2.763" transform="translate(31.476 4.966)" fill="#aab6c2"/>
                    <rect id="Rectángulo_342565" data-name="Rectángulo 342565" width="6.657" height="2.763" transform="translate(20.268 4.966)" fill="#aab6c2"/>
                    <rect id="Rectángulo_342566" data-name="Rectángulo 342566" width="6.656" height="2.763" transform="translate(31.476 15.024)" fill="#aab6c2"/>
                    <rect id="Rectángulo_342567" data-name="Rectángulo 342567" width="6.657" height="2.763" transform="translate(20.268 15.024)" fill="#aab6c2"/>
                    <rect id="Rectángulo_342568" data-name="Rectángulo 342568" width="6.656" height="2.763" transform="translate(9.062 15.024)" fill="#aab6c2"/>
                    <rect id="Rectángulo_342569" data-name="Rectángulo 342569" width="6.656" height="2.763" transform="translate(31.476 25.084)" fill="#aab6c2"/>
                    <rect id="Rectángulo_342570" data-name="Rectángulo 342570" width="6.656" height="2.763" transform="translate(9.062 25.084)" fill="#aab6c2"/>
                    <rect id="Rectángulo_342571" data-name="Rectángulo 342571" width="6.657" height="2.763" transform="translate(20.268 30.114)" fill="#aab6c2"/>
                    <rect id="Rectángulo_342572" data-name="Rectángulo 342572" width="6.656" height="2.763" transform="translate(31.476 35.144)" fill="#aab6c2"/>
                    <rect id="Rectángulo_342573" data-name="Rectángulo 342573" width="6.657" height="2.763" transform="translate(20.268 40.173)" fill="#aab6c2"/>
                    <rect id="Rectángulo_342574" data-name="Rectángulo 342574" width="6.656" height="2.763" transform="translate(31.476 45.203)" fill="#aab6c2"/>
                    <rect id="Rectángulo_342575" data-name="Rectángulo 342575" width="6.656" height="2.763" transform="translate(9.062 45.203)" fill="#aab6c2"/>
                    <rect id="Rectángulo_342576" data-name="Rectángulo 342576" width="6.656" height="2.763" transform="translate(31.476 54.498)" fill="#aab6c2"/>
                    <rect id="Rectángulo_342577" data-name="Rectángulo 342577" width="6.657" height="2.763" transform="translate(20.268 54.498)" fill="#aab6c2"/>
                    <rect id="Rectángulo_342578" data-name="Rectángulo 342578" width="6.656" height="2.763" transform="translate(31.476 64.557)" fill="#aab6c2"/>
                    <rect id="Rectángulo_342579" data-name="Rectángulo 342579" width="6.657" height="2.763" transform="translate(20.268 64.557)" fill="#aab6c2"/>
                    <rect id="Rectángulo_342580" data-name="Rectángulo 342580" width="6.656" height="2.763" transform="translate(9.062 64.557)" fill="#aab6c2"/>
                    <rect id="Rectángulo_342581" data-name="Rectángulo 342581" width="6.656" height="2.762" transform="translate(31.476 74.617)" fill="#aab6c2"/>
                    <rect id="Rectángulo_342582" data-name="Rectángulo 342582" width="6.656" height="2.762" transform="translate(9.062 74.617)" fill="#aab6c2"/>
                    <rect id="Rectángulo_342583" data-name="Rectángulo 342583" width="6.657" height="2.763" transform="translate(20.268 79.646)" fill="#aab6c2"/>
                    <rect id="Rectángulo_342584" data-name="Rectángulo 342584" width="6.656" height="2.763" transform="translate(9.062 79.646)" fill="#aab6c2"/>
                    <rect id="Rectángulo_342585" data-name="Rectángulo 342585" width="6.656" height="2.763" transform="translate(31.476 84.675)" fill="#aab6c2"/>
                    <rect id="Rectángulo_342586" data-name="Rectángulo 342586" width="6.657" height="2.763" transform="translate(20.268 89.705)" fill="#aab6c2"/>
                    <rect id="Rectángulo_342587" data-name="Rectángulo 342587" width="6.656" height="2.763" transform="translate(31.476 94.734)" fill="#aab6c2"/>
                    <rect id="Rectángulo_342588" data-name="Rectángulo 342588" width="6.656" height="2.763" transform="translate(9.062 94.734)" fill="#aab6c2"/>
                  </g>
                </g>
              </g>
            </g>
            <g id="Grupo_892037" data-name="Grupo 892037" transform="translate(0)">
              <g id="Grupo_892034" data-name="Grupo 892034" transform="translate(1.976 4.076)">
                <g id="Grupo_892033" data-name="Grupo 892033">
                  <rect id="Rectángulo_342589" data-name="Rectángulo 342589" width="180.629" height="205.949" fill="#fff" opacity="0.35"/>
                  <path id="Trazado_688959" data-name="Trazado 688959" d="M67.79,718.418H53.771l75.151-199.874h14.019Z" transform="translate(-5.604 -516.188)" fill="#fff" opacity="0.5"/>
                  <path id="Trazado_688960" data-name="Trazado 688960" d="M41.914,718.418H34.9l75.151-199.874h7.01Z" transform="translate(-4.482 -516.188)" fill="#fff" opacity="0.5"/>
                  <path id="Trazado_688961" data-name="Trazado 688961" d="M130.9,719.775h-7.009l64.43-178.415v14.374Z" transform="translate(-9.775 -517.545)" fill="#fff" opacity="0.5"/>
                </g>
              </g>
              <g id="Grupo_892036" data-name="Grupo 892036" transform="translate(181.665)">
                <g id="Grupo_892035" data-name="Grupo 892035">
                  <rect id="Rectángulo_342590" data-name="Rectángulo 342590" width="180.63" height="205.95" transform="translate(1.89)" fill="#fff" opacity="0.35"/>
                  <path id="Trazado_688962" data-name="Trazado 688962" d="M226.5,718.418H212.477l75.151-199.874h14.019Z" transform="translate(-194.733 -512.112)" fill="#fff" opacity="0.5"/>
                  <path id="Trazado_688963" data-name="Trazado 688963" d="M200.621,718.418h-7.009l75.151-199.874h7.009Z" transform="translate(-193.611 -512.112)" fill="#fff" opacity="0.5"/>
                  <path id="Trazado_688964" data-name="Trazado 688964" d="M322.974,719.775h-7.009l64.43-178.415v14.374Z" transform="translate(-200.889 -513.469)" fill="#fff" opacity="0.6"/>
                </g>
              </g>
              <path id="Trazado_688965" data-name="Trazado 688965" d="M372.175,553.038v-2.356h-6.49V513.534H.457v4.713H4.391v1.665H120.877v30.771H.457v2.356h120.42v60.481H.457v2.357h120.42v60.479H.457v2.356h120.42v39.41H4.429v1.362H.457v5.453H365.685V724.5h0V678.711h6.49v-2.356h-6.49V615.876h6.49v-2.357h-6.49V553.038Zm-187.12,62.838h56.259v60.479H185.055Zm0-2.357V553.038h56.259v60.481Zm0-62.837V519.911h56.259v30.771Zm0,128.029h56.259v39.41H185.075v1.362h-.02Zm60.21,39.41v-39.41h56.258v39.41Zm0-41.766V615.876h56.258v60.479Zm0-62.836V553.038h56.258v60.481Zm0-62.837V519.911h56.258v30.771Zm60.21-30.771h56.258v30.771H305.476Zm-180.647,0h56.259v30.771H124.828Zm0,33.127h56.259v60.481H124.828Zm0,62.838h56.259v60.479H124.828Zm0,62.835h56.259v40.771h-.022V718.12H124.828Zm236.905,40.771h-.021V718.12H305.476v-39.41h56.258Zm0-43.128H305.476V615.876h56.258Zm0-62.836H305.476V553.038h56.258Z" transform="translate(-0.457 -511.814)" fill="#fff"/>
            </g>
          </g>
        </g>
      </g>
    </g>
    <g id="Grupo_892043" data-name="Grupo 892043" transform="translate(195.15 573.048)">
      <g id="Grupo_892042" data-name="Grupo 892042">
        <path id="Trazado_688967" data-name="Trazado 688967" d="M209.327,597.261,206.572,581.1l37.233-4.477.627,26.193-30.881,1.458-8.9,6.557Z" transform="translate(-204.185 -576.363)" fill="#fff"/>
        <path id="Trazado_688968" data-name="Trazado 688968" d="M243.546,576.874l.616,25.705-30.581,1.444-.143.008-.115.085-8.232,6.067,4.409-12.8.04-.114-.021-.118-2.7-15.855,36.73-4.417Zm.458-.528-37.735,4.536,2.787,16.342-4.9,14.232,9.447-6.964,31.041-1.465L244,576.346Z" transform="translate(-204.155 -576.346)"/>
      </g>
      <path id="Trazado_688969" data-name="Trazado 688969" d="M223.722,584.165l-1.321.46a.415.415,0,0,0-.407-.1c-.2.055-1.171.509-1.217.124a.422.422,0,0,0-.636-.342c-.024.013-2.257,1.43-2.242.689.009-.451-.567-.5-.783-.191-.375.145-.75.287-1.125.429a.422.422,0,0,0-.7-.165,1.4,1.4,0,0,1-1.933.439c-.237-.481-.944-.039-.709.439.68,1.384,1.971.855,2.867.067.493.543,1.191.321,1.763-.17.529.67,1.937-.037,2.8-.533a.9.9,0,0,0,.5.513c.762.356.652-.17,1.3-.245,1.162-.13,1.626.411,2.585-1.018C224.751,584.12,224.019,583.722,223.722,584.165Z" transform="translate(-204.657 -576.8)"/>
      <path id="Trazado_688970" data-name="Trazado 688970" d="M241.013,582.117c-.821.453-2.4,1.678-3.377.913a.422.422,0,0,0-.408-.1c-.22.093-.969.523-1.144.3a.421.421,0,0,0-.574-.135,1.527,1.527,0,0,1-1.888.252.417.417,0,0,0-.59.016l-1.45,0c-.188-.5-.988-.259-.8.245a1.49,1.49,0,0,0,2.563.639c.731.582,1.576.287,2.34-.249.588.482.944-.056,1.721-.095.426-.021.716.359,1.26.284a9.177,9.177,0,0,0,2.784-1.361C241.924,582.569,241.483,581.86,241.013,582.117Z" transform="translate(-205.737 -576.686)"/>
      <path id="Trazado_688971" data-name="Trazado 688971" d="M227.282,587.964a9.885,9.885,0,0,1-2.7.325.421.421,0,0,0-.574-.135,3.075,3.075,0,0,1-1.745.551c-.231.006-.073-.238-.521-.14-.239.052-1.176.24-1.194.47a.418.418,0,0,0-.636-.342c-.142.1-.3.182-.444.274-.009-.021-.021-.041-.031-.062a.42.42,0,0,0-.574-.134,12.337,12.337,0,0,0-1.3.917c-.178-.5-.977-.264-.8.242.379,1.068,1.458.324,2.165-.187l.018.035a.422.422,0,0,0,.574.134c.129-.068.246-.154.371-.229.268.246.782.154,1.2.084a7.228,7.228,0,0,1,.876-.182c.085-.006.466.163.531.161a3.5,3.5,0,0,0,1.612-.682c.363.363.815.27,1.405.158.928-.176,1.95.019,2.484-.859C228.291,587.9,227.558,587.506,227.282,587.964Z" transform="translate(-204.904 -577.025)"/>
      <path id="Trazado_688972" data-name="Trazado 688972" d="M237.96,587.436c-.162.252-.976-.107-1.215-.111a1.149,1.149,0,0,0-.526.1c-.189.087-.313.123-.224.308-.232-.483-.94-.039-.707.438a.627.627,0,0,0,.607.352.9.9,0,0,0,.438-.166c.277-.162.356-.227.678-.151.64.144,1.273.26,1.68-.373C238.982,587.385,238.249,586.987,237.96,587.436Z" transform="translate(-206.004 -576.994)"/>
      <path id="Trazado_688973" data-name="Trazado 688973" d="M225.565,593.531c-.271.07-2.215.679-2.364.449a.424.424,0,0,0-.656-.066q-.262.034-.526.071a.435.435,0,0,0-.475-.18,16.476,16.476,0,0,1-3.415.6.424.424,0,0,0-.657-.066,1.457,1.457,0,0,1-1.687.554c-.405-.351-.98.253-.575.606.925.8,1.8.438,2.569-.285a1.378,1.378,0,0,0,1.013.351c.625-.027.759-.494,1.285-.576.282-.042.593.132.886.087.194-.03.4-.285.561-.311a.784.784,0,0,0,.3.129,2.269,2.269,0,0,0,.977-.166c.8.519,2.236-.2,3.009-.4C226.328,594.194,226.085,593.4,225.565,593.531Z" transform="translate(-204.804 -577.367)"/>
      <path id="Trazado_688974" data-name="Trazado 688974" d="M240.479,591.9a38.313,38.313,0,0,0-4.057-.151.423.423,0,0,0-.59.016,2.275,2.275,0,0,1-2.473.765.42.42,0,0,0-.565.164l-1.358.213a.413.413,0,0,0-.505-.051l-2.015.094c-.451-.292-.847.44-.4.733,1.054.686,1.89.222,2.918.313.878.077,1.461.172,1.917-.57a2.03,2.03,0,0,0,1.263.064c.548-.131,1-.748,1.482-.836.194-.035.845.187,1.123.188a19.849,19.849,0,0,1,2.14-.194,5.792,5.792,0,0,0,1.143.084C241.032,592.68,241.014,591.846,240.479,591.9Z" transform="translate(-205.592 -577.256)"/>
      <path id="Trazado_688975" data-name="Trazado 688975" d="M229.273,597.9c-.34.15-.614-.077-.938-.039s-.649.233-.988.294c-.5.088-2.765.264-2.783.23a.429.429,0,0,0-.476-.179,22.956,22.956,0,0,1-3.369.864c-.323-.42-1.035.013-.708.44.55.717.912.559,1.681.314.505-.162.924-.1,1.415-.227.248-.064.468-.3.7-.349.147-.029.172-.052.164-.066a1.637,1.637,0,0,0,.167.039c.234.045.462.357.8.386.679.057,1.326-.414,2-.5a7.649,7.649,0,0,0,.825-.077,9.8,9.8,0,0,0,1.752-.336C230,598.488,229.765,597.687,229.273,597.9Z" transform="translate(-205.093 -577.626)"/>
      <path id="Trazado_688976" data-name="Trazado 688976" d="M241.586,597.01c-.281-.107-.31-.466-.678-.514-.416-.054-.73.341-1.087.463-.49.165-.988-.039-1.479.089-.724.188-1.173.8-1.968.253-.441-.307-.839.429-.4.73,1.1.763,1.964-.152,3.082-.186a3.174,3.174,0,0,0,1.384-.251c.562-.248.4.019.945.226C241.886,598.011,242.08,597.2,241.586,597.01Z" transform="translate(-206.036 -577.544)"/>
    </g>
    <g id="Grupo_892047" data-name="Grupo 892047" transform="translate(227.511 643.882)">
      <g id="Grupo_892046" data-name="Grupo 892046">
        <path id="Trazado_688977" data-name="Trazado 688977" d="M241.738,674.079c.074,12.353,4.056,22.342,8.892,22.313s8.7-10.065,8.623-22.418-4.055-22.342-8.892-22.313S241.665,661.726,241.738,674.079Z" transform="translate(-238.752 -651.661)" fill="#aab6c2"/>
        <rect id="Rectángulo_342591" data-name="Rectángulo 342591" width="2.986" height="44.732" transform="matrix(1, -0.006, 0.006, 1, 8.62, 0.018)" fill="#aab6c2"/>
        <path id="Trazado_688978" data-name="Trazado 688978" d="M238.564,674.1c.074,12.352,4.055,22.343,8.892,22.313s8.7-10.066,8.622-22.418-4.056-22.343-8.892-22.313S238.49,661.746,238.564,674.1Z" transform="translate(-238.563 -651.662)"/>
        <path id="Trazado_688979" data-name="Trazado 688979" d="M247.553,694.42c3.308-.019,6.955-8.7,6.886-20.282s-3.821-20.218-7.129-20.2-6.954,8.7-6.885,20.282S244.245,694.441,247.553,694.42Z" transform="translate(-238.674 -651.796)" fill="#aab6c2"/>
        <g id="Grupo_892044" data-name="Grupo 892044" transform="translate(6.428 11.093)">
          <path id="Trazado_688980" data-name="Trazado 688980" d="M247.714,671.392c-1.142,0-2.081-1.725-2.095-3.845-.013-2.092.928-3.864,2.055-3.871,1.148,0,2.088,1.726,2.1,3.846a5.757,5.757,0,0,1-.626,2.776,1.777,1.777,0,0,1-1.429,1.094Z" transform="translate(-245.411 -663.468)" fill="#fff"/>
          <path id="Trazado_688981" data-name="Trazado 688981" d="M247.667,663.455v.416c1.012,0,1.875,1.667,1.888,3.64a5.557,5.557,0,0,1-.6,2.674c-.351.633-.795.984-1.254.987-1.011,0-1.875-1.666-1.887-3.639s.834-3.655,1.849-3.661l0-.416Zm0,0h-.008c-1.262.008-2.274,1.834-2.261,4.08s1.044,4.052,2.3,4.052h.008c1.263-.008,2.275-1.835,2.262-4.079s-1.044-4.053-2.3-4.053Z" transform="translate(-245.398 -663.455)"/>
        </g>
        <g id="Grupo_892045" data-name="Grupo 892045" transform="translate(6.524 27.013)">
          <path id="Trazado_688982" data-name="Trazado 688982" d="M247.816,688.319c-1.143,0-2.082-1.726-2.095-3.846a5.747,5.747,0,0,1,.626-2.776,1.774,1.774,0,0,1,1.429-1.094c1.129,0,2.088,1.761,2.1,3.844a5.773,5.773,0,0,1-.626,2.778,1.779,1.779,0,0,1-1.429,1.094Z" transform="translate(-245.513 -680.395)" fill="#fff"/>
          <path id="Trazado_688983" data-name="Trazado 688983" d="M247.769,680.382v.416c1.011,0,1.874,1.667,1.887,3.638a5.562,5.562,0,0,1-.6,2.676c-.351.633-.795.984-1.254.987-1.011,0-1.874-1.667-1.887-3.639s.834-3.656,1.848-3.661l.006-.416Zm0,0h-.008c-1.262.008-2.274,1.834-2.261,4.08s1.044,4.051,2.3,4.051h.008c1.262-.007,2.275-1.834,2.261-4.079s-1.043-4.052-2.3-4.052Z" transform="translate(-245.5 -680.382)"/>
        </g>
        <path id="Trazado_688984" data-name="Trazado 688984" d="M245.4,667.533c.014,2.249,1.048,4.061,2.31,4.054a1.385,1.385,0,0,0,.725-.216c-.9-.541-1.566-2.053-1.576-3.847s.632-3.307,1.53-3.858a1.393,1.393,0,0,0-.728-.209C246.4,663.466,245.385,665.29,245.4,667.533Z" transform="translate(-238.969 -652.362)"/>
        <path id="Trazado_688985" data-name="Trazado 688985" d="M245.5,684.46c.014,2.248,1.048,4.06,2.31,4.053a1.392,1.392,0,0,0,.725-.216c-.9-.54-1.566-2.054-1.576-3.846s.632-3.308,1.53-3.86a1.406,1.406,0,0,0-.728-.207C246.5,680.392,245.487,682.216,245.5,684.46Z" transform="translate(-238.976 -653.369)"/>
      </g>
    </g>
    <g id="Grupo_892054" data-name="Grupo 892054" transform="translate(65.791 556.901)">
      <g id="Grupo_892049" data-name="Grupo 892049" transform="translate(39.817 2.146)">
        <g id="Grupo_892048" data-name="Grupo 892048" transform="translate(3.054)">
          <path id="Trazado_688986" data-name="Trazado 688986" d="M137.723,601.515a24.374,24.374,0,0,1-3.477-.241c-.31-.035-.629-.091-.94-.147l-.127-.023c-.593-.134-1.148-.264-1.687-.4a21.981,21.981,0,0,1-2.106-.716l-.319-.128c-3.032-1.231-4.446-2.168-5.821-3.856a17.159,17.159,0,0,1-2.129-3.187c-.945-.984-9.566-10.215-8.6-12.846a1.158,1.158,0,0,1,1.071-.728,9.462,9.462,0,0,1,1.04-.054c4,0,10.445,2.231,17.237,5.97l.046.025.031.043a9.54,9.54,0,0,1,.9.47l.1.058.211.109c.143.072.283.144.408.219,2.7,1.507,5.443,3.04,6.08,3.04.526-.455,1.475-7.56,2.1-12.262.229-1.717.441-3.307.625-4.529.1-.686.191-1.249.271-1.661a7.971,7.971,0,0,1-.666-2.272c-.569-1.859-.752-3.09-.557-3.722.12-.389.407-.783.779-.783a.657.657,0,0,1,.564.4,1.882,1.882,0,0,1,.205.577,5.968,5.968,0,0,1,3.714-3.113,2.226,2.226,0,0,1,.425-.045c.609,0,.775.321.817.458.1.327-.085.711-.506,1.047a3.092,3.092,0,0,1,1.308-.431.606.606,0,0,1,.505.207.76.76,0,0,1,.161.585c-.092.678-1.038,1.37-1.8,1.927l-.218.161c.22-.059.495-.164.731-.252a3.674,3.674,0,0,1,1.007-.3c.223.017.767.062.891.461.164.529-.551,1.161-1.578,1.995-.2.164-.441.357-.565.479h.024a2.119,2.119,0,0,0,.655-.163,2.8,2.8,0,0,1,.857-.218.518.518,0,0,1,.423.176.732.732,0,0,1,.091.628c-.149.761-1.272,1.334-2.358,1.888l-.328.169c2.145,6.734,4.56,21.6,2.43,25.631-2.464,4.657-8.532,5.353-11.931,5.353Z" transform="translate(-112.212 -561.475)" fill="#fff"/>
          <path id="Trazado_688987" data-name="Trazado 688987" d="M147.092,561.93c.79,0,.817.635.05,1.172-1.075.749-1.79,1.559-1.548,1.559a4.8,4.8,0,0,0,1.47-.961,3.454,3.454,0,0,1,1.648-.7.389.389,0,0,1,.321.119c.61.774-1.3,1.921-2.071,2.536-.087.2-.019.276.139.276.449,0,1.62-.6,2-.6l.024,0c2.125.178-1.613,2.41-1.576,2.721a.253.253,0,0,0,.291.239c.405,0,1.132-.407,1.544-.407.229,0,.362.127.284.524-.15.765-1.688,1.426-2.741,1.984,2.283,7.016,4.572,21.734,2.507,25.639-2.259,4.272-7.688,5.228-11.724,5.228a24.288,24.288,0,0,1-3.443-.238c-.357-.04-.714-.107-1.061-.168-.58-.132-1.133-.262-1.67-.4-.737-.215-1.428-.445-2.075-.705-.111-.046-.223-.091-.324-.13-2.851-1.158-4.328-2.074-5.723-3.786a17.02,17.02,0,0,1-2.1-3.139s-12.055-12.761-7.716-13.24a9.508,9.508,0,0,1,1.016-.052c4.456,0,11.23,2.7,17.122,5.939.015.022.053.029.074.039.359.19.68.375,1,.559.211.112.428.214.613.325l.053.028c3.116,1.742,5.479,3.046,6.15,3.046h.016c.862-.045,2.17-11.825,2.942-16.99.105-.725.2-1.313.284-1.727a7.8,7.8,0,0,1-.679-2.272h0l0,0h0c-.244-.806-.823-2.782-.562-3.623.094-.306.315-.618.554-.617.119,0,.245.079.361.278a2.649,2.649,0,0,1,.236,1.284v.017c.791-1.708,2.154-3.382,3.929-3.725a2.043,2.043,0,0,1,.381-.04Zm0-.47h0a2.512,2.512,0,0,0-.469.049,5.862,5.862,0,0,0-3.6,2.781c-.021-.044-.044-.088-.069-.131a.884.884,0,0,0-.767-.513c-.525,0-.868.511-1,.949-.212.684-.035,1.915.555,3.875a8.275,8.275,0,0,0,.647,2.218c-.074.393-.159.919-.259,1.6-.182,1.223-.4,2.83-.624,4.533-.549,4.114-1.454,10.888-2.023,12.034a47.321,47.321,0,0,1-5.765-2.964l-.059-.033c-.11-.067-.254-.14-.4-.214l-.214-.11-.032-.02c-.312-.177-.624-.356-.972-.54l-.03-.016-.01,0-.027-.015c-6.824-3.755-13.31-6-17.349-6a10.113,10.113,0,0,0-1.067.055,1.38,1.38,0,0,0-1.267.881c-.984,2.68,6.912,11.26,8.643,13.1a17.87,17.87,0,0,0,2.127,3.168c1.384,1.7,2.876,2.691,5.907,3.922.1.039.208.082.312.125.633.255,1.327.491,2.132.726.557.141,1.115.272,1.7.4l.163.03c.312.055.63.112.949.147a24.488,24.488,0,0,0,3.5.242c3.452,0,9.618-.712,12.139-5.479,2.22-4.195-.256-18.907-2.354-25.623.049-.026.1-.051.148-.076,1.137-.579,2.314-1.179,2.485-2.052a.99.99,0,0,0-.141-.823.743.743,0,0,0-.6-.262,1.946,1.946,0,0,0-.557.1c.98-.81,1.58-1.414,1.389-2.03-.113-.366-.466-.575-1.051-.625h-.02l-.044,0a1.547,1.547,0,0,0-.434.079,2.373,2.373,0,0,0,.945-1.351.985.985,0,0,0-.21-.762.826.826,0,0,0-.689-.3,2.1,2.1,0,0,0-.59.1.881.881,0,0,0,.012-.552,1,1,0,0,0-1.042-.623Z" transform="translate(-112.197 -561.46)"/>
        </g>
        <path id="Trazado_688988" data-name="Trazado 688988" d="M131.326,602.571c-1.75-.554-4.091-.932-6.258-1.384-.824-.175-1.626-.361-2.354-.559-1.026-.288-9.213-3.8-9.861-4.214a2.9,2.9,0,0,1-.776-.64c-.391-.486-.543-1.906-1.775-4.151-3.177-5.831-.161-11.348,2.949-11.979,5.329-1.083,13.006,2.65,19.352,5.408C135.372,589.856,135.753,596.46,131.326,602.571Z" transform="translate(-108.95 -562.53)" fill="#8979f3"/>
        <path id="Trazado_688989" data-name="Trazado 688989" d="M120.9,584.4a58.553,58.553,0,0,1-1.873,14.942,50.112,50.112,0,0,1-5.926-2.637Z" transform="translate(-109.196 -562.825)"/>
      </g>
      <g id="Grupo_892050" data-name="Grupo 892050" transform="translate(29.512 148.103)">
        <path id="Trazado_688990" data-name="Trazado 688990" d="M102.9,724.01a10.183,10.183,0,0,1-4.29-1.023c-.646-.63-.266-4.748-.16-5.389s4.243-.7,4.284-.7c1.463,0,1.811.2,1.95.374.36.45.152,2.135-.357,5.089-.084.488-.15.872-.17,1.058-.043.392-.466.592-1.256.592Z" transform="translate(-98.008 -716.663)" fill="#fff"/>
        <path id="Trazado_688991" data-name="Trazado 688991" d="M102.72,717.118a3.154,3.154,0,0,1,1.767.285c.471.589-.49,5.162-.578,5.975-.03.276-.442.382-1.022.382a10.329,10.329,0,0,1-4.125-.957c-.5-.491-.253-4.213-.092-5.182.036-.211,2.345-.5,4.051-.5Zm0-.47c-.728,0-4.371.043-4.514.894-.008.047-.6,4.792.228,5.6.515.5,3.134,1.089,4.453,1.089.93,0,1.432-.27,1.49-.8.019-.173.088-.575.168-1.041.617-3.571.688-4.8.309-5.277-.192-.24-.583-.462-2.134-.462Z" transform="translate(-97.993 -716.648)"/>
      </g>
      <path id="Trazado_688992" data-name="Trazado 688992" d="M98.33,721.987s-2.44,3.487-.7,6.228c0,0,12.705.6,16.543,0,0,0,.1-4.683-3.189-5.082a60.015,60.015,0,0,0-6.993-.342S100.718,724.578,98.33,721.987Z" transform="translate(-68.423 -568.863)"/>
      <path id="Trazado_688993" data-name="Trazado 688993" d="M97.741,665.846c.6,7.473.27,23.4-.327,30.878-.037.5-.038,17.862-.038,17.862l7.025.672c3.823-11.408,10.905-37.86,10.905-49.22s-.98-30.289-5.153-39.269c-3.969-8.538-19.628,3.254-21.469,5.346-.849.97.759,9.612,2.982,15.34C94.249,654.092,97.418,661.829,97.741,665.846Z" transform="translate(-67.914 -563.017)"/>
      <path id="Trazado_688994" data-name="Trazado 688994" d="M97.471,715.36l4.335.415c-.4-2.726-.007-8.808.149-11.582a82.561,82.561,0,0,1,2.607-14.242c1.77-7.438,3.235-16.18,1.131-23.737-1.089-3.886-3.469-6.588-5.406-10.02a13.554,13.554,0,0,1-1.746-7.581c.107-1.447,1-3.276.514-4.723-.609-1.829-6.08-8.012-7.478-7.079-1.686,1.135-.836,5.527-1.517,7.572,2.584,6.636,7.454,18.222,7.776,22.239.6,7.473-.417,23.343-.827,30.829A161.415,161.415,0,0,0,97.471,715.36Z" transform="translate(-68.009 -563.791)"/>
      <g id="Grupo_892051" data-name="Grupo 892051" transform="translate(0.152 145.673)">
        <path id="Trazado_688995" data-name="Trazado 688995" d="M72.5,723.781c-1.776,0-5.218-.766-5.466-2.234-.139-.82,1.763-6.34,2.154-7.066a.417.417,0,0,1,.4-.166c.87,0,5.305,1.028,5.61,1.872.292.809-.858,6.393-1.2,7.122-.149.317-.637.471-1.494.471Z" transform="translate(-66.791 -714.08)" fill="#fff"/>
        <path id="Trazado_688996" data-name="Trazado 688996" d="M69.566,714.535c.953,0,5.15,1.057,5.389,1.717.255.709-.844,6.2-1.191,6.942-.108.231-.6.338-1.281.338-1.846,0-5.024-.8-5.234-2.039-.119-.7,1.662-6.049,2.128-6.916.015-.028.081-.042.188-.042Zm0-.47a.643.643,0,0,0-.6.29c-.377.7-2.338,6.279-2.178,7.218.292,1.731,4.142,2.43,5.7,2.43.971,0,1.513-.194,1.707-.609.332-.71,1.545-6.362,1.207-7.3-.382-1.057-5.11-2.029-5.831-2.029Z" transform="translate(-66.776 -714.065)"/>
      </g>
      <path id="Trazado_688997" data-name="Trazado 688997" d="M92.274,628.162c.7,4.562-2.645,24.057-1.53,41.664.716,11.336-8.155,35.667-16.239,44.44l-5.625-1.855-1.262-.406s1.912-15,3.935-19.805c5.276-12.476,2.555-18.736,1.278-26.126-2.609-15.215-4.393-21.928-2.259-33.968.1-.552.214-1.118.345-1.688a48.4,48.4,0,0,1,2.02-6.6,1.557,1.557,0,0,1,.767-.8,3.956,3.956,0,0,1,1.677-.408C78.325,622.434,92.155,627.431,92.274,628.162Z" transform="translate(-66.675 -562.951)"/>
      <path id="Trazado_688998" data-name="Trazado 688998" d="M78.242,655.085C75.526,648,73.5,641.292,74.363,633.609c.037-.274.493-2.385.3-2.46-.064-.086-.372-.7-.521-.725-.858-.115-1.908.058-3.085,0-3.438,14.6-.833,20.9,1.776,36.114,1.277,7.39,2.471,13.735-1.278,26.126-1.51,4.989-3.935,19.805-3.935,19.805l1.262.406c3.5-4.569,5.818-15.2,7.41-20.795,1.773-6.29,3.467-10.875,3.7-17.391C80.259,667.78,80.7,661.521,78.242,655.085Z" transform="translate(-66.675 -563.414)"/>
      <path id="Trazado_688999" data-name="Trazado 688999" d="M67.367,720.9s-1.96,4.034.447,7.207c0,0,13.812.7,17.832.011,0,0-.792-5.419-4.414-5.883a49.555,49.555,0,0,0-7.147-.333A5.835,5.835,0,0,1,67.367,720.9Z" transform="translate(-66.615 -568.798)"/>
      <path id="Trazado_689000" data-name="Trazado 689000" d="M70.161,626.078c.071,1.066,3.694,3.194,9.267,4.485a41.867,41.867,0,0,0,10.905,1.04c8.67-.311,20.185-5.142,20.975-6.123.872-4.257-4.1-13.6-2.3-19.313a68.659,68.659,0,0,1,3.419-7.508c3.182-6.446,6.876-13.477,5.788-17.663-5-4.4-17.7-8.071-25.888-6.743a7.939,7.939,0,0,0-3.455,1.208,4.946,4.946,0,0,0-.575.5A19.057,19.057,0,0,0,86,579.1a101.619,101.619,0,0,0-8.107,17.7C74.944,605.117,70.065,624.572,70.161,626.078Z" transform="translate(-66.826 -560.059)" fill="#8979f3"/>
      <path id="Trazado_689001" data-name="Trazado 689001" d="M85.625,581.333A40.323,40.323,0,0,0,81,600.143a37.069,37.069,0,0,0,11.833.784l-2.743-17.086Z" transform="translate(-67.471 -560.497)"/>
      <g id="Grupo_892052" data-name="Grupo 892052" transform="translate(38.308 10.305)">
        <path id="Trazado_689002" data-name="Trazado 689002" d="M112.261,578.822c-2.959,0-4.578-3.609-4.645-3.762l-.02-.045v-4.506l5.339,2.212v3.645c.147.334.622,1.512.294,2.1a.639.639,0,0,1-.5.328A3.652,3.652,0,0,1,112.261,578.822Z" transform="translate(-107.361 -570.157)" fill="#fff"/>
        <path id="Trazado_689003" data-name="Trazado 689003" d="M107.816,570.839l4.869,2.017v3.537s.917,2.025,0,2.143a3.365,3.365,0,0,1-.439.03c-2.839,0-4.43-3.623-4.43-3.623v-4.1Zm-.47-.7v4.908l.039.089c.07.16,1.749,3.9,4.861,3.9a3.925,3.925,0,0,0,.5-.033.884.884,0,0,0,.674-.448c.361-.648-.066-1.8-.265-2.261v-3.753l-.29-.12L108,570.4l-.651-.269Z" transform="translate(-107.346 -570.135)"/>
      </g>
      <g id="Grupo_892053" data-name="Grupo 892053" transform="translate(36.403 2.659)">
        <path id="Trazado_689004" data-name="Trazado 689004" d="M111.449,573.364a4.767,4.767,0,0,1-3.265-1.425,8.425,8.425,0,0,1-2.376-8.014l.04-.139,8.062-1.5.078.162a24.9,24.9,0,0,1,1.96,6.556,3.593,3.593,0,0,1-1.008,2.694A4.76,4.76,0,0,1,111.449,573.364Z" transform="translate(-105.336 -562.023)" fill="#fff"/>
        <path id="Trazado_689005" data-name="Trazado 689005" d="M113.761,562.533a24.427,24.427,0,0,1,1.938,6.486c.228,1.714-1.79,4.093-4.266,4.093a4.489,4.489,0,0,1-3.1-1.361,8.114,8.114,0,0,1-2.312-7.777l7.743-1.441Zm.268-.527-.354.065-7.743,1.44-.285.053-.081.278a8.513,8.513,0,0,0,2.441,8.25,4.993,4.993,0,0,0,3.426,1.49,4.926,4.926,0,0,0,3.668-1.747,3.827,3.827,0,0,0,1.065-2.879,24.7,24.7,0,0,0-1.981-6.627l-.156-.323Z" transform="translate(-105.32 -562.006)"/>
      </g>
      <path id="Trazado_689006" data-name="Trazado 689006" d="M104.784,567.16c-.024-.023-.045-.163-.105-.317a2.494,2.494,0,0,1,.508-2.532.657.657,0,0,1,.888-.076c.011,0,.018-.006.03-.007,1.02-.077,1.021,1.163,1.162,1.844.235,1.145.944,2.517.587,3.7a1.464,1.464,0,0,1-1.825,1.04c-.987-.289-.883-1.206-1.217-1.96a1.725,1.725,0,0,1-.224-1.273A2.123,2.123,0,0,1,104.784,567.16Z" transform="translate(-68.87 -559.471)"/>
      <path id="Trazado_689007" data-name="Trazado 689007" d="M105.458,565.2c1.083,2.366,2.934.515,4.445-.219,1.026-.5,2.876,1.1,5.416-1.175.863-.775,1.3-2.91.2-3.924C113.065,557.622,103.621,561.189,105.458,565.2Z" transform="translate(-68.911 -559.179)"/>
    </g>
    <g id="Grupo_892073" data-name="Grupo 892073" transform="translate(107.129 603.713)">
      <g id="Grupo_892056" data-name="Grupo 892056" transform="translate(82.927 102.146)">
        <g id="Grupo_892055" data-name="Grupo 892055">
          <path id="Trazado_689008" data-name="Trazado 689008" d="M201.69,723.708a5.235,5.235,0,0,1-2.357-.363c-.629-.622-.183-4.546-.123-4.892.1-.6,3.779-.636,3.816-.636,1.4,0,1.734.193,1.867.361.561.71.15,4.578.146,4.617-.09.794-2.136.912-3.348.912Z" transform="translate(-198.754 -717.572)" fill="#fff"/>
          <path id="Trazado_689009" data-name="Trazado 689009" d="M203.01,718.048a3.015,3.015,0,0,1,1.674.267c.42.535.18,3.7.094,4.436-.055.492-1.669.694-3.1.694a5.115,5.115,0,0,1-2.182-.29c-.451-.447-.207-3.8-.055-4.676a10.886,10.886,0,0,1,3.574-.432Zm0-.491c-1.462,0-3.931.108-4.058.839-.008.041-.586,4.338.194,5.11a4.373,4.373,0,0,0,2.528.433c2.3,0,3.508-.38,3.594-1.13,0-.039.454-3.972-.2-4.8-.187-.236-.565-.453-2.061-.453Z" transform="translate(-198.738 -717.557)"/>
        </g>
      </g>
      <path id="Trazado_689010" data-name="Trazado 689010" d="M199.111,722.42s-2.219,3.132-.66,5.612c0,0,11.455.607,14.917.087,0,0,.115-4.222-2.849-4.6a43.8,43.8,0,0,0-5.932-.291S201.251,724.768,199.111,722.42Z" transform="translate(-115.761 -615.7)"/>
      <path id="Trazado_689011" data-name="Trazado 689011" d="M204.148,717.455l-5.371.139-3,.076h-.109a.432.432,0,0,1,.012-.087c.14-1.391,1.929-18.8,2.338-26.02.088-1.445-5.337-.808-11.569-.14-7.2.777-15.5,1.6-17.6-.7-2.837-3.085,8.8-21.837,16.672-18.655,5.682,2.3,18.352-.992,26.958,5.725C220.572,684.1,205.744,711.524,204.148,717.455Z" transform="translate(-114.008 -612.684)"/>
      <path id="Trazado_689012" data-name="Trazado 689012" d="M200.326,687.5a56.046,56.046,0,0,0-10.708-5.262.543.543,0,0,0-.421-.594,3.121,3.121,0,0,0-2.544.53.549.549,0,0,0,.022.883,13.856,13.856,0,0,0,.734,8.7c.032.088.075.163.107.248,6.233-.668,11.658-1.3,11.569.14-.409,7.225-2.2,24.629-2.338,26.02a.579.579,0,0,0,.1.087l3-.076a130.117,130.117,0,0,0,3.247-24.381C203.152,691.116,202.6,689.055,200.326,687.5Z" transform="translate(-115.071 -613.27)"/>
      <g id="Grupo_892058" data-name="Grupo 892058" transform="translate(22.787 99.835)">
        <g id="Grupo_892057" data-name="Grupo 892057">
          <path id="Trazado_689013" data-name="Trazado 689013" d="M140.281,721.914a21.168,21.168,0,0,1-4.9-1.5.691.691,0,0,1-.324-.692c0-1.2,1.352-4.021,1.923-4.294a.724.724,0,0,1,.321-.062,15.219,15.219,0,0,1,4.33,1.587c.16.09.228.282.151,1.079,0,.036-.387,3.565-1.231,3.85a.856.856,0,0,1-.271.037Z" transform="translate(-134.811 -715.116)" fill="#fff"/>
          <path id="Trazado_689014" data-name="Trazado 689014" d="M137.285,715.592a15.329,15.329,0,0,1,4.209,1.554c.252.143-.37,4.257-1.038,4.482a.592.592,0,0,1-.191.023,21.169,21.169,0,0,1-4.791-1.477c-.767-.377,1.043-4.279,1.6-4.546a.518.518,0,0,1,.214-.037Zm0-.492a.987.987,0,0,0-.428.085c-.708.341-2.058,3.3-2.063,4.516a.911.911,0,0,0,.462.915,21.423,21.423,0,0,0,5.008,1.527,1.074,1.074,0,0,0,.35-.05c1.035-.35,1.383-3.907,1.4-4.058.071-.748.047-1.135-.276-1.319a15.512,15.512,0,0,0-4.451-1.617Z" transform="translate(-134.795 -715.1)"/>
        </g>
      </g>
      <path id="Trazado_689015" data-name="Trazado 689015" d="M183.526,719.9c-9.209,4.517-34.714,1.524-43.57-.357,0,0-.358-2.664-.588-4.7a19.6,19.6,0,0,1-.205-2.238c4.491.128,28.468-.526,32.328-6.079,1.833-2.631-7.614-17.081-7.01-26.537a8.789,8.789,0,0,1,1.359-4.433,8.987,8.987,0,0,1,4.2-3.471c7.148-2.89,17.392,3.439,15.861,8.183C185.9,680.274,197.792,712.894,183.526,719.9Z" transform="translate(-112.268 -612.663)"/>
      <path id="Trazado_689016" data-name="Trazado 689016" d="M173.272,699.265c-1.974-4.949-7.064-12.2-1.532-16.714a.58.58,0,0,0-.259-1c-1.121-2.459-2.8-3.84-5.478-2.2a12.71,12.71,0,0,0-1.521,1.078c-.6,9.456,8.843,23.906,7.01,26.537-3.861,5.554-27.837,6.207-32.328,6.079a19.6,19.6,0,0,0,.205,2.238c.022.009.032.009.054.02,2.235.8,5.107.866,7.456,1.145a52.537,52.537,0,0,0,15.377-.583c3.961-.686,7.77-1.716,10.25-5.189C174.985,707.18,174.8,703.1,173.272,699.265Z" transform="translate(-112.268 -613.096)"/>
      <path id="Trazado_689017" data-name="Trazado 689017" d="M131.094,715.44c3.217-1.649,7.106.428,7.106.428a3.288,3.288,0,0,0-.835,4.925s-.145,1.172-.6,3.956c2.346,1.151,1.029,2.891,1.029,2.891a8.941,8.941,0,0,1-5.512-.083C131.625,723.945,131.094,715.44,131.094,715.44Z" transform="translate(-111.788 -615.247)"/>
      <g id="Grupo_892059" data-name="Grupo 892059" transform="translate(0)">
        <path id="Trazado_689018" data-name="Trazado 689018" d="M126.543,723.3a12.681,12.681,0,0,1-7.651-2.364c-14.406-10.513-5.975-53.21-1.923-73.73.627-3.179,1.111-5.624,1.355-7.2,2.807-18.033,9.406-30.011,9.685-30.512l.115-.205L131,610.9l-.113.205a98.084,98.084,0,0,0-9.308,29.414c-.259,1.66-.752,4.162-1.379,7.33-3.613,18.3-12.074,61.157.636,70.433a9.521,9.521,0,0,0,5.747,1.732c3.476,0,7.766-1.4,12.75-4.15,11.993-6.629,17.59-13.917,22.527-20.346,7.2-9.375,13.416-17.469,35.822-18.323l.234-.008.126,3.29-.235.008c-20.864.794-26.368,7.962-33.336,17.038-5.138,6.688-10.956,14.264-23.547,21.222C135.447,721.767,130.609,723.3,126.543,723.3Z" transform="translate(-110.581 -608.971)" fill="#fff"/>
        <path id="Trazado_689019" data-name="Trazado 689019" d="M128.2,609.592l2.464,1.375a97.7,97.7,0,0,0-9.335,29.492c-.257,1.649-.751,4.151-1.377,7.32-3.622,18.345-12.1,61.3.727,70.669a9.719,9.719,0,0,0,5.886,1.778c3.523,0,7.824-1.395,12.863-4.18,12.037-6.652,17.649-13.961,22.6-20.41,7.161-9.325,13.347-17.38,35.644-18.229l.107,2.82c-20.974.8-26.508,8-33.513,17.129-5.12,6.666-10.923,14.224-23.474,21.16-5.463,3.019-10.231,4.531-14.265,4.531a12.4,12.4,0,0,1-7.512-2.319c-14.285-10.424-5.874-53.022-1.832-73.494.62-3.138,1.109-5.615,1.357-7.207,2.8-18,9.38-29.934,9.658-30.433Zm-.181-.641-.229.412c-.28.5-6.9,12.516-9.713,30.589-.245,1.568-.726,4.01-1.336,7.1l-.017.088c-4.061,20.566-12.512,63.364,2.016,73.964a12.916,12.916,0,0,0,7.789,2.41c4.106,0,8.983-1.544,14.492-4.59,12.634-6.982,18.468-14.578,23.615-21.28,6.934-9.031,12.408-16.161,33.162-16.95l.47-.018-.018-.469-.107-2.82-.018-.47-.47.017c-22.517.858-28.764,8.992-36,18.412-4.926,6.415-10.507,13.682-22.457,20.287-4.948,2.734-9.2,4.12-12.636,4.12a9.3,9.3,0,0,1-5.608-1.687c-12.589-9.187-4.147-51.941-.543-70.2.626-3.17,1.12-5.674,1.38-7.339a97.845,97.845,0,0,1,9.282-29.337l.227-.41-.409-.229-2.464-1.375-.41-.229Z" transform="translate(-110.567 -608.951)"/>
      </g>
      <g id="Grupo_892072" data-name="Grupo 892072" transform="translate(47.497 5.945)">
        <path id="Trazado_689020" data-name="Trazado 689020" d="M169.575,627c.055-.067.1-.136.164-.2.008-.012.024-.012.035-.023a2.317,2.317,0,0,1,.314-1.56,1.673,1.673,0,0,1,.52-.475c-.246-.789.336-1.313.829-1.871a1.96,1.96,0,0,1,1.59-.858,1.681,1.681,0,0,1,.224-1.256,2.046,2.046,0,0,1,2.516-.837,1.626,1.626,0,0,1,.8-.978,2.289,2.289,0,0,1,2.591.195,2.808,2.808,0,0,1,4.293-.083c1.908-1.19,3.358,1.023,3.81,2.909a.607.607,0,0,1-.445.736c-.59,1.706-1.173,3.711-3.189,3.935-.563.063-1.165.095-1.775.1a2.915,2.915,0,0,1-.882,1.814,1.972,1.972,0,0,1-1.188.5,2.556,2.556,0,0,1,.014.351,2.428,2.428,0,0,1-1.629,2.064,1.993,1.993,0,0,1-.906.036c-.011.008-.02.016-.031.024a4.325,4.325,0,0,1-.025,1.954,3.477,3.477,0,0,1-.724,1.343c.333,1.275.244,2.943-.784,3.456.017.023.042.041.056.065a2.128,2.128,0,0,1,.357,1.036,1.96,1.96,0,0,1-1.128,1.865,1.67,1.67,0,0,1-1.088.118,2.873,2.873,0,0,1-.773.57,2.3,2.3,0,0,1-1.194.319,2.119,2.119,0,0,1-1.837-.021,2.822,2.822,0,0,1-1.7-1.592,1.78,1.78,0,0,1-.055-.754,2.247,2.247,0,0,1-1.156-1.037,1.727,1.727,0,0,1,.276-2.1,1.882,1.882,0,0,1-.728-1.092,3.3,3.3,0,0,1,.491-2.454,1.2,1.2,0,0,1,.678-.372,1.741,1.741,0,0,1-.444-1.25c.048-.594.5-.874,1.048-1a3.124,3.124,0,0,1-.535-1.58A1.911,1.911,0,0,1,169.575,627Z" transform="translate(-161.401 -615.439)"/>
        <g id="Grupo_892061" data-name="Grupo 892061" transform="translate(25.874 22.373)">
          <g id="Grupo_892060" data-name="Grupo 892060" transform="translate(1.318 14.281)">
            <path id="Trazado_689021" data-name="Trazado 689021" d="M221.928,678.112c-.74-.089-18.183-2.277-24.72-8.077a51.192,51.192,0,0,1-6.3-7.741c-.845-1.762-.892-3.263-.159-4.495,1.633-2.746,6.544-3.216,8.01-3.294l.114-.006.075.086c4.539,5.149,5.669,7.3,6.152,8.22a2.986,2.986,0,0,0,.319.533c.523.518,12.985,7.2,17.081,9.4,1.418.76,2,1.07,2.05,1.1l.2.121-.118.2c-.011.019-1.116,1.878-2.48,3.853l-.081.118Z" transform="translate(-189.996 -654.259)" fill="#fff"/>
            <path id="Trazado_689022" data-name="Trazado 689022" d="M198.756,654.726c5.851,6.639,5.979,8.205,6.473,8.755.548.611,18.93,10.387,19.183,10.542,0,0-1.1,1.849-2.471,3.84,0,0-18.035-2.2-24.592-8.02a52.785,52.785,0,0,1-6.266-7.7c-2.662-5.58,3.71-7.205,7.673-7.417Zm.2-.482-.228.012c-1.5.08-6.509.562-8.2,3.408a4.781,4.781,0,0,0,.128,4.679l.018.039.024.034a51.277,51.277,0,0,0,6.335,7.779c6.59,5.848,24.1,8.044,24.847,8.135l.283.035.161-.233c1.368-1.982,2.477-3.849,2.489-3.868l.235-.4-.393-.242c-.057-.036-.444-.243-2.075-1.117-4.04-2.167-16.339-8.76-17.022-9.356a3.5,3.5,0,0,1-.268-.467c-.487-.927-1.627-3.1-6.185-8.267l-.15-.171Z" transform="translate(-189.98 -654.244)"/>
          </g>
          <path id="Trazado_689023" data-name="Trazado 689023" d="M189.26,649.46c-1.112,1.456-.61,5.012-.253,8.46.056.526.113,1.052.151,1.56a21.731,21.731,0,0,1,.087,3.239c4.157,1.34,9.116-1.111,13.583-6.352a22.812,22.812,0,0,0-4.425-13.284c-.332-.5-.672-.961-1.024-1.409-.884-1.141-1.808-1.2-2.688-2.045C191.384,636.441,190.7,647.583,189.26,649.46Z" transform="translate(-188.579 -639.06)" fill="#aab6c2"/>
          <path id="Trazado_689024" data-name="Trazado 689024" d="M196.295,642.7c.028.607.272,1.3.283,1.926-.345,5.717-1.463,11.785-7.544,13.482.056.526.113,1.052.151,1.56,2.519-.086,8.518-2.237,9.818-3.859,2.339-2.882-.893-10.762-.881-11.11-.332-.5-.76-2.03-1.111-2.478C196.61,642.78,196.288,642.425,196.295,642.7Z" transform="translate(-188.606 -639.248)"/>
        </g>
        <path id="Trazado_689025" data-name="Trazado 689025" d="M161.068,674.463a23.724,23.724,0,0,0,6.643,2.916C181.62,681.2,198,671.571,198,671.571s-1.077-2.308-4.024-8.988c-.285-.614-.545-1.225-.8-1.849-1.286-3.067-.82-4.989.205-6.659,1.4-2.3,3.859-4.092,4.267-7.708.693-6.247-12.281-12.423-12.281-12.423-19.923-2.606-16.021,9.465-14.783,19.1.114.878.205,1.73.248,2.554.013.178.012.367.011.543.008.241.006.467,0,.707C170.543,666.225,161.068,674.463,161.068,674.463Z" transform="translate(-161.068 -616.361)" fill="#aab6c2"/>
        <path id="Trazado_689026" data-name="Trazado 689026" d="M182.632,660.772a82.152,82.152,0,0,0-.15-15.8s-.4-1.94-5.995-2.354l.963,16.642Z" transform="translate(-161.985 -616.898)"/>
        <g id="Grupo_892062" data-name="Grupo 892062" transform="translate(20.788 11.801)">
          <path id="Trazado_689027" data-name="Trazado 689027" d="M188.338,636.784c-2.174,0-4.745-3.174-4.853-3.309l-.057-.072.366-5.193,5.418,2.706-.258,3.64c.118.272.52,1.293.211,1.851a.712.712,0,0,1-.557.361A2.332,2.332,0,0,1,188.338,636.784Z" transform="translate(-183.186 -627.842)" fill="#fff"/>
          <path id="Trazado_689028" data-name="Trazado 689028" d="M183.988,628.555l4.962,2.479-.25,3.54s.829,1.813-.136,1.937a1.854,1.854,0,0,1-.241.015c-2.086,0-4.67-3.221-4.67-3.221l.335-4.75Zm-.419-.736-.05.7-.336,4.751-.013.183.116.144c.111.138,2.751,3.4,5.036,3.4a2.662,2.662,0,0,0,.3-.018.954.954,0,0,0,.733-.481,2.623,2.623,0,0,0-.178-2.006l.242-3.424.023-.312-.281-.141-4.962-2.48-.629-.314Z" transform="translate(-183.171 -627.819)"/>
        </g>
        <g id="Grupo_892063" data-name="Grupo 892063" transform="translate(20.175 2.928)">
          <path id="Trazado_689029" data-name="Trazado 689029" d="M188.159,632.43a5.222,5.222,0,0,1-5.123-4.2c-1.352-5.168,2.521-9.413,2.56-9.455l.109-.118,7.925,4.105-.014.143a29.011,29.011,0,0,1-1.967,7.723A3.761,3.761,0,0,1,188.159,632.43Z" transform="translate(-182.532 -618.401)" fill="#fff"/>
          <path id="Trazado_689030" data-name="Trazado 689030" d="M185.736,618.907l7.657,3.965a28.612,28.612,0,0,1-1.95,7.657,3.556,3.556,0,0,1-3.3,1.674,5.013,5.013,0,0,1-4.919-4.039c-1.336-5.116,2.511-9.258,2.511-9.258Zm-.091-.522-.217.235c-.165.175-3.99,4.372-2.61,9.652a5.424,5.424,0,0,0,5.326,4.352,3.966,3.966,0,0,0,3.682-1.921,28.633,28.633,0,0,0,1.985-7.788l.029-.285-.254-.132-7.657-3.965-.285-.148Z" transform="translate(-182.519 -618.385)"/>
        </g>
        <path id="Trazado_689031" data-name="Trazado 689031" d="M184.7,617.022a2.135,2.135,0,0,1,3.195-.676,2.182,2.182,0,0,1,4.051.894,2.262,2.262,0,0,1,2.58,2.309c1.285.114,1.885,2.276.831,3.144a1.512,1.512,0,0,1,.351,2.053,1.2,1.2,0,0,1-1.048.659,1.5,1.5,0,0,1-.441.3,2.144,2.144,0,0,1-2.465-1.031,4.234,4.234,0,0,1-.694-1.632c-.078-.391-.055-.893-.148-1.3a3.818,3.818,0,0,0-3.431-.065,7.056,7.056,0,0,0-.8,1.273,7.791,7.791,0,0,1-2.742,3.458,2.019,2.019,0,0,1-.887.319c-.018-.014-.042-.022-.06-.035-.016-.072-.038-.142-.053-.214-.992-.086-1.245-1.127-1.117-2.078a1.492,1.492,0,0,1-.751-.774,1.584,1.584,0,0,1,.143-1.51c-.444-.652-.629-1.589.011-1.916a1.049,1.049,0,0,1,.047-.161.85.85,0,0,0-.318-1.111,1.77,1.77,0,0,1,.29-1.963C182.353,615.58,183.742,616.033,184.7,617.022Z" transform="translate(-162.241 -615.271)"/>
        <g id="Grupo_892064" data-name="Grupo 892064" transform="translate(21.8 6.965)">
          <path id="Trazado_689032" data-name="Trazado 689032" d="M185.534,625.856a.712.712,0,0,1-.135-.013,1.258,1.258,0,0,1-.862-.911,1.644,1.644,0,0,1,.479-1.681,1.126,1.126,0,0,1,.791-.351c.769,0,1.357.892,1.383.929l.031.048,0,.056a2.172,2.172,0,0,1-.668,1.361,1.6,1.6,0,0,1-1.02.562Z" transform="translate(-184.26 -622.69)" fill="#fff"/>
          <path id="Trazado_689033" data-name="Trazado 689033" d="M185.792,623.1c.665,0,1.207.833,1.207.833.027.6-.853,1.7-1.479,1.7a.535.535,0,0,1-.095-.008,1.323,1.323,0,0,1-.277-2.234.911.911,0,0,1,.643-.292Zm0-.421a1.325,1.325,0,0,0-.937.41,1.87,1.87,0,0,0-.533,1.892,1.45,1.45,0,0,0,1.022,1.057.9.9,0,0,0,.176.017,1.8,1.8,0,0,0,1.174-.627,2.376,2.376,0,0,0,.725-1.515l-.006-.114-.062-.095a2.173,2.173,0,0,0-1.559-1.025Z" transform="translate(-184.247 -622.677)"/>
        </g>
        <path id="Trazado_689034" data-name="Trazado 689034" d="M187.065,623.2s-.766.986-1.079,1.421-.456,1.177-.82,1.509,1.465,2.364,1.971,1.586,2.12-3.822,1.909-4.18S187.065,623.2,187.065,623.2Z" transform="translate(-162.499 -615.743)" fill="#fff"/>
        <g id="Grupo_892068" data-name="Grupo 892068" transform="translate(28.666 42.266)">
          <g id="Grupo_892067" data-name="Grupo 892067">
            <path id="Trazado_689035" data-name="Trazado 689035" d="M210.663,695.066l10.839-1.735-5.22-32.594-10.839,1.737a16.5,16.5,0,0,0-13.685,18.905h0A16.5,16.5,0,0,0,210.663,695.066Z" transform="translate(-191.546 -660.242)" fill="#8979f3"/>
            <path id="Trazado_689036" data-name="Trazado 689036" d="M224.356,676.333c1.482,9.256-.253,17.229-3.877,17.81s-7.763-6.453-9.245-15.708.253-17.229,3.877-17.809S222.873,667.077,224.356,676.333Z" transform="translate(-192.686 -660.233)"/>
            <rect id="Rectángulo_342592" data-name="Rectángulo 342592" width="2.266" height="33.944" transform="translate(22.425 0.392) rotate(-9.097)"/>
            <path id="Trazado_689037" data-name="Trazado 689037" d="M226.735,675.952c1.482,9.256-.253,17.229-3.877,17.81s-7.764-6.453-9.246-15.708.254-17.229,3.878-17.81S225.252,666.7,226.735,675.952Z" transform="translate(-192.827 -660.21)"/>
            <path id="Trazado_689038" data-name="Trazado 689038" d="M222.687,692.271c-2.478.4-6.288-5.645-7.678-14.325s.342-15.611,2.821-16.007,6.289,5.644,7.679,14.324S225.165,691.874,222.687,692.271Z" transform="translate(-192.913 -660.312)" fill="#8979f3"/>
            <g id="Grupo_892065" data-name="Grupo 892065" transform="translate(24.726 5.522)">
              <path id="Trazado_689039" data-name="Trazado 689039" d="M219.776,674.673c-.692,0-1.423-1.049-1.63-2.338-.221-1.379.2-2.642.921-2.758l20.058-3.212a2.663,2.663,0,0,1,.411-.033,2.576,2.576,0,0,1,.4,5.119l-20.057,3.213A.68.68,0,0,1,219.776,674.673Z" transform="translate(-217.851 -666.097)" fill="#fff"/>
              <path id="Trazado_689040" data-name="Trazado 689040" d="M239.521,666.552a2.341,2.341,0,0,1,.367,4.653l-20.057,3.212a.42.42,0,0,1-.069.006c-.51,0-1.193-.861-1.4-2.141-.213-1.323.209-2.4.726-2.488l20.057-3.213a2.489,2.489,0,0,1,.373-.029Zm0-.47a2.907,2.907,0,0,0-.449.036l-20.057,3.212c-.862.139-1.362,1.494-1.116,3.027.232,1.447,1.046,2.537,1.862,2.537a1.043,1.043,0,0,0,.143-.01l20.057-3.214a2.811,2.811,0,0,0-.441-5.587Z" transform="translate(-217.837 -666.082)"/>
            </g>
            <g id="Grupo_892066" data-name="Grupo 892066" transform="translate(26.591 17.164)">
              <path id="Trazado_689041" data-name="Trazado 689041" d="M221.758,687.051c-.691,0-1.423-1.049-1.629-2.339a3.88,3.88,0,0,1,.131-1.917c.18-.489.461-.786.79-.839l20.057-3.213a2.655,2.655,0,0,1,.411-.033,2.576,2.576,0,0,1,.4,5.119l-20.058,3.213A.67.67,0,0,1,221.758,687.051Z" transform="translate(-219.834 -678.475)" fill="#fff"/>
              <path id="Trazado_689042" data-name="Trazado 689042" d="M241.5,678.93a2.341,2.341,0,0,1,.367,4.653l-20.058,3.212a.418.418,0,0,1-.069.006c-.509,0-1.192-.86-1.4-2.141a3.713,3.713,0,0,1,.119-1.8c.148-.4.369-.65.607-.688l20.058-3.212a2.367,2.367,0,0,1,.373-.03Zm0-.47a2.91,2.91,0,0,0-.448.036L221,681.709c-.862.137-1.362,1.493-1.115,3.026.231,1.447,1.046,2.537,1.861,2.537a.922.922,0,0,0,.144-.011l20.057-3.213a2.811,2.811,0,0,0-.441-5.587Z" transform="translate(-219.819 -678.46)"/>
            </g>
          </g>
        </g>
        <g id="Grupo_892071" data-name="Grupo 892071" transform="translate(4.374 19.089)">
          <g id="Grupo_892069" data-name="Grupo 892069" transform="translate(2.292 11.501)">
            <path id="Trazado_689043" data-name="Trazado 689043" d="M196,684.011c-.934-.257-22.9-6.387-25.219-14.874l-.445-1.626c-1.793-6.523-2.115-7.7-1.842-15.14.438-3.579,2.679-4.325,4.481-4.325a14.443,14.443,0,0,1,6.327,2l.1.056.017.113A106.775,106.775,0,0,1,181,666.292c.3.514,7.094,5.724,17.734,13.5l.457.337-.146.189c-.1.136-2.57,3.335-2.808,3.614l-.1.114Z" transform="translate(-168.171 -647.811)" fill="#fff"/>
            <path id="Trazado_689044" data-name="Trazado 689044" d="M172.956,648.266a13.865,13.865,0,0,1,6.211,1.968,108.739,108.739,0,0,1,1.586,16.008c-.1.671,17.855,13.746,18.092,13.923,0,0-2.564,3.328-2.8,3.6,0,0-22.748-6.253-25.055-14.71-2.182-8-2.572-8.714-2.278-16.7.378-3.082,2.143-4.1,4.245-4.1Zm0-.47h0c-1.9,0-4.254.783-4.712,4.512-.279,7.515.045,8.7,1.845,15.25l.446,1.626c2.35,8.616,24.444,14.782,25.384,15.04l.288.079.194-.227c.24-.279,2.553-3.282,2.817-3.624l.292-.379-.383-.286-.247-.181c-10.162-7.429-16.851-12.536-17.644-13.466a116.112,116.112,0,0,0-1.6-15.979l-.035-.225-.2-.112a14.691,14.691,0,0,0-6.443-2.028Z" transform="translate(-168.156 -647.796)"/>
          </g>
          <path id="Trazado_689045" data-name="Trazado 689045" d="M181.01,655.542c.378-1.277,2.672-9.844.549-15.429-.966-2.541-4.816-5.328-8.1-4.341-5.263,1.578-6.364,9.1-7.738,16.642C170.219,655.727,174.985,657.118,181.01,655.542Z" transform="translate(-165.719 -635.568)" fill="#aab6c2"/>
          <g id="Grupo_892070" data-name="Grupo 892070" transform="translate(28.356 43.219)">
            <path id="Trazado_689046" data-name="Trazado 689046" d="M201.714,689.96c-.507,0-.969-.751-1.567-1.812-.122-.217-.266-.473-.36-.61a2.61,2.61,0,0,0,.063.656c.08.45.154.875-.052,1.121a.47.47,0,0,1-.374.164,1.02,1.02,0,0,1-.361-.078c-.7-.264-1.054-1.418-1.4-2.532a5.7,5.7,0,0,0-.518-1.346,2.33,2.33,0,0,0-.422-.4,1.172,1.172,0,0,1-.581-1.234c.27-1.548,2.66-1.961,4.029-1.961l.211,0a18.23,18.23,0,0,1,2.116-.158,3.516,3.516,0,0,1,1.515.238c.3.151.642.456.623.814-.008.135-.08.384-.477.531a1.737,1.737,0,0,1-.55.1,5.688,5.688,0,0,1,2.311,3.985,1.3,1.3,0,0,1-.27.943.555.555,0,0,1-.4.174.992.992,0,0,1-.787-.565,2.548,2.548,0,0,1,.137,1.311.553.553,0,0,1-.259.345.742.742,0,0,1-.356.093c-.736,0-1.3-1.131-1.752-2.042l-.093-.186c.026.214.078.482.115.672a2.892,2.892,0,0,1,.106,1.042c-.126.487-.341.734-.64.734Z" transform="translate(-195.883 -681.536)" fill="#fff"/>
            <path id="Trazado_689047" data-name="Trazado 689047" d="M202.481,681.991a3.436,3.436,0,0,1,1.409.213c.409.207.786.687.171.915a1.611,1.611,0,0,1-.559.086,4.006,4.006,0,0,1-.686-.07l-.016,0c1.478,1.019,2.831,2.571,2.868,4.3.012.593-.186.878-.439.878-.225,0-.492-.224-.7-.656a4.443,4.443,0,0,0-1.18-1.747c-.117,0,.015.449.63,1.575.285.521.613,1.733.225,1.945a.515.515,0,0,1-.245.065c-.731,0-1.395-1.683-1.8-2.423A.309.309,0,0,0,202,687c-.388,0,.215,1.755.112,2.149s-.246.557-.413.557c-.653,0-1.652-2.467-1.891-2.478h-.021c-.72,0,.362,2-.378,2a.823.823,0,0,1-.277-.063c-.946-.359-1.3-3.115-1.814-3.8-.424-.56-1.1-.65-.96-1.453.231-1.327,2.372-1.766,3.8-1.766.082,0,.161,0,.238,0l0,0a18.112,18.112,0,0,1,2.087-.155Zm0-.47a17.99,17.99,0,0,0-2.124.157c-.065,0-.132,0-.2,0-1.444,0-3.967.453-4.263,2.156a1.4,1.4,0,0,0,.666,1.458,2.149,2.149,0,0,1,.382.36,6,6,0,0,1,.481,1.273c.363,1.169.738,2.377,1.542,2.682a1.238,1.238,0,0,0,.444.094.709.709,0,0,0,.555-.248,1.068,1.068,0,0,0,.177-.828c.552.955.993,1.559,1.558,1.559.289,0,.673-.158.868-.91a1.147,1.147,0,0,0,.021-.391c.373.6.818,1.081,1.376,1.081a.969.969,0,0,0,.469-.123.771.771,0,0,0,.371-.483,1.727,1.727,0,0,0,.037-.668.9.9,0,0,0,.387.091.8.8,0,0,0,.573-.245,1.5,1.5,0,0,0,.337-1.114,5.6,5.6,0,0,0-2.013-3.826l.1-.033a.838.838,0,0,0,.628-.739,1.217,1.217,0,0,0-.751-1.036,3.717,3.717,0,0,0-1.621-.263Z" transform="translate(-195.869 -681.521)"/>
          </g>
          <path id="Trazado_689048" data-name="Trazado 689048" d="M200.447,682.153l-1.281-.938-4.089,1.277.242,2.393,1.476.627.886.368Z" transform="translate(-167.465 -638.283)" fill="#fff"/>
        </g>
      </g>
    </g>
    <g id="Grupo_892085" data-name="Grupo 892085" transform="translate(116.497 520.892)">
      <g id="Grupo_892084" data-name="Grupo 892084" transform="translate(0)">
        <g id="Grupo_892074" data-name="Grupo 892074" transform="translate(7.984)">
          <path id="Trazado_689049" data-name="Trazado 689049" d="M135.158,535.9a29.3,29.3,0,1,1,35.033,42.034c-8.186,2.791-15.852,7.969-20.074,15.518l-.425.761-20.675-11.564.377-.679c4.242-7.582,4.658-16.865,2.751-25.34A29.186,29.186,0,0,1,135.158,535.9Z" transform="translate(-129.016 -520.892)" fill="#aab6c2"/>
        </g>
        <g id="Grupo_892075" data-name="Grupo 892075" transform="translate(22.668 13.901)">
          <path id="Trazado_689050" data-name="Trazado 689050" d="M144.647,566.26c.017-.064,1.812-6.373,3.976-12.46a78.6,78.6,0,0,1,3.162-7.832,5.059,5.059,0,0,1-1.081-1.483c-2.446-4.95,4.358-8.616,4.648-8.77.235-.125.619.036.845.366s.225.7-.008.821c-1.793.945-6.09,4.124-4.465,7.411a2.99,2.99,0,0,0,.514.761c1.868-3.533,2.767-3.2,3.289-3.011a2.389,2.389,0,0,1,1.593,1.676c.321,1.517-1.413,3.184-3.253,3.125a2.962,2.962,0,0,1-.892-.166,144.76,144.76,0,0,0-7.171,20.334c-.078.279-.4.33-.721.119a1.17,1.17,0,0,1-.218-.2A.81.81,0,0,1,144.647,566.26ZM155.6,543.254c-.492-.126-1.211.751-2.067,2.342,1.363-.036,2.575-1.357,2.42-2.1a.134.134,0,0,0-.035-.067A.788.788,0,0,0,155.6,543.254Z" transform="translate(-144.629 -535.672)"/>
        </g>
        <g id="Grupo_892076" data-name="Grupo 892076" transform="translate(34.319 26.132)">
          <path id="Trazado_689051" data-name="Trazado 689051" d="M157.666,574.483a1.134,1.134,0,0,1-.278-.085c-.35-.162-.473-.466-.277-.678a144.669,144.669,0,0,0,13.584-16.746,2.865,2.865,0,0,1-.609-.67c-1.012-1.542-.5-3.891.962-4.409a2.389,2.389,0,0,1,2.262.481c.436.345,1.189.939-.846,4.379a3.028,3.028,0,0,0,.916.04c3.651-.334,4.115-5.659,3.984-7.681-.017-.266.293-.463.694-.435s.738.26.756.525c.02.329.451,8.046-5.047,8.549a5.012,5.012,0,0,1-1.828-.145,78.863,78.863,0,0,1-5.024,6.792c-4.056,5.026-8.5,9.856-8.542,9.9A.809.809,0,0,1,157.666,574.483Zm14.269-21.726a.168.168,0,0,0-.074.006c-.712.252-1.206,1.978-.521,3.159.907-1.562,1.278-2.634.915-2.986A.748.748,0,0,0,171.935,552.757Z" transform="translate(-157.017 -548.677)"/>
        </g>
        <g id="Grupo_892077" data-name="Grupo 892077" transform="translate(11.501 43.516)">
          <path id="Trazado_689052" data-name="Trazado 689052" d="M144.315,567.492l.9-.165a10.594,10.594,0,0,1,11.725,6.557l.334.857L145.72,595.407l-12.964-7.249Zm11.435,7.143-.1-.246a9.2,9.2,0,0,0-10.187-5.7l-.26.047-10.563,18.888,10.545,5.9Z" transform="translate(-132.756 -567.16)"/>
        </g>
        <g id="Grupo_892078" data-name="Grupo 892078" transform="translate(5.796 59.733)">
          <path id="Trazado_689053" data-name="Trazado 689053" d="M127.616,587.793l21.432,11.985a1.807,1.807,0,0,0,2.461-.7v0a1.806,1.806,0,0,0-.7-2.46l-21.431-11.987a1.812,1.812,0,0,0-2.463.7h0A1.811,1.811,0,0,0,127.616,587.793Z" transform="translate(-126.69 -584.403)"/>
        </g>
        <g id="Grupo_892079" data-name="Grupo 892079" transform="translate(5.315 63.583)">
          <path id="Trazado_689054" data-name="Trazado 689054" d="M126.96,591.842l19.14,10.7a1.722,1.722,0,0,0,2.293-.791h0a1.721,1.721,0,0,0-.526-2.369l-19.14-10.7a1.721,1.721,0,0,0-2.293.791h0A1.721,1.721,0,0,0,126.96,591.842Z" transform="translate(-126.179 -588.497)" fill="#aab6c2"/>
        </g>
        <g id="Grupo_892080" data-name="Grupo 892080" transform="translate(3.544 66.749)">
          <path id="Trazado_689055" data-name="Trazado 689055" d="M125.075,595.208l19.141,10.7a1.718,1.718,0,0,0,2.293-.791h0a1.719,1.719,0,0,0-.528-2.367l-19.138-10.7a1.723,1.723,0,0,0-2.295.79h0A1.724,1.724,0,0,0,125.075,595.208Z" transform="translate(-124.296 -591.863)"/>
        </g>
        <g id="Grupo_892081" data-name="Grupo 892081" transform="translate(1.772 69.915)">
          <path id="Trazado_689056" data-name="Trazado 689056" d="M123.194,598.573l19.138,10.7a1.72,1.72,0,0,0,2.293-.791h0a1.72,1.72,0,0,0-.526-2.368l-19.14-10.7a1.72,1.72,0,0,0-2.295.79h0A1.722,1.722,0,0,0,123.194,598.573Z" transform="translate(-122.411 -595.229)" fill="#aab6c2"/>
        </g>
        <g id="Grupo_892082" data-name="Grupo 892082" transform="translate(0 73.079)">
          <path id="Trazado_689057" data-name="Trazado 689057" d="M121.309,601.939l19.139,10.7a1.719,1.719,0,0,0,2.294-.788h0a1.72,1.72,0,0,0-.529-2.368l-19.138-10.7a1.721,1.721,0,0,0-2.294.791h0A1.721,1.721,0,0,0,121.309,601.939Z" transform="translate(-120.528 -598.593)"/>
        </g>
        <g id="Grupo_892083" data-name="Grupo 892083" transform="translate(1.664 77.187)">
          <path id="Trazado_689058" data-name="Trazado 689058" d="M134.267,613.551l-10.115-5.664a3.617,3.617,0,0,1-1.392-4.926h0l16.437,9.2h0A3.623,3.623,0,0,1,134.267,613.551Z" transform="translate(-122.297 -602.961)" fill="#aab6c2"/>
        </g>
      </g>
    </g>
    <g id="Grupo_892087" data-name="Grupo 892087" transform="translate(83.401 571.407)">
      <g id="Grupo_892086" data-name="Grupo 892086" transform="translate(1.896 15.451)">
        <path id="Trazado_689059" data-name="Trazado 689059" d="M108.1,619.743a6.269,6.269,0,0,1-1.91-.283,9.439,9.439,0,0,1-2.68-1.589,49.764,49.764,0,0,1-7.17-7.3l-.2-.24c-.2-.242-.393-.481-.582-.734-.633-.785-1.257-1.6-1.852-2.426-2.017-2.759-6.647-9.548-6.057-13.008a2.156,2.156,0,0,1,.89-1.485c1.337-.916,4.9-1.4,7.731-1.4,1.43,0,4.859.135,5.822,1.385a1.2,1.2,0,0,1,.214,1.083c-.751,2.9,6.438,14.149,8.426,15.468,1.3,0,8.664-3.406,15.167-6.609a6.435,6.435,0,0,1,1.351-2.8,1.264,1.264,0,0,1,.767-.327.547.547,0,0,1,.4.162.735.735,0,0,1,.17.56,1.863,1.863,0,0,1-.136.594,7.158,7.158,0,0,1,3.26-.909,4.162,4.162,0,0,1,1.543.281c.847.335.869.785.839.965-.061.359-.447.608-1.02.664.515.032,1.605.174,1.667.786a.756.756,0,0,1-.177.578c-.441.522-1.609.6-2.549.657l-.284.02c.225.067.54.134.761.179a3.106,3.106,0,0,1,1.045.317c.143.11.577.44.467.844-.147.532-1.088.681-2.4.834-.268.031-.586.068-.752.1a2.264,2.264,0,0,0,.676.223c.5.114.98.222,1.087.576a.718.718,0,0,1-.245.657,2.053,2.053,0,0,1-1.521.419h0c-.475,0-.988-.05-1.485-.1-.419-.04-.813-.08-1.127-.08a1.625,1.625,0,0,0-.388.036,2.533,2.533,0,0,0-.561.244,2.433,2.433,0,0,1-.518.229q-.3.293-.7.656l-.077.071C123.129,611.69,114.387,619.743,108.1,619.743Z" transform="translate(-87.369 -591.045)" fill="#fff"/>
        <path id="Trazado_689060" data-name="Trazado 689060" d="M96.26,591.5c3.277,0,6.219.619,5.809,2.174-.813,3.136,6.579,14.432,8.523,15.723a.318.318,0,0,0,.172.036c1.667,0,12.5-5.284,15.32-6.674a7.219,7.219,0,0,1,1.307-2.792,1.061,1.061,0,0,1,.615-.272c.2,0,.354.128.34.478a2.654,2.654,0,0,1-.491,1.209l-.008.016a7.489,7.489,0,0,1,3.858-1.3,3.983,3.983,0,0,1,1.458.264c1.087.431.824,1.141-.245,1.186-1.681.071-2.917.545-1.645.545.285,0,.7-.024,1.257-.082a2.745,2.745,0,0,1,.277-.012c.665,0,1.652.183,1.694.584.1.98-2.132.918-3.109,1.024-.713.48,1.621.606,2,.891,1.7,1.292-2.655,1.166-2.791,1.449-.381.791,2.571.413,1.6,1.438a1.929,1.929,0,0,1-1.352.347c-.874,0-1.928-.176-2.611-.176a1.923,1.923,0,0,0-.447.041c-.463.119-.778.416-1.138.486-.214.206-.458.439-.738.7-2.821,2.6-11.568,10.707-17.819,10.707a6.021,6.021,0,0,1-1.839-.272,9.263,9.263,0,0,1-2.607-1.551,49.412,49.412,0,0,1-7.133-7.266c-.261-.323-.523-.632-.77-.965q-.965-1.2-1.851-2.423c-4.458-6.095-7.655-12.493-5.224-14.161,1.192-.816,4.54-1.354,7.6-1.354Zm0-.47c-2.866,0-6.487.494-7.864,1.436a2.38,2.38,0,0,0-.988,1.64c-.606,3.548,4.063,10.4,6.1,13.188.6.823,1.224,1.644,1.865,2.44.18.243.378.486.579.731l.192.235a49.41,49.41,0,0,0,7.21,7.343,9.638,9.638,0,0,0,2.752,1.626,6.467,6.467,0,0,0,1.982.294c6.378,0,15.171-8.1,18.06-10.76l.078-.072q.367-.341.656-.62a2.813,2.813,0,0,0,.509-.23,2.273,2.273,0,0,1,.509-.224,1.417,1.417,0,0,1,.33-.027c.3,0,.689.039,1.1.078.5.048,1.02.1,1.507.1a2.374,2.374,0,0,0,1.692-.493.892.892,0,0,0,.3-.887c-.111-.369-.465-.53-.867-.641,1.26-.157,2.091-.344,2.261-.966.1-.368-.085-.735-.552-1.091a1.388,1.388,0,0,0-.46-.2,2.368,2.368,0,0,0,1.524-.63.987.987,0,0,0,.232-.754c-.047-.468-.5-.72-.976-.854a.885.885,0,0,0,.326-.533c.04-.235.024-.825-.983-1.224a4.456,4.456,0,0,0-1.631-.3,7.082,7.082,0,0,0-2.9.7c.007-.048.01-.1.012-.145a.952.952,0,0,0-.235-.732.784.784,0,0,0-.574-.235,1.508,1.508,0,0,0-.919.383,6.427,6.427,0,0,0-1.394,2.819c-8.008,3.941-13.827,6.492-14.9,6.536-2.048-1.491-9-12.359-8.266-15.171a1.437,1.437,0,0,0-.256-1.285c-.989-1.285-4.189-1.477-6.008-1.477Z" transform="translate(-87.354 -591.03)"/>
      </g>
      <path id="Trazado_689061" data-name="Trazado 689061" d="M103.465,594.885c0-1.4-.1-10.349-3.914-15.362-1.735-2.282-7.278-6.377-10.305-4.4-4.85,3.171-4.154,14.288-3.289,22.327C91.5,599.457,97.845,598.282,103.465,594.885Z" transform="translate(-85.338 -574.602)" fill="#8979f3"/>
    </g>
  </g>
</svg>
