<svg id="test" xmlns="http://www.w3.org/2000/svg" width="23.987" height="23.987" viewBox="0 0 23.987 23.987">
  <path id="Trazado_688517" data-name="Trazado 688517" d="M23.987,11.994A11.994,11.994,0,1,1,11.994,0,11.994,11.994,0,0,1,23.987,11.994Zm0,0" fill="#382b73"/>
  <path id="Trazado_688518" data-name="Trazado 688518" d="M52.956,42.579A10.376,10.376,0,1,1,42.579,32.2,10.376,10.376,0,0,1,52.956,42.579Zm0,0" transform="translate(-30.586 -30.586)" fill="#473080"/>
  <path id="Trazado_688519" data-name="Trazado 688519" d="M106.561,143.3H93.068a.6.6,0,0,0-.6.6v8.371a.6.6,0,0,0,.6.6H98.4a4.569,4.569,0,0,1-.173,1.053c-.015.052-.032.1-.049.156s-.024.076-.037.113c-.019.054-.041.107-.062.16-.014.034-.026.069-.041.1-.025.058-.052.115-.079.172-.014.028-.026.057-.04.085-.042.085-.087.168-.135.25l-.088.151h-1.5a.492.492,0,0,0-.426.249v0a.521.521,0,0,0-.026.051l0,0a.5.5,0,0,0-.026.082c0,.007,0,.014,0,.021a.466.466,0,0,0,0,.188.474.474,0,0,0,.029.093.494.494,0,0,0,.455.3h7.249a.494.494,0,0,0,.455-.3.488.488,0,0,0,.029-.093.476.476,0,0,0,0-.188l0-.021a.5.5,0,0,0-.025-.082l0,0a.449.449,0,0,0-.026-.051v0a.492.492,0,0,0-.427-.249h-1.5l-.088-.151q-.072-.123-.135-.25c-.014-.028-.026-.057-.04-.085-.027-.057-.054-.114-.079-.172-.015-.034-.027-.069-.041-.1-.021-.053-.043-.106-.062-.16-.013-.037-.025-.075-.037-.113s-.034-.1-.049-.156a4.572,4.572,0,0,1-.173-1.053h5.328a.6.6,0,0,0,.6-.6V143.9A.6.6,0,0,0,106.561,143.3Zm0,0" transform="translate(-87.821 -136.104)" fill="#382b73"/>
  <path id="Trazado_688520" data-name="Trazado 688520" d="M106.561,146.475H93.068a.6.6,0,0,1-.6-.6V137.9a.6.6,0,0,1,.6-.6h13.494a.6.6,0,0,1,.6.6v7.969A.6.6,0,0,1,106.561,146.475Zm0,0" transform="translate(-87.821 -130.405)" fill="#d1d3d4"/>
  <path id="Trazado_688521" data-name="Trazado 688521" d="M106.561,138.475H93.068a.6.6,0,0,1-.6-.6V129.9a.6.6,0,0,1,.6-.6h13.494a.6.6,0,0,1,.6.6v7.969A.6.6,0,0,1,106.561,138.475Zm0,0" transform="translate(-87.821 -122.807)" fill="#fff"/>
  <path id="Trazado_688522" data-name="Trazado 688522" d="M117.16,147.337H104a.2.2,0,0,1-.2-.2V139.5a.2.2,0,0,1,.2-.2H117.16a.2.2,0,0,1,.2.2v7.634A.2.2,0,0,1,117.16,147.337Zm0,0" transform="translate(-98.587 -132.304)" fill="#1caee4"/>
  <path id="Trazado_688523" data-name="Trazado 688523" d="M117.16,139.3H104a.2.2,0,0,0-.2.2v.4a.2.2,0,0,1,.2-.2H117.16a.2.2,0,0,1,.2.2v-.4A.2.2,0,0,0,117.16,139.3Zm0,0" transform="translate(-98.587 -132.304)" fill="#009add"/>
  <path id="Trazado_688524" data-name="Trazado 688524" d="M200.795,322.212h-4.244l.088-.151a4.564,4.564,0,0,0,.615-2.092h2.838a4.564,4.564,0,0,0,.615,2.092Zm0,0" transform="translate(-186.679 -303.898)" fill="#bcbec0"/>
  <path id="Trazado_688525" data-name="Trazado 688525" d="M164.547,365.621H157.3a.494.494,0,0,1,0-.988h7.249a.494.494,0,1,1,0,.988Zm0,0" transform="translate(-148.929 -346.319)" fill="#fff"/>
  <path id="Trazado_688526" data-name="Trazado 688526" d="M164.547,369.8H157.3a.493.493,0,0,1-.428-.247.494.494,0,0,0,.428.741h7.249a.494.494,0,0,0,.428-.741A.494.494,0,0,1,164.547,369.8Zm0,0" transform="translate(-148.929 -350.99)" fill="#d1d3d4"/>
  <path id="Trazado_688527" data-name="Trazado 688527" d="M196.639,341.449l-.088.151h4.244l-.088-.151a4.566,4.566,0,0,1-.451-1.067H197.09A4.563,4.563,0,0,1,196.639,341.449Zm0,0" transform="translate(-186.679 -323.287)" fill="#e6e7e8"/>
  <path id="Trazado_688528" data-name="Trazado 688528" d="M171.689,169.593v-1.646a.193.193,0,0,0-.193-.193h-7.107a.193.193,0,0,0-.193.193v1.646a.193.193,0,1,1,0,.387v1.646a.193.193,0,1,1,0,.387v1.646a.193.193,0,0,0,.193.193H171.5a.193.193,0,0,0,.193-.193v-1.646a.193.193,0,1,1,0-.387V169.98a.193.193,0,1,1,0-.387Zm0,0" transform="translate(-155.949 -159.329)" fill="#009add"/>
  <path id="Trazado_688529" data-name="Trazado 688529" d="M171.5,163.786h-7.107a.193.193,0,0,1-.193-.193v-1.646a.193.193,0,0,1,.193-.193H171.5a.193.193,0,0,1,.193.193v1.646A.193.193,0,0,1,171.5,163.786Zm0,0" transform="translate(-155.949 -153.63)" fill="#e6e7e8"/>
  <path id="Trazado_688530" data-name="Trazado 688530" d="M171.5,204.255h-7.107a.194.194,0,0,1-.193-.193v-1.646a.194.194,0,0,1,.193-.193H171.5a.193.193,0,0,1,.193.193v1.646A.193.193,0,0,1,171.5,204.255Zm0,0" transform="translate(-155.949 -192.066)" fill="#fff"/>
  <path id="Trazado_688531" data-name="Trazado 688531" d="M171.5,244.728h-7.107a.193.193,0,0,1-.193-.193v-1.646a.194.194,0,0,1,.193-.193H171.5a.193.193,0,0,1,.193.193v1.646A.193.193,0,0,1,171.5,244.728Zm0,0" transform="translate(-155.949 -230.506)" fill="#e6e7e8"/>
  <path id="Trazado_688532" data-name="Trazado 688532" d="M263.8,213.556l.007-.016a.24.24,0,0,0,.007-.023c0-.006,0-.012,0-.019s0-.009,0-.014a.235.235,0,0,0,0-.053s0-.006,0-.009a.226.226,0,0,0-.006-.03l0-.008a.243.243,0,0,0-.059-.1l-.249-.249.249-.249a.224.224,0,0,0,.028-.035l.008-.013a.269.269,0,0,0,.013-.025l.007-.016a.2.2,0,0,0,.007-.023c0-.006,0-.012,0-.019s0-.009,0-.014a.237.237,0,0,0,0-.053s0-.006,0-.009a.246.246,0,0,0-.006-.03l0-.008a.242.242,0,0,0-.4-.1l-.249.249-.249-.249a.242.242,0,0,0-.393.07.247.247,0,0,0-.011.03l0,.008a.219.219,0,0,0-.006.03s0,.006,0,.009a.235.235,0,0,0,0,.052s0,.009,0,.014,0,.013,0,.019a.238.238,0,0,0,.007.023.147.147,0,0,0,.007.016.222.222,0,0,0,.013.025l.008.013a.248.248,0,0,0,.028.035l.249.249-.249.249a.244.244,0,0,0-.059.1l0,.008a.222.222,0,0,0-.006.03s0,.006,0,.009a.235.235,0,0,0,0,.052s0,.009,0,.014,0,.013,0,.019a.243.243,0,0,0,.007.023l.007.016a.224.224,0,0,0,.013.025l.008.013a.261.261,0,0,0,.028.035.244.244,0,0,0,.345,0l.249-.249.249.249a.244.244,0,0,0,.345,0,.248.248,0,0,0,.028-.035l.008-.013A.257.257,0,0,0,263.8,213.556Zm0,0" transform="translate(-249.314 -201.703)" fill="#e6e7e8"/>
  <path id="Trazado_688533" data-name="Trazado 688533" d="M263.484,209.3l.249-.249a.244.244,0,0,0-.345-.345l-.249.249-.249-.249a.244.244,0,0,0-.345.345l.249.249-.249.249a.244.244,0,0,0,.345.345l.249-.249.249.249a.244.244,0,0,0,.345-.345Zm0,0" transform="translate(-249.291 -198.159)" fill="#ef5a9d"/>
  <path id="Trazado_688534" data-name="Trazado 688534" d="M262.8,211.984l.1-.1-.351-.351a.247.247,0,0,1-.048-.07.243.243,0,0,0,.048.275Zm0,0" transform="translate(-249.301 -200.84)" fill="#e43d91"/>
  <path id="Trazado_688535" data-name="Trazado 688535" d="M280.9,211.531l-.351.351.1.1.249-.249a.243.243,0,0,0,.048-.275A.24.24,0,0,1,280.9,211.531Zm0,0" transform="translate(-266.46 -200.84)" fill="#e43d91"/>
  <path id="Trazado_688536" data-name="Trazado 688536" d="M263.742,224.932a.244.244,0,0,1-.345,0l-.249-.249-.249.249a.242.242,0,0,1-.393-.07.243.243,0,0,0,.393.275l.249-.249.249.249a.243.243,0,0,0,.393-.275A.234.234,0,0,1,263.742,224.932Zm0,0" transform="translate(-249.301 -213.399)" fill="#e43d91"/>
  <path id="Trazado_688537" data-name="Trazado 688537" d="M261.738,171.372a.234.234,0,0,0-.332,0l-.643.643-.263-.263a.235.235,0,0,0-.332.332l.429.428a.235.235,0,0,0,.332,0l.808-.808A.235.235,0,0,0,261.738,171.372Zm0,0" transform="translate(-247.037 -162.7)" fill="#d1d3d4"/>
  <path id="Trazado_688538" data-name="Trazado 688538" d="M260.76,168.847a.233.233,0,0,1-.166-.069l-.429-.428a.235.235,0,0,1,.332-.332l.263.263.643-.642a.234.234,0,0,1,.332.332l-.808.808A.233.233,0,0,1,260.76,168.847Zm0,0" transform="translate(-247.033 -159.153)" fill="#ef5a9d"/>
  <path id="Trazado_688539" data-name="Trazado 688539" d="M261.741,169.893l-.808.808a.235.235,0,0,1-.332,0l-.429-.429a.233.233,0,0,1-.035-.046.234.234,0,0,0,.035.286l.429.428a.234.234,0,0,0,.332,0l.808-.808a.234.234,0,0,0,.035-.286A.23.23,0,0,1,261.741,169.893Zm0,0" transform="translate(-247.04 -161.317)" fill="#e43d91"/>
  <path id="Trazado_688540" data-name="Trazado 688540" d="M261.738,253.263a.234.234,0,0,0-.332,0l-.643.643-.263-.263a.235.235,0,0,0-.332.332l.429.429a.235.235,0,0,0,.332,0l.808-.808A.235.235,0,0,0,261.738,253.263Zm0,0" transform="translate(-247.037 -240.478)" fill="#d1d3d4"/>
  <path id="Trazado_688541" data-name="Trazado 688541" d="M260.76,250.737a.233.233,0,0,1-.166-.069l-.429-.429a.234.234,0,0,1,.332-.332l.263.263.643-.643a.234.234,0,1,1,.332.332l-.808.808A.232.232,0,0,1,260.76,250.737Zm0,0" transform="translate(-247.033 -236.931)" fill="#ef5a9d"/>
  <path id="Trazado_688542" data-name="Trazado 688542" d="M261.741,251.78l-.808.808a.235.235,0,0,1-.332,0l-.429-.429a.228.228,0,0,1-.035-.046.234.234,0,0,0,.035.286l.429.429a.235.235,0,0,0,.332,0l.808-.808a.234.234,0,0,0,.035-.286A.226.226,0,0,1,261.741,251.78Zm0,0" transform="translate(-247.04 -239.091)" fill="#e43d91"/>
  <g id="Grupo_891760" data-name="Grupo 891760" transform="translate(8.676 8.13)">
    <path id="Trazado_688543" data-name="Trazado 688543" d="M235.594,161.875h.322v6.092h-.322Zm0,0" transform="translate(-232.437 -161.875)" fill="#d1d3d4"/>
    <path id="Trazado_688544" data-name="Trazado 688544" d="M174.906,171.988H172.94a.193.193,0,1,1,0-.387h1.966a.193.193,0,1,1,0,.387Zm0,0" transform="translate(-172.746 -171.113)" fill="#d1d3d4"/>
    <path id="Trazado_688545" data-name="Trazado 688545" d="M175.335,185.066h-2.4a.193.193,0,1,1,0-.387h2.4a.193.193,0,0,1,0,.387Zm0,0" transform="translate(-172.746 -183.534)" fill="#d1d3d4"/>
  </g>
  <path id="Trazado_688546" data-name="Trazado 688546" d="M174.906,212.457H172.94a.193.193,0,0,1,0-.387h1.966a.193.193,0,1,1,0,.387Zm0,0" transform="translate(-164.07 -201.419)" fill="#e6e7e8"/>
  <path id="Trazado_688547" data-name="Trazado 688547" d="M175.335,225.535h-2.4a.193.193,0,1,1,0-.387h2.4a.193.193,0,0,1,0,.387Zm0,0" transform="translate(-164.07 -213.84)" fill="#e6e7e8"/>
  <path id="Trazado_688548" data-name="Trazado 688548" d="M174.906,252.93H172.94a.193.193,0,1,1,0-.387h1.966a.193.193,0,1,1,0,.387Zm0,0" transform="translate(-164.07 -239.859)" fill="#d1d3d4"/>
  <path id="Trazado_688549" data-name="Trazado 688549" d="M175.335,266.008h-2.4a.193.193,0,1,1,0-.387h2.4a.193.193,0,0,1,0,.387Zm0,0" transform="translate(-164.07 -252.28)" fill="#d1d3d4"/>
  <path id="Trazado_688550" data-name="Trazado 688550" d="M210.465,111.383a1.582,1.582,0,1,1-1.582-1.582A1.582,1.582,0,0,1,210.465,111.383Zm0,0" transform="translate(-196.889 -104.286)" fill="#e7ad27"/>
  <path id="Trazado_688551" data-name="Trazado 688551" d="M210.465,107.383a1.582,1.582,0,1,1-1.582-1.582A1.582,1.582,0,0,1,210.465,107.383Zm0,0" transform="translate(-196.889 -100.487)" fill="#fede3a"/>
  <path id="Trazado_688552" data-name="Trazado 688552" d="M215.576,115.3a1.228,1.228,0,1,1,1.228-1.228A1.229,1.229,0,0,1,215.576,115.3Zm0-2.237a1.009,1.009,0,1,0,1.009,1.009A1.01,1.01,0,0,0,215.576,113.067Zm0,0" transform="translate(-203.582 -107.18)" fill="#1caee4"/>
  <path id="Trazado_688553" data-name="Trazado 688553" d="M218.768,116.15a1.118,1.118,0,1,0-1.118,1.118A1.118,1.118,0,0,0,218.768,116.15Zm-1.118,1.009a1.009,1.009,0,1,1,1.009-1.009A1.01,1.01,0,0,1,217.65,117.159Zm0,0" transform="translate(-205.656 -109.254)" fill="#009add"/>
  <path id="Trazado_688554" data-name="Trazado 688554" d="M225.389,115.3c-.4,0-.709-.54-.709-1.228s.312-1.228.709-1.228.709.54.709,1.228S225.787,115.3,225.389,115.3Zm0-2.237c-.232,0-.49.414-.49,1.009s.258,1.009.49,1.009.49-.414.49-1.009S225.62,113.067,225.389,113.067Zm0,0" transform="translate(-213.395 -107.18)" fill="#1caee4"/>
  <path id="Trazado_688555" data-name="Trazado 688555" d="M228.062,116.15c0-.618-.268-1.118-.6-1.118s-.6.5-.6,1.118.268,1.118.6,1.118S228.062,116.768,228.062,116.15Zm-.6,1.009c-.232,0-.49-.414-.49-1.009s.258-1.009.49-1.009.49.414.49,1.009S227.694,117.159,227.463,117.159Zm0,0" transform="translate(-215.469 -109.254)" fill="#009add"/>
  <path id="Trazado_688556" data-name="Trazado 688556" d="M236.617,115.031h.219v2.237h-.219Zm0,0" transform="translate(-224.733 -109.254)" fill="#1caee4"/>
  <path id="Trazado_688557" data-name="Trazado 688557" d="M216.531,135.117h2.237v.219h-2.237Zm0,0" transform="translate(-205.656 -128.331)" fill="#1caee4"/>
</svg>
